<svg width="1440" height="774" viewBox="0 0 1440 774" fill="none" xmlns="http://www.w3.org/2000/svg">
<path d="M-4.749 317.744L-4.95215 315.991L116.53 311.434L402.967 0L403.779 0.525808L851.108 252.022L1036.58 132.671L1237.9 297.063L1449.99 210.31L1451 211.888L1237.7 299.166L1237.09 298.816L1036.58 134.949L851.108 254.3L850.499 253.95L403.373 2.27839L117.545 313.187L-4.749 317.744Z" fill="#262626"/>
<path d="M-4.54588 327.897L-4.74902 326.144L113.482 318.783L397.482 12.957L583.97 104.968L848.061 255.164L1034.55 150.185L1062.38 172.442L1192.6 265.505L1237.09 300.907L1449.99 225.37L1450.8 226.948L1236.68 302.835L1191.18 266.907L1060.96 173.669L1034.35 152.288L848.061 257.268L847.452 257.092L582.752 106.545L398.091 15.2354L114.498 320.536L-4.54588 327.897Z" fill="#262626"/>
<path d="M-4.34274 338.244L-4.5459 336.491L110.435 326.326L391.997 25.7578L579.907 106.026L844.811 258.326L1032.72 167.542L1060.55 189.8L1190.77 269.718L1236.27 304.769L1449.99 240.45L1450.59 242.027L1235.67 306.697L1189.55 270.945L1059.33 191.202L1032.32 169.645L844.811 260.429L578.892 107.428L392.606 28.0362L111.451 327.904L111.045 328.079L-4.34274 338.244Z" fill="#262626"/>
<path d="M-4.1396 348.588L-4.5459 346.835L107.388 333.691L386.512 38.7305L575.844 106.906L841.764 261.484L1030.69 185.071L1058.72 207.154L1188.94 273.752L1235.26 308.629L1449.99 255.525L1450.39 257.278L1234.85 310.556L1234.45 310.206L1187.93 275.154L1057.51 208.556L1030.28 187.174L841.56 263.587L574.829 108.483L387.121 40.8336L108.404 335.443H107.997L-4.1396 348.588Z" fill="#262626"/>
<path d="M-4.14061 358.915L-4.34375 357.163L104.34 341.214L381.026 51.5117L381.635 51.687L571.984 107.77V107.945L838.716 264.626L1028.66 202.409L1057.1 224.667L1187.32 277.946H1187.52L1234.45 312.296L1449.98 270.585L1450.39 272.337L1233.84 314.224L1186.3 279.348L1055.88 226.069L1028.25 204.512L838.512 266.729L838.106 266.379L570.968 109.522L381.635 53.6148L105.356 342.791L-4.14061 358.915Z" fill="#262626"/>
<path d="M-3.93746 369.259L-4.34375 367.506L101.293 348.578L375.541 64.4844L568.124 108.825L835.668 267.784L1026.63 219.939L1055.27 242.021L1185.49 281.98L1185.69 282.156L1233.63 316.156L1449.78 285.661L1450.19 287.413L1233.02 318.084L1232.62 317.733L1184.47 283.558L1054.25 243.599L1054.05 243.423L1026.02 221.867L835.262 269.712L834.856 269.537L567.108 110.402L376.353 66.4122L102.308 350.156L102.105 350.331L-3.93746 369.259Z" fill="#262626"/>
<path d="M-3.73336 379.431L-4.13965 377.854L98.2463 356.121L370.057 77.2852L370.666 77.4604L564.062 109.708V109.883L832.622 270.946L1024.6 237.296L1053.44 259.379L1183.86 286.193L1232.62 320.018L1449.78 300.74L1449.99 302.492L1232.01 321.771L1182.85 287.771L1052.43 260.956L1023.99 239.224L832.013 272.874L831.809 272.698L563.249 111.461L370.869 79.213L99.2621 357.524L99.0589 357.699L-3.73336 379.431Z" fill="#262626"/>
<path d="M-3.53024 389.771L-3.93652 388.194L95.1991 363.482L364.572 90.2539H365.181L559.999 110.759H560.202L829.372 274.1L1022.56 254.822L1051.82 276.729L1182.03 290.224L1231.81 323.874L1449.78 315.812V317.564L1230.99 325.626L1181.22 291.977L1050.8 278.482L1021.95 256.574L828.965 276.028L828.559 275.853L559.186 112.336L365.384 92.1818L96.418 365.059L-3.53024 389.771Z" fill="#262626"/>
<path d="M-3.32708 400.107L-3.93652 398.529L92.1519 370.839L359.087 103.219L555.936 111.631L556.139 111.806L826.325 277.426L1020.53 272.343L1049.99 294.075L1180.21 294.251L1180.41 294.601L1230.79 327.725L1449.78 330.88V332.632L1230.18 329.478L1179.6 296.003L1049.18 295.828L1019.92 274.096L825.715 279.178L555.327 113.384L360.103 104.971L93.3708 372.416H92.9645L-3.32708 400.107Z" fill="#262626"/>
<path d="M-3.12395 410.447L-3.7334 408.695L89.1047 378.375L353.602 116.013L552.076 112.508L552.279 112.683L823.277 280.581L1018.5 289.694L1018.91 289.869L1048.16 311.602L1178.38 298.457L1229.98 331.581L1449.78 346.128L1449.58 347.705L1229.16 333.158L1228.96 332.983L1177.97 300.21L1047.55 313.354L1017.69 291.447L822.668 282.158L822.261 281.983L551.264 114.436L354.617 117.766L90.3235 379.777L-3.12395 410.447Z" fill="#262626"/>
<path d="M-2.92081 420.795L-3.7334 419.042L86.0575 385.743L348.117 128.989L348.523 128.814L548.013 113.566L548.216 113.742L820.23 283.742L1016.47 307.227L1046.33 328.959L1176.75 302.495L1229.16 335.268L1449.78 361.207L1449.38 362.959L1228.35 337.021L1176.14 304.423L1045.93 330.887L1015.66 308.804L819.417 285.32L819.214 285.144L547.404 115.319L349.133 130.566L87.2763 387.32H87.0732L-2.92081 420.795Z" fill="#262626"/>
<path d="M-2.71768 430.954L-3.53027 429.377L83.0103 393.274L342.632 141.778H343.038L543.95 114.438L544.357 114.613L817.183 286.892L1014.44 324.572L1044.71 346.305L1174.92 306.696L1228.15 339.119L1449.58 376.274L1449.17 378.026L1227.34 340.872L1227.13 340.696L1174.52 308.624L1044.3 348.232L1043.69 347.882L1013.63 326.15L816.167 288.469V288.294L543.544 116.365L343.648 143.355L84.2291 394.676H84.026L-2.71768 430.954Z" fill="#262626"/>
<path d="M-2.51454 441.29L-3.53027 439.713L79.9631 400.63L337.147 154.742L337.553 154.567L539.887 115.484L540.294 115.66L813.932 290.042L1012.61 342.094L1042.88 363.651L1173.1 310.722L1227.34 342.97L1449.58 391.341L1449.17 393.094L1226.32 344.547L1172.89 312.826L1042.47 365.754L1011.59 343.671L813.12 291.619L812.917 291.444L539.481 117.237L338.366 156.32L81.1819 402.032L80.9788 402.207L-2.51454 441.29Z" fill="#262626"/>
<path d="M-2.31141 451.633L-3.32715 450.056L76.9158 408.169L331.662 167.539H332.068L536.028 116.363L810.885 293.199L1010.58 359.447V359.622L1041.05 381.004L1171.27 314.931L1226.32 346.828L1449.58 406.416L1448.97 408.169L1225.51 348.406H1225.3L1171.27 317.034L1040.85 383.282L1009.36 361.024L809.869 294.601L535.621 118.291L332.881 169.116L78.1347 409.396L77.9316 409.571L-2.31141 451.633Z" fill="#262626"/>
<path d="M-2.11024 461.976L-3.12598 460.398L73.8667 415.532L326.175 180.335H326.581L531.963 117.242L807.836 296.356L1008.55 376.975L1039.22 398.532L1169.44 318.965L1225.51 350.687L1449.58 421.491L1448.76 423.244L1224.49 352.264L1169.64 321.068L1039.22 400.635L1007.33 378.377L806.82 297.758H806.617L531.556 119.345L327.394 181.913L75.0855 416.934L-2.11024 461.976Z" fill="#262626"/>
<path d="M-1.9071 472.144L-3.12598 470.742L70.8195 422.896L320.69 193.308L320.893 193.132L527.9 118.297L528.509 118.647L804.789 299.514L1006.31 394.329L1037.59 415.886L1167.81 323.174L1224.69 354.545L1449.37 436.742L1448.76 438.319L1223.68 355.948L1167.81 325.277L1037.59 418.164L1005.29 395.731L803.773 300.916L527.697 120.225L321.909 194.71L72.2415 424.298L-1.9071 472.144Z" fill="#262626"/>
<path d="M-1.70202 482.487L-2.9209 481.085L67.7742 430.435L315.41 206.104L524.042 119.176L801.744 302.671L1004.28 411.682L1035.77 433.239L1165.99 327.208L1223.68 358.228L1449.38 451.817L1448.56 453.394L1222.66 359.806L1166.19 329.486L1035.97 435.518L1003.27 413.26L800.525 304.074L523.839 121.279L316.629 207.681L69.1962 431.662L-1.70202 482.487Z" fill="#262626"/>
<path d="M-1.49888 492.826L-2.9209 491.424L64.727 437.795L309.925 219.072V218.897L519.979 120.227L520.588 120.577L798.493 305.825L1002.45 429.207L1033.94 450.589L1164.16 331.413L1222.87 362.083L1449.38 466.888L1448.36 468.465L1221.85 363.661L1164.56 333.691L1034.14 453.043L1001.23 430.609L797.274 307.227L519.776 122.154L311.144 220.474L66.149 439.022L-1.49888 492.826Z" fill="#262626"/>
<path d="M-1.29574 502.982L-2.71777 501.755L304.44 231.857L516.119 121.094L516.525 121.444L1032.32 468.106L1162.33 335.61L1163.14 335.961L1449.38 481.951L1448.36 483.528L1162.94 337.713L1032.52 470.384L1031.71 469.858L515.916 123.197L305.659 233.259L-1.29574 502.982Z" fill="#262626"/>
<path d="M-1.49888 507.019L-2.9209 505.617L299.362 245.358L513.478 133.719L514.088 134.069L1010.58 473.019L1163.34 344.38L1163.95 344.73L1449.38 488.617L1448.36 490.195L1163.55 346.483L1010.78 475.298L1009.97 474.772L513.275 135.822L300.58 246.761L-1.49888 507.019Z" fill="#262626"/>
<path d="M-1.70396 510.874L-3.12598 509.647L294.281 258.852H294.484L511.039 146.336L511.648 146.686L988.84 477.925L1164.16 353.141L1164.76 353.492L1449.37 495.276L1448.36 496.678L1164.36 355.244L988.84 480.204L988.23 479.678L510.835 148.439L295.5 260.254L-1.70396 510.874Z" fill="#262626"/>
<path d="M-1.90513 514.728L-3.32715 513.501L289.407 272.345L508.603 158.953L509.009 159.304L967.308 482.831L1164.97 361.903L1449.38 501.934L1448.36 503.336L1165.17 364.006L967.105 485.109L966.496 484.584L508.4 161.056L290.626 273.747L-1.90513 514.728Z" fill="#262626"/>
<path d="M-2.10824 518.578L-3.53027 517.352L284.329 286.01V285.835L506.165 171.566L506.571 171.917L945.572 487.733L1165.78 370.66L1166.39 371.011L1449.38 508.413L1448.36 509.991L1165.99 372.763L945.368 490.011L505.962 173.67L285.548 287.412L-2.10824 518.578Z" fill="#262626"/>
<path d="M-2.51452 522.616L-3.7334 521.214L279.25 299.512L503.524 184.191L504.134 184.542L923.835 492.646L1166.6 379.429L1167.2 379.78L1449.38 515.08L1448.36 516.657L1166.6 381.533L923.632 494.925L923.022 494.399L503.321 186.295L280.469 300.914L-2.51452 522.616Z" fill="#262626"/>
<path d="M-2.71765 526.466L-3.93652 525.239L274.171 313.001L501.086 196.805L902.098 497.724L1167.61 388.187L1168.02 388.537L1449.17 521.734L1448.36 523.311L1167.41 390.29L901.895 499.651L901.286 499.301L500.883 198.908L275.39 314.403L-2.71765 526.466Z" fill="#262626"/>
<path d="M-2.92077 530.32L-4.13965 529.093L269.296 326.495L498.649 209.422L499.258 209.948L880.565 502.629L1168.42 397.124L1449.17 528.392L1448.36 529.795L1168.22 399.052L880.158 504.557L879.549 504.207L498.445 211.525L270.312 327.897L-2.92077 530.32Z" fill="#262626"/>
<path d="M1448.36 536.457L1169.03 407.817L858.421 509.467L857.811 509.117L495.804 224.146L265.435 341.394L-3.12487 534.354L-4.34375 532.952L264.216 339.992L496.21 222.043L858.827 507.539L1169.24 405.889L1169.64 406.064L1449.17 534.879L1448.36 536.457Z" fill="#262626"/>
<path d="M1448.36 543.115L1169.85 416.579L836.685 514.373L836.076 514.022L493.367 236.938L260.358 354.888L-3.32701 538.208L-4.5459 536.806L259.139 353.485L493.57 234.66L494.18 235.186L837.091 512.445L1170.05 414.651L1170.46 414.826L1449.17 541.538L1448.36 543.115Z" fill="#262626"/>
<path d="M1448.36 549.785L1170.66 425.176L814.948 519.29L814.339 518.94L490.929 249.567L255.279 368.393L-3.53015 542.074L-4.74902 540.847L254.263 366.991L491.132 247.289L491.742 247.815L815.355 517.362L1170.86 423.424L1171.27 423.599L1449.17 548.208L1448.36 549.785Z" fill="#262626"/>
<path d="M1448.36 556.444L1171.47 433.938L793.008 524.196L792.602 523.846L488.288 262.185L250.2 382.061L-3.73327 546.103L-4.95215 544.701L249.184 380.484L488.695 259.906L489.304 260.432L793.618 522.268L1171.67 432.185L1172.08 432.361L1449.17 554.866L1448.36 556.444Z" fill="#262626"/>
<path d="M1448.36 562.927L1172.28 442.699L771.271 529.102L770.865 528.751L485.85 274.802L245.324 395.555L-3.93737 549.958L-5.15625 548.556L244.105 393.978L486.256 272.523L772.083 527.174L1172.49 440.947L1172.89 441.122L1449.17 561.525L1448.36 562.927Z" fill="#262626"/>
<path d="M1448.36 569.589L1173.09 451.465L749.533 534.012L749.127 533.661L483.411 287.423L240.244 409.052L-4.34462 553.816L-5.36035 552.414L239.228 407.475L483.614 285.145L484.223 285.67L750.346 532.084L1173.3 449.712L1449.17 568.012L1448.36 569.589Z" fill="#262626"/>
<path d="M1448.36 576.236L1173.91 460.215L727.798 538.906L727.392 538.555L480.772 300.028L235.167 422.534L-4.54579 557.834L-5.56152 556.256L234.152 420.957L481.178 297.75L481.788 298.276L728.611 536.978L1174.11 458.462L1174.32 458.637L1449.17 574.659L1448.36 576.236Z" fill="#262626"/>
<path d="M1448.36 582.91L1174.72 468.992L706.062 543.827L705.655 543.477L478.334 312.661L230.292 436.043L-4.74891 561.704L-5.76465 560.301L229.073 434.466L478.74 310.383L479.35 310.909L706.874 541.899L1174.92 467.239L1175.13 467.414L1449.17 581.333L1448.36 582.91Z" fill="#262626"/>
<path d="M1448.36 589.568L1175.33 477.753L684.324 548.733L475.692 325.278L225.212 449.537L-4.95302 565.558L-5.96875 564.156L224.197 447.959L476.302 323L476.911 323.526L685.137 546.805L1175.74 476.001L1175.94 476.176L1449.17 587.991L1448.36 589.568Z" fill="#262626"/>
<path d="M1448.36 596.227L1176.14 486.515L662.587 553.639L662.181 553.113L473.255 337.896L220.134 463.03L-5.15614 569.587L-6.17188 568.01L219.118 461.453L473.864 335.617L663.4 551.711L1176.55 484.762L1176.75 484.937L1449.17 594.474L1448.36 596.227Z" fill="#262626"/>
<path d="M1448.36 602.71L1176.96 495.276L640.851 558.545L640.445 558.019L470.817 350.513L215.055 476.524L-5.35927 573.442L-6.375 571.864L214.242 474.946L471.426 348.234L471.833 348.935L641.866 556.617L1177.36 493.524L1177.56 493.699L1449.17 601.133L1448.36 602.71Z" fill="#262626"/>
<path d="M1448.36 609.013C1446.12 607.961 1182.85 508.064 1174.31 507.889C1170.05 508.064 1050.39 521.909 1049.18 522.085L635.772 561.868L592.095 512.796L457.409 365.579L208.961 488.61L-5.35927 583.6L-6.375 582.023L207.945 487.033L458.019 363.125L593.721 511.569L636.585 559.94L1048.57 520.157C1053.44 519.631 1169.64 506.136 1173.91 505.961C1182.03 505.961 1448.36 606.384 1449.38 607.435L1448.56 607.961L1447.55 607.786L1448.56 607.961L1448.36 609.013Z" fill="#262626"/>
<path d="M1448.16 615.156C1446.12 614.105 1188.53 520.517 1171.27 520.517C1171.27 520.517 1171.27 520.517 1171.06 520.517C1162.73 520.867 1046.33 534.011 1045.11 534.187L630.693 565.383L585.189 518.063L444.001 380.485L202.663 500.537L-5.35927 593.599L-6.375 592.022L201.647 498.96L444.408 378.031L445.017 378.557L586.611 516.836L631.506 563.455L1044.91 532.259C1049.58 531.733 1162.53 518.939 1171.06 518.589C1179.19 518.413 1254.35 544.001 1315.7 565.558C1369.13 584.311 1448.77 612.878 1449.58 613.754L1449.98 614.105L1449.78 614.455L1447.75 613.929L1448.77 614.105L1448.16 615.156Z" fill="#262626"/>
<path d="M1448.16 621.281C1446.33 620.405 1194.22 532.951 1168.42 532.951C1168.22 532.951 1168.22 532.951 1168.02 532.951C1155.42 533.476 1042.47 545.92 1041.46 546.095L625.412 568.879L578.078 523.311L430.797 395.373L196.366 512.621L-5.35927 603.755L-6.375 602.178L195.35 511.219L431 393.27L579.5 522.26L626.224 567.126L1041.25 544.342C1045.93 543.817 1155.22 531.724 1168.02 531.198C1168.22 531.198 1168.22 531.198 1168.42 531.198C1181.63 531.198 1256.39 554.858 1316.92 574.837C1374.21 593.59 1448.56 619.003 1449.58 620.054L1449.98 620.405L1449.78 620.93L1447.75 620.405L1448.77 620.58L1448.16 621.281Z" fill="#262626"/>
<path d="M1448.16 627.592C1445.72 626.365 1383.35 605.86 1315.91 585.179C1232.21 559.591 1178.99 545.571 1165.58 545.571C1165.38 545.571 1165.17 545.571 1164.97 545.571C1148.11 546.096 1038.82 558.014 1037.6 558.189L620.536 572.385L571.171 528.746L417.389 410.271L190.068 524.715L-5.35927 613.746L-6.375 612.169L189.052 523.138L417.592 408.168L572.39 527.519L621.146 570.633L1037.6 556.437C1038.61 556.262 1148.11 544.519 1164.97 543.818C1165.17 543.818 1165.38 543.818 1165.58 543.818C1183.05 543.818 1257.81 565.55 1317.94 583.952C1374.41 601.303 1448.16 624.963 1449.38 626.365L1449.78 626.715L1449.58 627.241L1448.56 627.066L1448.16 627.592Z" fill="#262626"/>
<path d="M1448.16 633.727C1445.72 632.325 1385.18 613.572 1317.13 594.294C1232.62 570.459 1177.56 557.49 1162.13 558.016C1141 558.717 1035.16 569.933 1034.14 570.108L615.457 575.892L564.264 534.005L404.185 425.17L183.974 536.634L-5.15614 623.737L-6.17188 622.16L182.958 535.057L404.185 423.066L565.483 532.603L616.067 573.964L1033.94 568.356C1034.96 568.181 1140.79 557.139 1161.92 556.263C1182.03 555.562 1258.62 575.892 1319.16 593.067C1379.29 610.067 1448.16 631.098 1449.37 632.5L1449.78 632.851L1449.58 633.377L1448.56 633.201L1448.16 633.727Z" fill="#262626"/>
<path d="M1448.16 640.03C1445.72 638.628 1385.79 621.102 1318.35 603.576C1234.24 581.669 1177.56 570.102 1159.08 570.628C1133.68 571.504 1031.3 582.02 1030.28 582.195L610.175 579.215L557.154 539.256L390.777 440.06L177.676 548.72L-5.15614 633.896L-6.17188 632.319L176.66 547.143L390.777 437.957L558.373 537.854L610.988 577.463L1030.28 580.442C1031.1 580.267 1133.68 569.927 1159.08 568.875C1183.25 567.999 1260.25 586.576 1320.58 602.174C1381.32 617.948 1448.16 637.051 1449.58 638.628L1449.98 638.979L1449.78 639.504L1447.75 638.979L1448.77 639.154L1448.16 640.03Z" fill="#262626"/>
<path d="M1448.16 646.173C1445.72 644.771 1387.62 628.823 1319.77 612.699C1271.22 601.132 1185.49 582.029 1156.23 583.08C1126.78 584.132 1027.85 593.946 1026.83 594.122L605.3 582.555L605.097 582.379L550.45 544.348L377.776 454.791L171.785 560.472L-4.95302 643.895L-5.96875 642.318L170.566 559.07L377.572 452.863L378.182 453.214L551.669 543.121L606.112 580.977L1026.83 592.544C1027.64 592.369 1126.57 582.555 1156.23 581.503C1184.47 580.452 1261.87 597.276 1322 611.472C1383.56 626.019 1448.36 643.369 1449.78 644.947L1450.19 645.297L1449.98 645.823L1447.95 645.297L1448.97 645.472L1448.16 646.173Z" fill="#262626"/>
<path d="M-4.95302 654.058L-5.96875 652.481L164.268 571.161L364.165 467.934L544.356 548.377L600.831 584.481L1022.97 604.635C1023.78 604.46 1119.26 595.347 1152.98 594.12C1186.91 592.893 1274.06 610.243 1323.02 620.759C1385.18 634.079 1447.95 649.501 1449.58 651.254L1449.98 651.605L1449.78 652.13L1447.75 651.605L1448.77 651.78L1448.16 652.306C1440.84 647.924 1211.29 593.594 1153.19 595.697C1119.46 596.924 1023.99 606.037 1022.97 606.213L600.018 586.058L543.137 549.604L363.962 469.686L165.081 572.388L-4.95302 654.058Z" fill="#262626"/>
<path d="M-4.95302 664.049L-5.96875 662.472L157.971 583.08L350.554 482.832L350.96 483.007L537.043 553.636L595.346 587.987L1018.91 616.554C1019.72 616.554 1111.54 607.967 1149.73 606.565C1187.93 605.162 1275.28 620.585 1323.83 629.874C1381.73 640.915 1447.34 655.286 1449.37 657.39L1449.78 657.74L1449.58 658.266L1448.56 658.091L1447.95 658.616C1445.11 657.039 1388.84 643.895 1322 631.276C1273.86 622.162 1187.72 607.09 1149.94 608.317C1111.95 609.719 1020.13 618.132 1019.11 618.307L594.939 589.74L536.23 555.214L350.757 484.935L158.986 584.832L-4.95302 664.049Z" fill="#262626"/>
<path d="M-4.74891 674.032L-5.76465 672.455L151.877 594.991L337.35 497.547L337.757 497.722L530.34 558.712L590.471 591.31L1015.25 628.465C1018.7 628.115 1105.04 620.578 1146.89 619.001C1189.55 617.424 1276.9 630.743 1325.25 638.805C1383.76 648.62 1447.55 661.238 1449.58 663.342L1449.99 663.692L1449.78 664.218L1448.77 664.043L1447.95 664.568C1442.47 661.238 1221.04 617.949 1146.89 620.754C1104.64 622.331 1016.27 630.042 1015.45 630.218H1015.25H1015.05L589.659 593.063L529.324 560.465L337.35 499.825L152.69 596.743L-4.74891 674.032Z" fill="#262626"/>
<path d="M-4.74891 684.208L-5.76465 682.63L145.58 607.269L323.943 512.805L523.433 564.155L585.393 594.826L1011.59 640.743C1015.25 640.393 1098.14 633.558 1143.84 631.805C1190.77 630.053 1278.53 641.444 1326.47 648.28C1385.38 656.692 1447.55 667.558 1449.58 669.836L1449.99 670.187L1449.78 670.713L1447.75 670.187L1448.77 670.362L1447.95 670.888C1445.31 669.311 1392.49 659.321 1324.44 649.682C1276.9 642.847 1190.36 631.805 1143.84 633.383C1097.32 635.135 1012.41 642.146 1011.59 642.321H1011.39H1011.19L584.377 596.578L584.174 596.403L522.011 565.557L324.146 514.732L146.595 608.846L-4.74891 684.208Z" fill="#262626"/>
<path d="M-4.74891 694.191L-5.76465 692.614L139.282 619.18L310.535 527.695H310.941L516.323 569.232H516.526L580.517 598.149L1008.14 652.479C1011.8 652.129 1091.23 645.995 1141 644.067C1227.95 640.912 1445.92 671.583 1449.58 675.789L1449.99 676.139L1449.78 676.665L1448.77 676.49L1447.95 677.016C1441.45 673.16 1230.59 642.665 1140.8 645.82C1090.01 647.572 1008.75 654.057 1007.94 654.232H1007.73H1007.53L579.298 599.902L515.104 570.809L310.535 529.273L140.095 620.407L-4.74891 694.191Z" fill="#262626"/>
<path d="M-4.54579 704.354L-5.56152 702.777L133.188 631.271L297.33 542.766H297.737L509.416 574.663H509.619L575.438 601.828L1004.48 664.57C1008.14 664.22 1084.12 658.612 1138.15 656.684C1232.01 653.354 1445.72 677.539 1449.78 682.096L1450.19 682.447L1449.99 682.972L1447.95 682.447L1448.97 682.622L1448.16 683.148C1443.08 679.993 1237.7 654.756 1138.15 658.261C1083.31 660.189 1005.3 665.972 1004.48 666.148H1004.28H1004.08L574.626 603.23H574.423L508.603 576.065L297.533 544.168L134.203 632.323L-4.54579 704.354Z" fill="#262626"/>
<path d="M-4.54579 714.352L-5.56152 712.775L126.89 643.198L283.72 557.496H284.126L502.102 579.754L569.953 605.166L1000.62 676.847C1004.28 676.672 1076.8 671.589 1134.9 669.486C1236.27 665.806 1445.52 684.033 1449.58 688.589L1449.99 688.94L1449.78 689.466L1448.77 689.291L1447.95 689.816C1442.47 686.486 1243.79 667.383 1134.9 671.414C1075.79 673.517 1001.23 678.6 1000.62 678.775H1000.42H1000.22L569.344 607.27H569.141L501.29 581.857L283.923 559.599L127.703 644.95L-4.54579 714.352Z" fill="#262626"/>
<path d="M-4.54579 724.512L-5.56152 723.11L120.593 655.46L270.312 572.738H270.718L495.195 585.357H495.398L565.281 609.017L997.171 688.935C1000.83 688.759 1070.1 684.378 1132.06 682.1C1239.32 678.244 1445.52 689.986 1449.78 694.718L1450.19 695.069L1449.99 695.594L1447.95 695.069L1448.97 695.244L1448.16 695.77C1442.47 692.44 1248.87 679.471 1132.06 683.677C1068.68 685.955 997.78 690.337 996.968 690.512H996.765H996.562L564.468 610.594L494.586 586.934L270.718 574.316L121.608 656.687L-4.54579 724.512Z" fill="#262626"/>
<path d="M-4.34462 734.496L-5.36035 733.094L114.496 667.372L257.105 587.629H257.512L488.286 590.608H488.489L560.2 612.516L993.512 701.021C997.169 700.846 1062.99 697.165 1129.21 694.712C1245.21 690.506 1445.72 696.465 1449.98 701.021L1450.39 701.372L1450.19 701.898L1449.17 701.722L1448.36 702.248C1441.65 698.392 1247.04 692.258 1129.21 696.464C1061.57 698.918 994.122 702.599 993.512 702.774H993.309H993.106L559.591 614.268L487.88 592.361L257.715 589.381L115.309 668.774L-4.34462 734.496Z" fill="#262626"/>
<path d="M-4.34462 744.501L-5.36035 743.099L108.199 679.305L243.698 602.366H243.901L480.973 595.531H481.176L554.715 615.686L989.45 712.779C993.106 712.604 1055.68 709.625 1125.76 706.996C1242.16 702.789 1445.11 702.088 1449.58 706.996L1449.98 707.346L1449.78 707.872L1447.75 707.346L1448.76 707.521L1447.95 708.047C1441.25 704.367 1253.95 704.016 1125.76 708.573C1053.85 711.202 989.856 714.181 989.247 714.357H989.043H988.84L553.903 617.263L480.567 597.459L244.104 604.294L109.214 680.882L-4.34462 744.501Z" fill="#262626"/>
<path d="M-4.34263 754.655L-5.56152 753.253L229.886 617.603H230.089L473.662 601.129H473.865L985.591 725.037C990.67 724.861 1103.01 720.305 1214.74 716.624C1445.31 709.088 1448.16 712.243 1449.38 713.47C1449.58 713.82 1449.78 714.171 1449.58 714.521L1447.55 713.995C1447.34 714.346 1447.55 714.696 1447.75 714.696C1438.81 709.789 1110.93 721.707 985.388 726.789H985.185H984.982L473.255 602.881L230.698 619.181L-4.34263 754.655Z" fill="#262626"/>
<path d="M-4.54579 770.778L-5.56152 769.376L231.917 641.262L475.084 625.664H475.287L986.811 742.737C991.483 742.561 1104.03 738.355 1215.55 734.85C1445.72 727.665 1448.36 730.819 1449.38 731.871L1449.78 732.221L1449.58 732.747L1447.75 732.221L1448.77 732.396L1448.16 732.922C1439.42 728.19 1112.15 739.582 986.811 744.314H986.607H986.404L474.881 627.241L232.527 642.664L-4.54579 770.778Z" fill="#262626"/>
<path d="M-4.74891 787.073L-5.76465 785.671L233.542 665.093H233.745L476.1 650.547H476.303L987.623 760.785C1064.21 757.98 1443.89 744.661 1449.17 750.62L1449.38 750.97V751.496L1447.55 750.97L1448.36 751.145L1447.75 751.496C1439.62 747.29 1143.03 756.578 987.42 762.187H987.217H987.014L475.693 651.949L233.745 666.495L-4.74891 787.073Z" fill="#262626"/>
<path d="M-4.95206 803.196L-5.76465 801.794L235.574 688.752H235.777L477.522 675.082H477.725L988.842 778.309C1065.23 775.68 1444.3 763.237 1449.38 768.67L1449.58 769.021V769.546L1447.95 769.021L1448.77 769.196L1448.16 769.546C1440.23 765.515 1144.25 774.454 988.842 779.536H988.639H988.436L477.318 676.309L235.98 689.979L-4.95206 803.196Z" fill="#262626"/>
<path d="M-5.15616 819.502L-5.96875 818.276L237.401 712.595H237.604L478.943 699.801H479.146L990.263 796.193C1066.44 793.739 1445.11 782.172 1449.58 787.255L1449.78 787.605V788.131L1448.16 787.781L1448.97 787.956L1448.36 788.306C1440.64 784.626 1145.26 792.863 990.263 797.77H990.06H989.857L478.943 701.378L238.011 714.172L-5.15616 819.502Z" fill="#262626"/>
<path d="M-5.3593 835.622L-5.96875 834.395L239.229 736.425H239.433L480.162 724.508H480.365L991.279 814.065C1066.85 811.787 1445.11 800.921 1449.38 805.828L1449.58 806.178V806.704L1447.95 806.354L1448.77 806.529L1448.16 806.879C1440.64 803.374 1145.87 811.086 991.076 815.642L479.958 726.085L239.636 738.003L-5.3593 835.622Z" fill="#262626"/>
<path d="M-5.56244 851.929L-6.17188 850.702L241.058 760.268H241.261L481.38 749.402L992.295 832.124C1067.87 830.021 1445.31 820.032 1449.37 824.413L1449.58 824.764V825.114L1448.77 824.939L1448.36 825.289C1441.05 821.959 1146.89 829.145 992.295 833.351L481.38 750.629L241.667 761.67L-5.56244 851.929Z" fill="#262626"/>
<path d="M-5.76557 868.047L-6.375 866.821L242.683 783.923H242.886L482.396 773.934L993.107 849.645C1068.47 847.717 1445.52 838.604 1449.17 842.635L1449.38 842.81V843.161L1447.95 842.81L1448.56 842.986L1448.16 843.336C1441.25 840.357 1147.5 846.841 993.107 850.697L482.396 774.985L243.089 784.975L-5.76557 868.047Z" fill="#262626"/>
</svg>
