<svg width="1198" height="1671" viewBox="0 0 1198 1671" fill="none" xmlns="http://www.w3.org/2000/svg">
<g opacity="0.6">
<g opacity="0.0344828">
<path d="M207.336 388.546C215.305 379.05 227.288 373.202 242.941 370.854C258.602 368.505 277.874 369.672 300.299 374.154C345.148 383.118 402.403 405.302 468.186 438.767C599.735 505.69 765.187 617.626 933.338 758.722C1101.49 899.819 1240.46 1043.32 1329.21 1161.25C1373.59 1220.22 1405.37 1272.75 1421.99 1315.36C1430.3 1336.67 1434.79 1355.45 1435.2 1371.28C1435.61 1387.1 1431.93 1399.92 1423.96 1409.41C1415.99 1418.91 1404.01 1424.76 1388.35 1427.11C1372.69 1429.46 1353.42 1428.29 1331 1423.81C1286.15 1414.84 1228.89 1392.66 1163.11 1359.19C1031.56 1292.27 866.109 1180.33 697.957 1039.24C529.806 898.142 390.839 754.642 302.09 636.712C257.71 577.74 225.922 525.207 209.305 482.596C200.997 461.29 196.502 442.513 196.096 426.682C195.69 410.86 199.368 398.043 207.336 388.546Z" stroke="url(#paint0_radial_260_624)" stroke-width="2"/>
<path d="M207.336 388.546C215.305 379.05 227.288 373.202 242.941 370.854C258.602 368.505 277.874 369.672 300.299 374.154C345.148 383.118 402.403 405.302 468.186 438.767C599.735 505.69 765.187 617.626 933.338 758.722C1101.49 899.819 1240.46 1043.32 1329.21 1161.25C1373.59 1220.22 1405.37 1272.75 1421.99 1315.36C1430.3 1336.67 1434.79 1355.45 1435.2 1371.28C1435.61 1387.1 1431.93 1399.92 1423.96 1409.41C1415.99 1418.91 1404.01 1424.76 1388.35 1427.11C1372.69 1429.46 1353.42 1428.29 1331 1423.81C1286.15 1414.84 1228.89 1392.66 1163.11 1359.19C1031.56 1292.27 866.109 1180.33 697.957 1039.24C529.806 898.142 390.839 754.642 302.09 636.712C257.71 577.74 225.922 525.207 209.305 482.596C200.997 461.29 196.502 442.513 196.096 426.682C195.69 410.86 199.368 398.043 207.336 388.546Z" stroke="url(#paint1_radial_260_624)" stroke-opacity="0.2" stroke-width="2"/>
</g>
<g opacity="0.0689655">
<path d="M254.133 331.125C262.899 322.359 275.347 317.578 291.145 316.603C306.951 315.628 326.048 318.47 347.997 324.89C391.894 337.729 446.998 364.818 509.613 403.889C634.83 482.022 789.895 607.953 945.11 763.168C1100.32 918.382 1226.26 1073.45 1304.39 1198.66C1343.46 1261.28 1370.55 1316.38 1383.39 1360.28C1389.81 1382.23 1392.65 1401.33 1391.67 1417.13C1390.7 1432.93 1385.92 1445.38 1377.15 1454.14C1368.39 1462.91 1355.94 1467.69 1340.14 1468.67C1324.34 1469.64 1305.24 1466.8 1283.29 1460.38C1239.39 1447.54 1184.29 1420.45 1121.67 1381.38C996.456 1303.25 841.391 1177.32 686.176 1022.1C530.962 866.887 405.031 711.821 326.897 586.605C287.826 523.989 260.737 468.886 247.898 424.988C241.479 403.039 238.637 383.942 239.612 368.136C240.587 352.338 245.367 339.891 254.133 331.125Z" stroke="url(#paint2_radial_260_624)" stroke-width="2"/>
<path d="M254.133 331.125C262.899 322.359 275.347 317.578 291.145 316.603C306.951 315.628 326.048 318.47 347.997 324.89C391.894 337.729 446.998 364.818 509.613 403.889C634.83 482.022 789.895 607.953 945.11 763.168C1100.32 918.382 1226.26 1073.45 1304.39 1198.66C1343.46 1261.28 1370.55 1316.38 1383.39 1360.28C1389.81 1382.23 1392.65 1401.33 1391.67 1417.13C1390.7 1432.93 1385.92 1445.38 1377.15 1454.14C1368.39 1462.91 1355.94 1467.69 1340.14 1468.67C1324.34 1469.64 1305.24 1466.8 1283.29 1460.38C1239.39 1447.54 1184.29 1420.45 1121.67 1381.38C996.456 1303.25 841.391 1177.32 686.176 1022.1C530.962 866.887 405.031 711.821 326.897 586.605C287.826 523.989 260.737 468.886 247.898 424.988C241.479 403.039 238.637 383.942 239.612 368.136C240.587 352.338 245.367 339.891 254.133 331.125Z" stroke="url(#paint3_radial_260_624)" stroke-opacity="0.2" stroke-width="2"/>
</g>
<g opacity="0.103448">
<path d="M305.218 277.972C314.715 270.004 327.532 266.326 343.354 266.732C359.185 267.138 377.962 271.633 399.268 279.942C441.879 296.558 494.412 328.346 553.384 372.726C671.315 461.475 814.814 600.442 955.911 768.594C1097.01 936.746 1208.94 1102.2 1275.87 1233.75C1309.33 1299.53 1331.51 1356.78 1340.48 1401.63C1344.96 1424.06 1346.13 1443.33 1343.78 1458.99C1341.43 1474.64 1335.58 1486.63 1326.09 1494.6C1316.59 1502.56 1303.77 1506.24 1287.95 1505.84C1272.12 1505.43 1253.34 1500.93 1232.04 1492.63C1189.43 1476.01 1136.89 1444.22 1077.92 1399.84C959.991 1311.09 816.491 1172.13 675.395 1003.97C534.298 835.823 422.362 670.372 355.439 538.822C321.974 473.04 299.79 415.785 290.826 370.935C286.344 348.51 285.177 329.238 287.526 313.577C289.874 297.924 295.722 285.941 305.218 277.972Z" stroke="url(#paint4_radial_260_624)" stroke-width="2"/>
<path d="M305.218 277.972C314.715 270.004 327.532 266.326 343.354 266.732C359.185 267.138 377.962 271.633 399.268 279.942C441.879 296.558 494.412 328.346 553.384 372.726C671.315 461.475 814.814 600.442 955.911 768.594C1097.01 936.746 1208.94 1102.2 1275.87 1233.75C1309.33 1299.53 1331.51 1356.78 1340.48 1401.63C1344.96 1424.06 1346.13 1443.33 1343.78 1458.99C1341.43 1474.64 1335.58 1486.63 1326.09 1494.6C1316.59 1502.56 1303.77 1506.24 1287.95 1505.84C1272.12 1505.43 1253.34 1500.93 1232.04 1492.63C1189.43 1476.01 1136.89 1444.22 1077.92 1399.84C959.991 1311.09 816.491 1172.13 675.395 1003.97C534.298 835.823 422.362 670.372 355.439 538.822C321.974 473.04 299.79 415.785 290.826 370.935C286.344 348.51 285.177 329.238 287.526 313.577C289.874 297.924 295.722 285.941 305.218 277.972Z" stroke="url(#paint5_radial_260_624)" stroke-opacity="0.2" stroke-width="2"/>
</g>
<g opacity="0.137931">
<path d="M360.183 229.452C370.338 222.341 383.427 219.795 399.154 221.578C414.89 223.362 433.203 229.477 453.704 239.611C494.705 259.877 544.267 296.123 599.147 345.474C708.893 444.164 839.735 595.109 965.639 774.918C1091.54 954.727 1188.63 1129.3 1243.84 1266.19C1271.44 1334.64 1288.55 1393.61 1293.57 1439.07C1296.08 1461.8 1295.56 1481.1 1291.86 1496.49C1288.16 1511.88 1281.29 1523.31 1271.13 1530.42C1260.98 1537.53 1247.89 1540.08 1232.16 1538.29C1216.43 1536.51 1198.11 1530.4 1177.61 1520.26C1136.61 1499.99 1087.05 1463.75 1032.17 1414.4C922.422 1315.71 791.58 1164.76 665.676 984.954C539.772 805.145 442.681 630.568 387.478 493.686C359.874 425.237 342.765 366.267 337.744 320.807C335.233 298.076 335.751 278.776 339.456 263.379C343.159 247.991 350.029 236.562 360.183 229.452Z" stroke="url(#paint6_radial_260_624)" stroke-width="2"/>
<path d="M360.183 229.452C370.338 222.341 383.427 219.795 399.154 221.578C414.89 223.362 433.203 229.477 453.704 239.611C494.705 259.877 544.267 296.123 599.147 345.474C708.893 444.164 839.735 595.109 965.639 774.918C1091.54 954.727 1188.63 1129.3 1243.84 1266.19C1271.44 1334.64 1288.55 1393.61 1293.57 1439.07C1296.08 1461.8 1295.56 1481.1 1291.86 1496.49C1288.16 1511.88 1281.29 1523.31 1271.13 1530.42C1260.98 1537.53 1247.89 1540.08 1232.16 1538.29C1216.43 1536.51 1198.11 1530.4 1177.61 1520.26C1136.61 1499.99 1087.05 1463.75 1032.17 1414.4C922.422 1315.71 791.58 1164.76 665.676 984.954C539.772 805.145 442.681 630.568 387.478 493.686C359.874 425.237 342.765 366.267 337.744 320.807C335.233 298.076 335.751 278.776 339.456 263.379C343.159 247.991 350.029 236.562 360.183 229.452Z" stroke="url(#paint7_radial_260_624)" stroke-opacity="0.2" stroke-width="2"/>
</g>
<g opacity="0.172414">
<path d="M418.617 185.884C429.353 179.686 442.614 178.289 458.126 181.437C473.646 184.586 491.357 192.273 510.896 204.155C549.975 227.918 596.19 268.346 646.559 322.291C747.287 430.171 864.475 591.945 974.229 782.043C1083.98 972.141 1165.49 1154.52 1208.55 1295.69C1230.08 1366.28 1241.99 1426.52 1243.03 1472.24C1243.55 1495.11 1241.35 1514.29 1236.32 1529.3C1231.29 1544.31 1223.45 1555.1 1212.71 1561.3C1201.98 1567.49 1188.72 1568.89 1173.2 1565.74C1157.68 1562.59 1139.97 1554.91 1120.43 1543.03C1081.35 1519.26 1035.14 1478.83 984.77 1424.89C884.043 1317.01 766.854 1155.24 657.101 965.137C547.348 775.039 465.842 592.664 422.779 451.491C401.245 380.897 389.341 320.66 388.301 274.935C387.781 252.073 389.979 232.891 395.012 217.876C400.042 202.868 407.881 192.082 418.617 185.884Z" stroke="url(#paint8_radial_260_624)" stroke-width="2"/>
<path d="M418.617 185.884C429.353 179.686 442.614 178.289 458.126 181.437C473.646 184.586 491.357 192.273 510.896 204.155C549.975 227.918 596.19 268.346 646.559 322.291C747.287 430.171 864.475 591.945 974.229 782.043C1083.98 972.141 1165.49 1154.52 1208.55 1295.69C1230.08 1366.28 1241.99 1426.52 1243.03 1472.24C1243.55 1495.11 1241.35 1514.29 1236.32 1529.3C1231.29 1544.31 1223.45 1555.1 1212.71 1561.3C1201.98 1567.49 1188.72 1568.89 1173.2 1565.74C1157.68 1562.59 1139.97 1554.91 1120.43 1543.03C1081.35 1519.26 1035.14 1478.83 984.77 1424.89C884.043 1317.01 766.854 1155.24 657.101 965.137C547.348 775.039 465.842 592.664 422.779 451.491C401.245 380.897 389.341 320.66 388.301 274.935C387.781 252.073 389.979 232.891 395.012 217.876C400.042 202.868 407.881 192.082 418.617 185.884Z" stroke="url(#paint9_radial_260_624)" stroke-opacity="0.2" stroke-width="2"/>
</g>
<g opacity="0.206897">
<path d="M480.058 147.548C491.293 142.309 504.625 142.074 519.804 146.561C534.99 151.051 551.963 160.253 570.393 173.792C607.252 200.871 649.768 245.173 695.244 303.303C786.185 419.551 888.828 590.923 981.596 789.864C1074.36 988.804 1139.66 1177.59 1170.26 1321.98C1185.56 1394.18 1192.17 1455.23 1189.22 1500.87C1187.74 1523.69 1183.88 1542.6 1177.56 1557.12C1171.24 1571.64 1162.49 1581.7 1151.26 1586.94C1140.02 1592.18 1126.69 1592.41 1111.51 1587.92C1096.32 1583.43 1079.35 1574.23 1060.92 1560.69C1024.06 1533.61 981.546 1489.31 936.07 1431.18C845.128 1314.93 742.485 1143.56 649.717 944.621C556.95 745.681 491.649 556.896 461.054 412.508C445.755 340.305 439.146 279.26 442.095 233.619C443.57 210.797 447.431 191.881 453.753 177.361C460.072 162.849 468.822 152.787 480.058 147.548Z" stroke="url(#paint10_radial_260_624)" stroke-width="2"/>
<path d="M480.058 147.548C491.293 142.309 504.625 142.074 519.804 146.561C534.99 151.051 551.963 160.253 570.393 173.792C607.252 200.871 649.768 245.173 695.244 303.303C786.185 419.551 888.828 590.923 981.596 789.864C1074.36 988.804 1139.66 1177.59 1170.26 1321.98C1185.56 1394.18 1192.17 1455.23 1189.22 1500.87C1187.74 1523.69 1183.88 1542.6 1177.56 1557.12C1171.24 1571.64 1162.49 1581.7 1151.26 1586.94C1140.02 1592.18 1126.69 1592.41 1111.51 1587.92C1096.32 1583.43 1079.35 1574.23 1060.92 1560.69C1024.06 1533.61 981.546 1489.31 936.07 1431.18C845.128 1314.93 742.485 1143.56 649.717 944.621C556.95 745.681 491.649 556.896 461.054 412.508C445.755 340.305 439.146 279.26 442.095 233.619C443.57 210.797 447.431 191.881 453.753 177.361C460.072 162.849 468.822 152.787 480.058 147.548Z" stroke="url(#paint11_radial_260_624)" stroke-opacity="0.2" stroke-width="2"/>
</g>
<g opacity="0.241379">
<path d="M544.051 114.687C555.701 110.447 569.002 111.374 583.732 117.167C598.47 122.964 614.576 133.61 631.756 148.704C666.114 178.892 704.607 226.731 744.844 288.604C825.308 412.335 912.624 592.001 987.7 798.27C1062.78 1004.54 1111.37 1198.3 1129.27 1344.8C1138.22 1418.06 1139.48 1479.45 1132.56 1524.66C1129.11 1547.27 1123.61 1565.78 1116.05 1579.69C1108.49 1593.6 1098.89 1602.86 1087.24 1607.1C1075.6 1611.34 1062.29 1610.41 1047.56 1604.62C1032.83 1598.82 1016.72 1588.17 999.54 1573.08C965.181 1542.89 926.689 1495.05 886.452 1433.18C805.988 1309.45 718.672 1129.78 643.596 923.513C568.52 717.245 519.922 523.487 502.027 376.981C493.079 303.721 491.816 242.331 498.732 197.121C502.19 174.515 507.685 156.007 515.249 142.093C522.809 128.187 532.402 118.927 544.051 114.687Z" stroke="url(#paint12_radial_260_624)" stroke-width="2"/>
<path d="M544.051 114.687C555.701 110.447 569.002 111.374 583.732 117.167C598.47 122.964 614.576 133.61 631.756 148.704C666.114 178.892 704.607 226.731 744.844 288.604C825.308 412.335 912.624 592.001 987.7 798.27C1062.78 1004.54 1111.37 1198.3 1129.27 1344.8C1138.22 1418.06 1139.48 1479.45 1132.56 1524.66C1129.11 1547.27 1123.61 1565.78 1116.05 1579.69C1108.49 1593.6 1098.89 1602.86 1087.24 1607.1C1075.6 1611.34 1062.29 1610.41 1047.56 1604.62C1032.83 1598.82 1016.72 1588.17 999.54 1573.08C965.181 1542.89 926.689 1495.05 886.452 1433.18C805.988 1309.45 718.672 1129.78 643.596 923.513C568.52 717.245 519.922 523.487 502.027 376.981C493.079 303.721 491.816 242.331 498.732 197.121C502.19 174.515 507.685 156.007 515.249 142.093C522.809 128.187 532.402 118.927 544.051 114.687Z" stroke="url(#paint13_radial_260_624)" stroke-opacity="0.2" stroke-width="2"/>
</g>
<g opacity="0.275862">
<path d="M610.138 87.5091C622.112 84.3006 635.283 86.384 649.451 93.4389C663.627 100.498 678.745 112.507 694.544 129.041C726.14 162.109 760.317 213.12 795.008 278.264C864.382 408.538 935.707 595.13 992.52 807.158C1049.33 1019.18 1080.86 1216.44 1085.92 1363.95C1088.45 1437.71 1084.35 1498.98 1073.52 1543.41C1068.11 1565.63 1061.02 1583.59 1052.27 1596.79C1043.53 1609.98 1033.17 1618.37 1021.19 1621.58C1009.22 1624.79 996.047 1622.71 981.878 1615.65C967.702 1608.59 952.585 1596.58 936.786 1580.05C905.189 1546.98 871.012 1495.97 836.321 1430.83C766.947 1300.55 695.622 1113.96 638.81 901.934C581.997 689.907 550.471 492.651 545.413 345.143C542.884 271.381 546.976 210.116 557.806 165.68C563.221 143.461 570.309 125.502 579.056 112.301C587.799 99.1071 598.163 90.7176 610.138 87.5091Z" stroke="url(#paint14_radial_260_624)" stroke-width="2"/>
<path d="M610.138 87.5091C622.112 84.3006 635.283 86.384 649.451 93.4389C663.627 100.498 678.745 112.507 694.544 129.041C726.14 162.109 760.317 213.12 795.008 278.264C864.382 408.538 935.707 595.13 992.52 807.158C1049.33 1019.18 1080.86 1216.44 1085.92 1363.95C1088.45 1437.71 1084.35 1498.98 1073.52 1543.41C1068.11 1565.63 1061.02 1583.59 1052.27 1596.79C1043.53 1609.98 1033.17 1618.37 1021.19 1621.58C1009.22 1624.79 996.047 1622.71 981.878 1615.65C967.702 1608.59 952.585 1596.58 936.786 1580.05C905.189 1546.98 871.012 1495.97 836.321 1430.83C766.947 1300.55 695.622 1113.96 638.81 901.934C581.997 689.907 550.471 492.651 545.413 345.143C542.884 271.381 546.976 210.116 557.806 165.68C563.221 143.461 570.309 125.502 579.056 112.301C587.799 99.1071 598.163 90.7176 610.138 87.5091Z" stroke="url(#paint15_radial_260_624)" stroke-opacity="0.2" stroke-width="2"/>
</g>
<g opacity="0.310345">
<path d="M677.766 66.1679C689.974 64.0153 702.913 67.2386 716.413 75.5016C729.92 83.7689 743.933 97.0501 758.231 114.898C786.825 150.594 816.426 204.39 845.307 272.31C903.063 408.134 957.854 600.233 995.971 816.405C1034.09 1032.58 1048.3 1231.83 1040.48 1379.22C1036.58 1452.92 1027.16 1513.59 1012.5 1556.92C1005.17 1578.58 996.541 1595.85 986.676 1608.24C976.816 1620.62 965.76 1628.08 953.552 1630.23C941.344 1632.38 928.405 1629.16 914.905 1620.9C901.398 1612.63 887.385 1599.35 873.087 1581.5C844.493 1545.8 814.892 1492.01 786.011 1424.09C728.255 1288.26 673.464 1096.16 635.347 879.993C597.23 663.821 583.015 464.567 590.833 317.18C594.743 243.479 604.159 182.803 618.82 139.48C626.151 117.818 634.777 100.545 644.642 88.1568C654.501 75.7748 665.557 68.3206 677.766 66.1679Z" stroke="url(#paint16_radial_260_624)" stroke-width="2"/>
<path d="M677.766 66.1679C689.974 64.0153 702.913 67.2386 716.413 75.5016C729.92 83.7689 743.933 97.0501 758.231 114.898C786.825 150.594 816.426 204.39 845.307 272.31C903.063 408.134 957.854 600.233 995.971 816.405C1034.09 1032.58 1048.3 1231.83 1040.48 1379.22C1036.58 1452.92 1027.16 1513.59 1012.5 1556.92C1005.17 1578.58 996.541 1595.85 986.676 1608.24C976.816 1620.62 965.76 1628.08 953.552 1630.23C941.344 1632.38 928.405 1629.16 914.905 1620.9C901.398 1612.63 887.385 1599.35 873.087 1581.5C844.493 1545.8 814.892 1492.01 786.011 1424.09C728.255 1288.26 673.464 1096.16 635.347 879.993C597.23 663.821 583.015 464.567 590.833 317.18C594.743 243.479 604.159 182.803 618.82 139.48C626.151 117.818 634.777 100.545 644.642 88.1568C654.501 75.7748 665.557 68.3206 677.766 66.1679Z" stroke="url(#paint17_radial_260_624)" stroke-opacity="0.2" stroke-width="2"/>
</g>
<g opacity="0.344828">
<path d="M746.448 50.7779C758.797 49.6974 771.406 54.0362 784.134 63.4443C796.869 72.8574 809.672 87.3094 822.359 106.336C847.734 144.388 872.533 200.559 895.385 270.738C941.083 411.079 978.924 607.222 998.055 825.893C1017.19 1044.56 1013.98 1244.3 993.347 1390.44C983.028 1463.52 968.36 1523.15 949.978 1565.03C940.787 1585.97 930.689 1602.42 919.782 1613.91C908.881 1625.38 897.217 1631.84 884.868 1632.92C872.518 1634 859.91 1629.67 847.181 1620.26C834.446 1610.84 821.644 1596.39 808.956 1577.37C783.582 1539.31 758.782 1483.14 735.93 1412.96C690.232 1272.62 652.392 1076.48 633.261 857.809C614.129 639.137 617.335 439.403 637.969 293.259C648.287 220.178 662.956 160.554 681.337 118.674C690.528 97.7331 700.626 81.2776 711.533 69.7961C722.435 58.3206 734.098 51.8583 746.448 50.7779Z" stroke="url(#paint18_radial_260_624)" stroke-width="2"/>
<path d="M746.448 50.7779C758.797 49.6974 771.406 54.0362 784.134 63.4443C796.869 72.8574 809.672 87.3094 822.359 106.336C847.734 144.388 872.533 200.559 895.385 270.738C941.083 411.079 978.924 607.222 998.055 825.893C1017.19 1044.56 1013.98 1244.3 993.347 1390.44C983.028 1463.52 968.36 1523.15 949.978 1565.03C940.787 1585.97 930.689 1602.42 919.782 1613.91C908.881 1625.38 897.217 1631.84 884.868 1632.92C872.518 1634 859.91 1629.67 847.181 1620.26C834.446 1610.84 821.644 1596.39 808.956 1577.37C783.582 1539.31 758.782 1483.14 735.93 1412.96C690.232 1272.62 652.392 1076.48 633.261 857.809C614.129 639.137 617.335 439.403 637.969 293.259C648.287 220.178 662.956 160.554 681.337 118.674C690.528 97.7331 700.626 81.2776 711.533 69.7961C722.435 58.3206 734.098 51.8583 746.448 50.7779Z" stroke="url(#paint19_radial_260_624)" stroke-opacity="0.2" stroke-width="2"/>
</g>
<g opacity="0.37931">
<path d="M815.644 41.4082C828.04 41.4082 840.223 46.8293 852.083 57.311C863.949 67.7982 875.443 83.311 886.424 103.371C908.386 143.49 928.195 201.609 944.843 273.512C978.136 417.302 998.737 615.996 998.737 835.503C998.737 1055.01 978.136 1253.7 944.843 1397.49C928.195 1469.4 908.386 1527.52 886.424 1567.63C875.443 1587.69 863.949 1603.21 852.083 1613.69C840.223 1624.18 828.04 1629.6 815.644 1629.6C803.247 1629.6 791.064 1624.18 779.204 1613.69C767.338 1603.21 755.844 1587.69 744.863 1567.63C722.902 1527.52 703.092 1469.4 686.444 1397.49C653.151 1253.7 632.55 1055.01 632.55 835.503C632.55 615.996 653.151 417.302 686.444 273.512C703.092 201.609 722.902 143.49 744.863 103.371C755.844 83.311 767.338 67.7982 779.204 57.311C791.064 46.8293 803.247 41.4082 815.644 41.4082Z" stroke="url(#paint20_radial_260_624)" stroke-width="2"/>
<path d="M815.644 41.4082C828.04 41.4082 840.223 46.8293 852.083 57.311C863.949 67.7982 875.443 83.311 886.424 103.371C908.386 143.49 928.195 201.609 944.843 273.512C978.136 417.302 998.737 615.996 998.737 835.503C998.737 1055.01 978.136 1253.7 944.843 1397.49C928.195 1469.4 908.386 1527.52 886.424 1567.63C875.443 1587.69 863.949 1603.21 852.083 1613.69C840.223 1624.18 828.04 1629.6 815.644 1629.6C803.247 1629.6 791.064 1624.18 779.204 1613.69C767.338 1603.21 755.844 1587.69 744.863 1567.63C722.902 1527.52 703.092 1469.4 686.444 1397.49C653.151 1253.7 632.55 1055.01 632.55 835.503C632.55 615.996 653.151 417.302 686.444 273.512C703.092 201.609 722.902 143.49 744.863 103.371C755.844 83.311 767.338 67.7982 779.204 57.311C791.064 46.8293 803.247 41.4082 815.644 41.4082Z" stroke="url(#paint21_radial_260_624)" stroke-opacity="0.2" stroke-width="2"/>
</g>
<g opacity="0.413793">
<path d="M884.864 38.0782C897.214 39.1587 908.877 45.621 919.779 57.0964C930.686 68.5779 940.784 85.0335 949.975 105.974C968.356 147.854 983.025 207.478 993.343 280.559C1013.98 426.704 1017.18 626.438 998.051 845.109C978.92 1063.78 941.08 1259.92 895.382 1400.26C872.53 1470.44 847.73 1526.61 822.356 1564.67C809.668 1583.69 796.866 1598.14 784.131 1607.56C771.402 1616.97 758.794 1621.3 746.444 1620.22C734.095 1619.14 722.431 1612.68 711.53 1601.21C700.623 1589.72 690.525 1573.27 681.334 1552.33C662.952 1510.45 648.283 1450.82 637.965 1377.74C617.331 1231.6 614.126 1031.86 633.257 813.194C652.388 594.522 690.229 398.379 735.927 258.038C758.779 187.859 783.578 131.688 808.953 93.6362C821.64 74.6097 834.443 60.1577 847.178 50.7447C859.906 41.3365 872.515 36.9978 884.864 38.0782Z" stroke="url(#paint22_radial_260_624)" stroke-width="2"/>
<path d="M884.864 38.0782C897.214 39.1587 908.877 45.621 919.779 57.0964C930.686 68.5779 940.784 85.0335 949.975 105.974C968.356 147.854 983.025 207.478 993.343 280.559C1013.98 426.704 1017.18 626.438 998.051 845.109C978.92 1063.78 941.08 1259.92 895.382 1400.26C872.53 1470.44 847.73 1526.61 822.356 1564.67C809.668 1583.69 796.866 1598.14 784.131 1607.56C771.402 1616.97 758.794 1621.3 746.444 1620.22C734.095 1619.14 722.431 1612.68 711.53 1601.21C700.623 1589.72 690.525 1573.27 681.334 1552.33C662.952 1510.45 648.283 1450.82 637.965 1377.74C617.331 1231.6 614.126 1031.86 633.257 813.194C652.388 594.522 690.229 398.379 735.927 258.038C758.779 187.859 783.578 131.688 808.953 93.6362C821.64 74.6097 834.443 60.1577 847.178 50.7447C859.906 41.3365 872.515 36.9978 884.864 38.0782Z" stroke="url(#paint23_radial_260_624)" stroke-opacity="0.2" stroke-width="2"/>
</g>
<g opacity="0.448276">
<path d="M953.551 40.773C965.759 42.9256 976.815 50.3799 986.675 62.7618C996.54 75.1502 1005.17 92.4233 1012.5 114.085C1027.16 157.408 1036.57 218.084 1040.48 291.785C1048.3 439.173 1034.09 638.426 995.97 854.598C957.853 1070.77 903.062 1262.87 845.306 1398.69C816.425 1466.61 786.824 1520.41 758.229 1556.1C743.932 1573.95 729.919 1587.23 716.412 1595.5C702.912 1603.76 689.973 1606.99 677.765 1604.83C665.556 1602.68 654.5 1595.23 644.641 1582.85C634.776 1570.46 626.15 1553.18 618.819 1531.52C604.158 1488.2 594.741 1427.52 590.832 1353.82C583.014 1206.43 597.229 1007.18 635.346 791.01C673.462 574.838 728.254 382.739 786.01 246.915C814.891 178.995 844.491 125.199 873.086 89.5034C887.384 71.6551 901.397 58.3739 914.904 50.1066C928.404 41.8436 941.342 38.6203 953.551 40.773Z" stroke="url(#paint24_radial_260_624)" stroke-width="2"/>
<path d="M953.551 40.773C965.759 42.9256 976.815 50.3799 986.675 62.7618C996.54 75.1502 1005.17 92.4233 1012.5 114.085C1027.16 157.408 1036.57 218.084 1040.48 291.785C1048.3 439.173 1034.09 638.426 995.97 854.598C957.853 1070.77 903.062 1262.87 845.306 1398.69C816.425 1466.61 786.824 1520.41 758.229 1556.1C743.932 1573.95 729.919 1587.23 716.412 1595.5C702.912 1603.76 689.973 1606.99 677.765 1604.83C665.556 1602.68 654.5 1595.23 644.641 1582.85C634.776 1570.46 626.15 1553.18 618.819 1531.52C604.158 1488.2 594.741 1427.52 590.832 1353.82C583.014 1206.43 597.229 1007.18 635.346 791.01C673.462 574.838 728.254 382.739 786.01 246.915C814.891 178.995 844.491 125.199 873.086 89.5034C887.384 71.6551 901.397 58.3739 914.904 50.1066C928.404 41.8436 941.342 38.6203 953.551 40.773Z" stroke="url(#paint25_radial_260_624)" stroke-opacity="0.2" stroke-width="2"/>
</g>
<g opacity="0.482759">
<path d="M1021.18 49.4203C1033.15 52.6288 1043.51 61.0182 1052.26 74.2124C1061.01 87.4134 1068.09 105.373 1073.51 127.591C1084.34 172.027 1088.43 233.292 1085.9 307.054C1080.84 454.562 1049.32 651.818 992.505 863.845C935.692 1075.87 864.367 1262.46 794.993 1392.74C760.302 1457.88 726.125 1508.89 694.529 1541.96C678.73 1558.5 663.612 1570.51 649.436 1577.56C635.267 1584.62 622.097 1586.7 610.123 1583.49C598.148 1580.29 587.784 1571.9 579.041 1558.7C570.294 1545.5 563.206 1527.54 557.791 1505.32C546.961 1460.89 542.869 1399.62 545.398 1325.86C550.455 1178.35 581.982 981.096 638.795 769.069C695.607 557.042 766.932 370.45 836.306 240.176C870.997 175.031 905.174 124.02 936.771 90.9523C952.569 74.4181 967.687 62.4087 981.863 55.3501C996.032 48.2952 1009.2 46.2118 1021.18 49.4203Z" stroke="url(#paint26_radial_260_624)" stroke-width="2"/>
<path d="M1021.18 49.4203C1033.15 52.6288 1043.51 61.0182 1052.26 74.2124C1061.01 87.4134 1068.09 105.373 1073.51 127.591C1084.34 172.027 1088.43 233.292 1085.9 307.054C1080.84 454.562 1049.32 651.818 992.505 863.845C935.692 1075.87 864.367 1262.46 794.993 1392.74C760.302 1457.88 726.125 1508.89 694.529 1541.96C678.73 1558.5 663.612 1570.51 649.436 1577.56C635.267 1584.62 622.097 1586.7 610.123 1583.49C598.148 1580.29 587.784 1571.9 579.041 1558.7C570.294 1545.5 563.206 1527.54 557.791 1505.32C546.961 1460.89 542.869 1399.62 545.398 1325.86C550.455 1178.35 581.982 981.096 638.795 769.069C695.607 557.042 766.932 370.45 836.306 240.176C870.997 175.031 905.174 124.02 936.771 90.9523C952.569 74.4181 967.687 62.4087 981.863 55.3501C996.032 48.2952 1009.2 46.2118 1021.18 49.4203Z" stroke="url(#paint27_radial_260_624)" stroke-opacity="0.2" stroke-width="2"/>
</g>
<g opacity="0.517241">
<path d="M1087.25 63.9035C1098.9 68.1434 1108.49 77.4043 1116.05 91.3102C1123.61 105.223 1129.11 123.732 1132.57 146.338C1139.48 191.548 1138.22 252.937 1129.27 326.198C1111.38 472.704 1062.78 666.461 987.704 872.73C912.628 1079 825.312 1258.66 744.847 1382.4C704.611 1444.27 666.118 1492.11 631.76 1522.3C614.58 1537.39 598.473 1548.04 583.736 1553.83C569.006 1559.63 555.704 1560.55 544.055 1556.31C532.406 1552.07 522.813 1542.81 515.253 1528.91C507.689 1514.99 502.194 1496.49 498.736 1473.88C491.82 1428.67 493.083 1367.28 502.031 1294.02C519.925 1147.51 568.524 953.755 643.6 747.487C718.675 541.218 805.992 361.552 886.456 237.82C926.693 175.948 965.185 128.109 999.544 97.921C1016.72 82.8267 1032.83 72.1806 1047.57 66.3844C1062.3 60.5911 1075.6 59.6636 1087.25 63.9035Z" stroke="url(#paint28_radial_260_624)" stroke-width="2"/>
<path d="M1087.25 63.9035C1098.9 68.1434 1108.49 77.4043 1116.05 91.3102C1123.61 105.223 1129.11 123.732 1132.57 146.338C1139.48 191.548 1138.22 252.937 1129.27 326.198C1111.38 472.704 1062.78 666.461 987.704 872.73C912.628 1079 825.312 1258.66 744.847 1382.4C704.611 1444.27 666.118 1492.11 631.76 1522.3C614.58 1537.39 598.473 1548.04 583.736 1553.83C569.006 1559.63 555.704 1560.55 544.055 1556.31C532.406 1552.07 522.813 1542.81 515.253 1528.91C507.689 1514.99 502.194 1496.49 498.736 1473.88C491.82 1428.67 493.083 1367.28 502.031 1294.02C519.925 1147.51 568.524 953.755 643.6 747.487C718.675 541.218 805.992 361.552 886.456 237.82C926.693 175.948 965.185 128.109 999.544 97.921C1016.72 82.8267 1032.83 72.1806 1047.57 66.3844C1062.3 60.5911 1075.6 59.6636 1087.25 63.9035Z" stroke="url(#paint29_radial_260_624)" stroke-opacity="0.2" stroke-width="2"/>
</g>
<g opacity="0.551724">
<path d="M1151.26 84.0671C1162.49 89.3062 1171.24 99.3679 1177.56 113.88C1183.88 128.399 1187.74 147.316 1189.22 170.137C1192.17 215.779 1185.56 276.824 1170.26 349.026C1139.67 493.415 1074.37 682.2 981.598 881.14C888.83 1080.08 786.187 1251.45 695.245 1367.7C649.769 1425.83 607.254 1470.13 570.395 1497.21C551.965 1510.75 534.992 1519.95 519.805 1524.44C504.627 1528.93 491.295 1528.69 480.059 1523.46C468.824 1518.22 460.074 1508.15 453.755 1493.64C447.433 1479.12 443.572 1460.21 442.097 1437.39C439.148 1391.74 445.757 1330.7 461.056 1258.5C491.651 1114.11 556.951 925.323 649.719 726.383C742.486 527.442 845.129 356.07 936.071 239.822C981.547 181.692 1024.06 137.39 1060.92 110.311C1079.35 96.7717 1096.32 87.5699 1111.51 83.0802C1126.69 78.5928 1140.02 78.828 1151.26 84.0671Z" stroke="url(#paint30_radial_260_624)" stroke-width="2"/>
<path d="M1151.26 84.0671C1162.49 89.3062 1171.24 99.3679 1177.56 113.88C1183.88 128.399 1187.74 147.316 1189.22 170.137C1192.17 215.779 1185.56 276.824 1170.26 349.026C1139.67 493.415 1074.37 682.2 981.598 881.14C888.83 1080.08 786.187 1251.45 695.245 1367.7C649.769 1425.83 607.254 1470.13 570.395 1497.21C551.965 1510.75 534.992 1519.95 519.805 1524.44C504.627 1528.93 491.295 1528.69 480.059 1523.46C468.824 1518.22 460.074 1508.15 453.755 1493.64C447.433 1479.12 443.572 1460.21 442.097 1437.39C439.148 1391.74 445.757 1330.7 461.056 1258.5C491.651 1114.11 556.951 925.323 649.719 726.383C742.486 527.442 845.129 356.07 936.071 239.822C981.547 181.692 1024.06 137.39 1060.92 110.311C1079.35 96.7717 1096.32 87.5699 1111.51 83.0802C1126.69 78.5928 1140.02 78.828 1151.26 84.0671Z" stroke="url(#paint31_radial_260_624)" stroke-opacity="0.2" stroke-width="2"/>
</g>
<g opacity="0.586207">
<path d="M1212.71 109.708C1223.45 115.906 1231.29 126.692 1236.32 141.7C1241.35 156.715 1243.55 175.897 1243.03 198.759C1241.99 244.484 1230.08 304.721 1208.55 375.315C1165.49 516.488 1083.98 698.863 974.227 888.961C864.473 1079.06 747.285 1240.83 646.557 1348.71C596.188 1402.66 549.973 1443.09 510.894 1466.85C491.355 1478.73 473.644 1486.42 458.124 1489.57C442.612 1492.72 429.351 1491.32 418.615 1485.12C407.88 1478.92 400.04 1468.14 395.01 1453.13C389.977 1438.11 387.779 1418.93 388.299 1396.07C389.339 1350.34 401.243 1290.11 422.777 1219.51C465.84 1078.34 547.346 895.966 657.099 705.867C766.852 515.769 884.041 353.995 984.768 246.115C1035.14 192.17 1081.35 151.742 1120.43 127.979C1139.97 116.097 1157.68 108.41 1173.2 105.261C1188.71 102.113 1201.97 103.51 1212.71 109.708Z" stroke="url(#paint32_radial_260_624)" stroke-width="2"/>
<path d="M1212.71 109.708C1223.45 115.906 1231.29 126.692 1236.32 141.7C1241.35 156.715 1243.55 175.897 1243.03 198.759C1241.99 244.484 1230.08 304.721 1208.55 375.315C1165.49 516.488 1083.98 698.863 974.227 888.961C864.473 1079.06 747.285 1240.83 646.557 1348.71C596.188 1402.66 549.973 1443.09 510.894 1466.85C491.355 1478.73 473.644 1486.42 458.124 1489.57C442.612 1492.72 429.351 1491.32 418.615 1485.12C407.88 1478.92 400.04 1468.14 395.01 1453.13C389.977 1438.11 387.779 1418.93 388.299 1396.07C389.339 1350.34 401.243 1290.11 422.777 1219.51C465.84 1078.34 547.346 895.966 657.099 705.867C766.852 515.769 884.041 353.995 984.768 246.115C1035.14 192.17 1081.35 151.742 1120.43 127.979C1139.97 116.097 1157.68 108.41 1173.2 105.261C1188.71 102.113 1201.97 103.51 1212.71 109.708Z" stroke="url(#paint33_radial_260_624)" stroke-opacity="0.2" stroke-width="2"/>
</g>
<g opacity="0.62069">
<path d="M1271.12 140.581C1281.27 147.692 1288.14 159.12 1291.85 174.509C1295.55 189.906 1296.07 209.206 1293.56 231.936C1288.54 277.396 1271.43 336.367 1243.82 404.815C1188.62 541.697 1091.53 716.275 965.626 896.084C839.722 1075.89 708.88 1226.84 599.134 1325.53C544.254 1374.88 494.692 1411.12 453.691 1431.39C433.19 1441.52 414.876 1447.64 399.141 1449.42C383.414 1451.21 370.325 1448.66 360.17 1441.55C350.015 1434.44 343.146 1423.01 339.443 1407.62C335.738 1392.23 335.22 1372.93 337.731 1350.2C342.752 1304.74 359.861 1245.76 387.465 1177.32C442.668 1040.43 539.759 865.857 665.663 686.047C791.566 506.238 922.409 355.294 1032.16 256.603C1087.03 207.253 1136.6 171.007 1177.6 150.74C1198.1 140.607 1216.41 134.492 1232.15 132.708C1247.87 130.924 1260.96 133.471 1271.12 140.581Z" stroke="url(#paint34_radial_260_624)" stroke-width="2"/>
<path d="M1271.12 140.581C1281.27 147.692 1288.14 159.12 1291.85 174.509C1295.55 189.906 1296.07 209.206 1293.56 231.936C1288.54 277.396 1271.43 336.367 1243.82 404.815C1188.62 541.697 1091.53 716.275 965.626 896.084C839.722 1075.89 708.88 1226.84 599.134 1325.53C544.254 1374.88 494.692 1411.12 453.691 1431.39C433.19 1441.52 414.876 1447.64 399.141 1449.42C383.414 1451.21 370.325 1448.66 360.17 1441.55C350.015 1434.44 343.146 1423.01 339.443 1407.62C335.738 1392.23 335.22 1372.93 337.731 1350.2C342.752 1304.74 359.861 1245.76 387.465 1177.32C442.668 1040.43 539.759 865.857 665.663 686.047C791.566 506.238 922.409 355.294 1032.16 256.603C1087.03 207.253 1136.6 171.007 1177.6 150.74C1198.1 140.607 1216.41 134.492 1232.15 132.708C1247.87 130.924 1260.96 133.471 1271.12 140.581Z" stroke="url(#paint35_radial_260_624)" stroke-opacity="0.2" stroke-width="2"/>
</g>
<g opacity="0.655172">
<path d="M1326.08 176.404C1335.58 184.373 1341.43 196.356 1343.77 212.009C1346.12 227.67 1344.96 246.942 1340.47 269.367C1331.51 314.217 1309.33 371.472 1275.86 437.254C1208.94 568.804 1097 734.255 955.906 902.407C814.81 1070.56 671.31 1209.53 553.38 1298.27C494.408 1342.65 441.875 1374.44 399.263 1391.06C377.957 1399.37 359.181 1403.86 343.35 1404.27C327.527 1404.67 314.71 1401 305.214 1393.03C295.717 1385.06 289.87 1373.08 287.522 1357.42C285.173 1341.76 286.339 1322.49 290.822 1300.07C299.786 1255.22 321.969 1197.96 355.434 1132.18C422.357 1000.63 534.294 835.178 675.39 667.026C816.486 498.874 959.986 359.908 1077.92 271.158C1136.89 226.778 1189.42 194.99 1232.03 178.374C1253.34 170.066 1272.12 165.57 1287.95 165.164C1303.77 164.758 1316.59 168.436 1326.08 176.404Z" stroke="url(#paint36_radial_260_624)" stroke-width="2"/>
<path d="M1326.08 176.404C1335.58 184.373 1341.43 196.356 1343.77 212.009C1346.12 227.67 1344.96 246.942 1340.47 269.367C1331.51 314.217 1309.33 371.472 1275.86 437.254C1208.94 568.804 1097 734.255 955.906 902.407C814.81 1070.56 671.31 1209.53 553.38 1298.27C494.408 1342.65 441.875 1374.44 399.263 1391.06C377.957 1399.37 359.181 1403.86 343.35 1404.27C327.527 1404.67 314.71 1401 305.214 1393.03C295.717 1385.06 289.87 1373.08 287.522 1357.42C285.173 1341.76 286.339 1322.49 290.822 1300.07C299.786 1255.22 321.969 1197.96 355.434 1132.18C422.357 1000.63 534.294 835.178 675.39 667.026C816.486 498.874 959.986 359.908 1077.92 271.158C1136.89 226.778 1189.42 194.99 1232.03 178.374C1253.34 170.066 1272.12 165.57 1287.95 165.164C1303.77 164.758 1316.59 168.436 1326.08 176.404Z" stroke="url(#paint37_radial_260_624)" stroke-opacity="0.2" stroke-width="2"/>
</g>
<g opacity="0.689655">
<path d="M1377.16 216.859C1385.93 225.625 1390.71 238.073 1391.68 253.871C1392.66 269.677 1389.82 288.774 1383.4 310.723C1370.56 354.62 1343.47 409.724 1304.4 472.339C1226.27 597.556 1100.34 752.621 945.12 907.836C789.906 1063.05 634.84 1188.98 509.624 1267.12C447.008 1306.19 391.905 1333.28 348.007 1346.11C326.058 1352.53 306.961 1355.38 291.155 1354.4C275.357 1353.43 262.91 1348.64 254.144 1339.88C245.378 1331.11 240.597 1318.67 239.622 1302.87C238.647 1287.06 241.489 1267.96 247.909 1246.02C260.748 1202.12 287.837 1147.01 326.908 1084.4C405.041 959.182 530.972 804.117 686.187 648.902C841.401 493.688 996.467 367.757 1121.68 289.623C1184.3 250.552 1239.4 223.463 1283.3 210.624C1305.25 204.205 1324.35 201.363 1340.15 202.338C1355.95 203.313 1368.4 208.094 1377.16 216.859Z" stroke="url(#paint38_radial_260_624)" stroke-width="2"/>
<path d="M1377.16 216.859C1385.93 225.625 1390.71 238.073 1391.68 253.871C1392.66 269.677 1389.82 288.774 1383.4 310.723C1370.56 354.62 1343.47 409.724 1304.4 472.339C1226.27 597.556 1100.34 752.621 945.12 907.836C789.906 1063.05 634.84 1188.98 509.624 1267.12C447.008 1306.19 391.905 1333.28 348.007 1346.11C326.058 1352.53 306.961 1355.38 291.155 1354.4C275.357 1353.43 262.91 1348.64 254.144 1339.88C245.378 1331.11 240.597 1318.67 239.622 1302.87C238.647 1287.06 241.489 1267.96 247.909 1246.02C260.748 1202.12 287.837 1147.01 326.908 1084.4C405.041 959.182 530.972 804.117 686.187 648.902C841.401 493.688 996.467 367.757 1121.68 289.623C1184.3 250.552 1239.4 223.463 1283.3 210.624C1305.25 204.205 1324.35 201.363 1340.15 202.338C1355.95 203.313 1368.4 208.094 1377.16 216.859Z" stroke="url(#paint39_radial_260_624)" stroke-opacity="0.2" stroke-width="2"/>
</g>
<g opacity="0.724138">
<path d="M1423.95 261.587C1431.92 271.083 1435.6 283.9 1435.19 299.723C1434.78 315.554 1430.29 334.331 1421.98 355.637C1405.37 398.248 1373.58 450.781 1329.2 509.753C1240.45 627.683 1101.48 771.183 933.329 912.279C765.177 1053.38 599.726 1165.31 468.176 1232.24C402.394 1265.7 345.139 1287.88 300.29 1296.85C277.865 1301.33 258.593 1302.5 242.932 1300.15C227.279 1297.8 215.295 1291.95 207.327 1282.46C199.358 1272.96 195.68 1260.14 196.086 1244.32C196.493 1228.49 200.988 1209.71 209.296 1188.41C225.912 1145.79 257.701 1093.26 302.08 1034.29C390.83 916.359 529.796 772.859 697.948 631.763C866.1 490.667 1031.55 378.73 1163.1 311.807C1228.88 278.342 1286.14 256.159 1330.99 247.195C1353.41 242.713 1372.68 241.546 1388.35 243.895C1404 246.243 1415.98 252.09 1423.95 261.587Z" stroke="url(#paint40_radial_260_624)" stroke-width="2"/>
<path d="M1423.95 261.587C1431.92 271.083 1435.6 283.9 1435.19 299.723C1434.78 315.554 1430.29 334.331 1421.98 355.637C1405.37 398.248 1373.58 450.781 1329.2 509.753C1240.45 627.683 1101.48 771.183 933.329 912.279C765.177 1053.38 599.726 1165.31 468.176 1232.24C402.394 1265.7 345.139 1287.88 300.29 1296.85C277.865 1301.33 258.593 1302.5 242.932 1300.15C227.279 1297.8 215.295 1291.95 207.327 1282.46C199.358 1272.96 195.68 1260.14 196.086 1244.32C196.493 1228.49 200.988 1209.71 209.296 1188.41C225.912 1145.79 257.701 1093.26 302.08 1034.29C390.83 916.359 529.796 772.859 697.948 631.763C866.1 490.667 1031.55 378.73 1163.1 311.807C1228.88 278.342 1286.14 256.159 1330.99 247.195C1353.41 242.713 1372.68 241.546 1388.35 243.895C1404 246.243 1415.98 252.09 1423.95 261.587Z" stroke="url(#paint41_radial_260_624)" stroke-opacity="0.2" stroke-width="2"/>
</g>
<g opacity="0.758621">
<path d="M1466.13 310.197C1473.24 320.352 1475.78 333.441 1474 349.168C1472.22 364.903 1466.1 383.216 1455.97 403.717C1435.7 444.718 1399.45 494.281 1350.1 549.16C1251.41 658.907 1100.47 789.749 920.66 915.653C740.85 1041.56 566.273 1138.65 429.391 1193.85C360.942 1221.45 301.972 1238.56 256.512 1243.58C233.781 1246.1 214.481 1245.58 199.085 1241.87C183.696 1238.17 172.268 1231.3 165.157 1221.15C158.047 1210.99 155.5 1197.9 157.283 1182.17C159.068 1166.44 165.182 1148.13 175.316 1127.62C195.583 1086.62 231.829 1037.06 281.179 982.182C379.869 872.435 530.814 741.593 710.623 615.69C890.432 489.786 1065.01 392.695 1201.89 337.492C1270.34 309.887 1329.31 292.779 1374.77 287.758C1397.5 285.247 1416.8 285.764 1432.2 289.469C1447.59 293.173 1459.02 300.042 1466.13 310.197Z" stroke="url(#paint42_radial_260_624)" stroke-width="2"/>
<path d="M1466.13 310.197C1473.24 320.352 1475.78 333.441 1474 349.168C1472.22 364.903 1466.1 383.216 1455.97 403.717C1435.7 444.718 1399.45 494.281 1350.1 549.16C1251.41 658.907 1100.47 789.749 920.66 915.653C740.85 1041.56 566.273 1138.65 429.391 1193.85C360.942 1221.45 301.972 1238.56 256.512 1243.58C233.781 1246.1 214.481 1245.58 199.085 1241.87C183.696 1238.17 172.268 1231.3 165.157 1221.15C158.047 1210.99 155.5 1197.9 157.283 1182.17C159.068 1166.44 165.182 1148.13 175.316 1127.62C195.583 1086.62 231.829 1037.06 281.179 982.182C379.869 872.435 530.814 741.593 710.623 615.69C890.432 489.786 1065.01 392.695 1201.89 337.492C1270.34 309.887 1329.31 292.779 1374.77 287.758C1397.5 285.247 1416.8 285.764 1432.2 289.469C1447.59 293.173 1459.02 300.042 1466.13 310.197Z" stroke="url(#paint43_radial_260_624)" stroke-opacity="0.2" stroke-width="2"/>
</g>
<g opacity="0.793103">
<path d="M1503.36 362.277C1509.56 373.012 1510.96 386.273 1507.81 401.785C1504.66 417.305 1496.97 435.016 1485.09 454.556C1461.33 493.634 1420.9 539.849 1366.95 590.219C1259.07 690.946 1097.3 808.135 907.201 917.888C717.103 1027.64 534.728 1109.15 393.555 1152.21C322.961 1173.74 262.724 1185.65 217 1186.69C194.137 1187.21 174.955 1185.01 159.94 1179.98C144.932 1174.95 134.146 1167.11 127.948 1156.37C121.75 1145.64 120.353 1132.37 123.501 1116.86C126.65 1101.34 134.337 1083.63 146.219 1064.09C169.982 1025.01 210.41 978.799 264.356 928.429C372.235 827.702 534.009 710.513 724.107 600.76C914.206 491.007 1096.58 409.501 1237.75 366.438C1308.35 344.904 1368.58 333 1414.31 331.96C1437.17 331.44 1456.35 333.638 1471.37 338.671C1486.38 343.701 1497.16 351.541 1503.36 362.277Z" stroke="url(#paint44_radial_260_624)" stroke-width="2"/>
<path d="M1503.36 362.277C1509.56 373.012 1510.96 386.273 1507.81 401.785C1504.66 417.305 1496.97 435.016 1485.09 454.556C1461.33 493.634 1420.9 539.849 1366.95 590.219C1259.07 690.946 1097.3 808.135 907.201 917.888C717.103 1027.64 534.728 1109.15 393.555 1152.21C322.961 1173.74 262.724 1185.65 217 1186.69C194.137 1187.21 174.955 1185.01 159.94 1179.98C144.932 1174.95 134.146 1167.11 127.948 1156.37C121.75 1145.64 120.353 1132.37 123.501 1116.86C126.65 1101.34 134.337 1083.63 146.219 1064.09C169.982 1025.01 210.41 978.799 264.356 928.429C372.235 827.702 534.009 710.513 724.107 600.76C914.206 491.007 1096.58 409.501 1237.75 366.438C1308.35 344.904 1368.58 333 1414.31 331.96C1437.17 331.44 1456.35 333.638 1471.37 338.671C1486.38 343.701 1497.16 351.541 1503.36 362.277Z" stroke="url(#paint45_radial_260_624)" stroke-opacity="0.2" stroke-width="2"/>
</g>
<g opacity="0.827586">
<path d="M1535.36 417.377C1540.6 428.613 1540.83 441.945 1536.34 457.123C1531.86 472.31 1522.65 489.283 1509.11 507.713C1482.04 544.572 1437.73 587.087 1379.6 632.563C1263.35 723.505 1091.98 826.148 893.042 918.916C694.102 1011.68 505.317 1076.98 360.929 1107.58C288.727 1122.88 227.681 1129.49 182.04 1126.54C159.219 1125.06 140.302 1121.2 125.782 1114.88C111.27 1108.56 101.209 1099.81 95.9694 1088.58C90.7303 1077.34 90.495 1064.01 94.9824 1048.83C99.4722 1033.64 108.674 1016.67 122.214 998.24C149.292 961.381 193.594 918.865 251.724 873.389C367.973 782.448 539.344 679.805 738.285 587.037C937.225 494.27 1126.01 428.969 1270.4 398.374C1342.6 383.075 1403.65 376.466 1449.29 379.415C1472.11 380.89 1491.03 384.751 1505.55 391.073C1520.06 397.392 1530.12 406.142 1535.36 417.377Z" stroke="url(#paint46_radial_260_624)" stroke-width="2"/>
<path d="M1535.36 417.377C1540.6 428.613 1540.83 441.945 1536.34 457.123C1531.86 472.31 1522.65 489.283 1509.11 507.713C1482.04 544.572 1437.73 587.087 1379.6 632.563C1263.35 723.505 1091.98 826.148 893.042 918.916C694.102 1011.68 505.317 1076.98 360.929 1107.58C288.727 1122.88 227.681 1129.49 182.04 1126.54C159.219 1125.06 140.302 1121.2 125.782 1114.88C111.27 1108.56 101.209 1099.81 95.9694 1088.58C90.7303 1077.34 90.495 1064.01 94.9824 1048.83C99.4722 1033.64 108.674 1016.67 122.214 998.24C149.292 961.381 193.594 918.865 251.724 873.389C367.973 782.448 539.344 679.805 738.285 587.037C937.225 494.27 1126.01 428.969 1270.4 398.374C1342.6 383.075 1403.65 376.466 1449.29 379.415C1472.11 380.89 1491.03 384.751 1505.55 391.073C1520.06 397.392 1530.12 406.142 1535.36 417.377Z" stroke="url(#paint47_radial_260_624)" stroke-opacity="0.2" stroke-width="2"/>
</g>
<g opacity="0.862069">
<path d="M1561.85 475.033C1566.09 486.682 1565.16 499.984 1559.37 514.714C1553.57 529.451 1542.92 545.558 1527.83 562.737C1497.64 597.096 1449.8 635.588 1387.93 675.825C1264.2 756.289 1084.53 843.606 878.264 918.681C671.996 993.757 478.238 1042.36 331.732 1060.25C258.472 1069.2 197.082 1070.46 151.872 1063.55C129.266 1060.09 110.758 1054.59 96.8443 1047.03C82.9384 1039.47 73.6776 1029.87 69.4377 1018.23C65.1977 1006.58 66.1253 993.275 71.9185 978.545C77.7148 963.808 88.3608 947.701 103.455 930.521C133.643 896.163 181.482 857.67 243.355 817.434C367.086 736.97 546.752 649.653 753.021 574.577C959.29 499.502 1153.05 450.903 1299.55 433.009C1372.81 424.061 1434.2 422.798 1479.41 429.714C1502.02 433.171 1520.53 438.667 1534.44 446.23C1548.35 453.79 1557.61 463.384 1561.85 475.033Z" stroke="url(#paint48_radial_260_624)" stroke-width="2"/>
<path d="M1561.85 475.033C1566.09 486.682 1565.16 499.984 1559.37 514.714C1553.57 529.451 1542.92 545.558 1527.83 562.737C1497.64 597.096 1449.8 635.588 1387.93 675.825C1264.2 756.289 1084.53 843.606 878.264 918.681C671.996 993.757 478.238 1042.36 331.732 1060.25C258.472 1069.2 197.082 1070.46 151.872 1063.55C129.266 1060.09 110.758 1054.59 96.8443 1047.03C82.9384 1039.47 73.6776 1029.87 69.4377 1018.23C65.1977 1006.58 66.1253 993.275 71.9185 978.545C77.7148 963.808 88.3608 947.701 103.455 930.521C133.643 896.163 181.482 857.67 243.355 817.434C367.086 736.97 546.752 649.653 753.021 574.577C959.29 499.502 1153.05 450.903 1299.55 433.009C1372.81 424.061 1434.2 422.798 1479.41 429.714C1502.02 433.171 1520.53 438.667 1534.44 446.23C1548.35 453.79 1557.61 463.384 1561.85 475.033Z" stroke="url(#paint49_radial_260_624)" stroke-opacity="0.2" stroke-width="2"/>
</g>
<g opacity="0.896552">
<path d="M1582.69 534.755C1585.89 546.729 1583.81 559.899 1576.76 574.068C1569.7 588.244 1557.69 603.362 1541.15 619.16C1508.09 650.757 1457.08 684.934 1391.93 719.625C1261.66 788.999 1075.06 860.324 863.038 917.136C651.011 973.949 453.754 1005.48 306.247 1010.53C232.485 1013.06 171.219 1008.97 126.784 998.14C104.565 992.725 86.6061 985.637 73.405 976.89C60.2108 968.147 51.8214 957.783 48.6129 945.808C45.4044 933.834 47.4878 920.664 54.5427 906.495C61.6014 892.319 73.6107 877.201 90.1449 861.402C123.213 829.806 174.224 795.629 239.368 760.938C369.642 691.564 556.234 620.239 768.261 563.426C980.288 506.614 1177.54 475.087 1325.05 470.03C1398.81 467.501 1460.08 471.593 1504.52 482.423C1526.73 487.838 1544.69 494.925 1557.89 503.673C1571.09 512.416 1579.48 522.78 1582.69 534.755Z" stroke="url(#paint50_radial_260_624)" stroke-width="2"/>
<path d="M1582.69 534.755C1585.89 546.729 1583.81 559.899 1576.76 574.068C1569.7 588.244 1557.69 603.362 1541.15 619.16C1508.09 650.757 1457.08 684.934 1391.93 719.625C1261.66 788.999 1075.06 860.324 863.038 917.136C651.011 973.949 453.754 1005.48 306.247 1010.53C232.485 1013.06 171.219 1008.97 126.784 998.14C104.565 992.725 86.6061 985.637 73.405 976.89C60.2108 968.147 51.8214 957.783 48.6129 945.808C45.4044 933.834 47.4878 920.664 54.5427 906.495C61.6014 892.319 73.6107 877.201 90.1449 861.402C123.213 829.806 174.224 795.629 239.368 760.938C369.642 691.564 556.234 620.239 768.261 563.426C980.288 506.614 1177.54 475.087 1325.05 470.03C1398.81 467.501 1460.08 471.593 1504.52 482.423C1526.73 487.838 1544.69 494.925 1557.89 503.673C1571.09 512.416 1579.48 522.78 1582.69 534.755Z" stroke="url(#paint51_radial_260_624)" stroke-opacity="0.2" stroke-width="2"/>
</g>
<g opacity="0.931035">
<path d="M1597.68 596.038C1599.84 608.247 1596.61 621.185 1588.35 634.685C1580.08 648.192 1566.8 662.206 1548.95 676.503C1513.26 705.098 1459.46 734.698 1391.54 763.58C1255.72 821.335 1063.62 876.127 847.446 914.244C631.274 952.361 432.021 966.575 284.634 958.757C210.932 954.848 150.256 945.431 106.934 930.77C85.2716 923.439 67.9986 914.813 55.6101 904.949C43.2282 895.089 35.774 884.033 33.6213 871.825C31.4686 859.616 34.6919 846.677 42.9549 833.178C51.2223 819.67 64.5035 805.657 82.3517 791.36C118.047 762.765 171.843 733.164 239.763 704.283C375.588 646.527 567.686 591.736 783.858 553.619C1000.03 515.502 1199.28 501.288 1346.67 509.106C1420.37 513.015 1481.05 522.431 1524.37 537.093C1546.03 544.424 1563.31 553.049 1575.69 562.914C1588.08 572.774 1595.53 583.83 1597.68 596.038Z" stroke="url(#paint52_radial_260_624)" stroke-width="2"/>
<path d="M1597.68 596.038C1599.84 608.247 1596.61 621.185 1588.35 634.685C1580.08 648.192 1566.8 662.206 1548.95 676.503C1513.26 705.098 1459.46 734.698 1391.54 763.58C1255.72 821.335 1063.62 876.127 847.446 914.244C631.274 952.361 432.021 966.575 284.634 958.757C210.932 954.848 150.256 945.431 106.934 930.77C85.2716 923.439 67.9986 914.813 55.6101 904.949C43.2282 895.089 35.774 884.033 33.6213 871.825C31.4686 859.616 34.6919 846.677 42.9549 833.178C51.2223 819.67 64.5035 805.657 82.3517 791.36C118.047 762.765 171.843 733.164 239.763 704.283C375.588 646.527 567.686 591.736 783.858 553.619C1000.03 515.502 1199.28 501.288 1346.67 509.106C1420.37 513.015 1481.05 522.431 1524.37 537.093C1546.03 544.424 1563.31 553.049 1575.69 562.914C1588.08 572.774 1595.53 583.83 1597.68 596.038Z" stroke="url(#paint53_radial_260_624)" stroke-opacity="0.2" stroke-width="2"/>
</g>
<g opacity="0.965517">
<path d="M1606.73 658.375C1607.81 670.724 1603.47 683.333 1594.06 696.061C1584.65 708.796 1570.2 721.598 1551.17 734.286C1513.12 759.661 1456.95 784.46 1386.77 807.312C1246.43 853.01 1050.28 890.85 831.612 909.982C612.94 929.113 413.207 925.907 267.062 905.273C193.981 894.955 134.357 880.287 92.4769 861.905C71.5363 852.714 55.0808 842.616 43.5992 831.709C32.1238 820.808 25.6615 809.144 24.5811 796.794C23.5006 784.445 27.8393 771.836 37.2475 759.108C46.6606 746.373 61.1126 733.57 80.139 720.883C118.191 695.508 174.362 670.709 244.541 647.857C384.882 602.159 581.025 564.319 799.696 545.187C1018.37 526.056 1218.1 529.262 1364.25 549.896C1437.33 560.214 1496.95 574.882 1538.83 593.264C1559.77 602.455 1576.23 612.553 1587.71 623.46C1599.18 634.361 1605.65 646.025 1606.73 658.375Z" stroke="url(#paint54_radial_260_624)" stroke-width="2"/>
<path d="M1606.73 658.375C1607.81 670.724 1603.47 683.333 1594.06 696.061C1584.65 708.796 1570.2 721.598 1551.17 734.286C1513.12 759.661 1456.95 784.46 1386.77 807.312C1246.43 853.01 1050.28 890.85 831.612 909.982C612.94 929.113 413.207 925.907 267.062 905.273C193.981 894.955 134.357 880.287 92.4769 861.905C71.5363 852.714 55.0808 842.616 43.5992 831.709C32.1238 820.808 25.6615 809.144 24.5811 796.794C23.5006 784.445 27.8393 771.836 37.2475 759.108C46.6606 746.373 61.1126 733.57 80.139 720.883C118.191 695.508 174.362 670.709 244.541 647.857C384.882 602.159 581.025 564.319 799.696 545.187C1018.37 526.056 1218.1 529.262 1364.25 549.896C1437.33 560.214 1496.95 574.882 1538.83 593.264C1559.77 602.455 1576.23 612.553 1587.71 623.46C1599.18 634.361 1605.65 646.025 1606.73 658.375Z" stroke="url(#paint55_radial_260_624)" stroke-opacity="0.2" stroke-width="2"/>
</g>
<path d="M1609.75 721.234C1609.75 733.631 1604.33 745.814 1593.85 757.674C1583.36 769.54 1567.85 781.034 1547.79 792.015C1507.67 813.976 1449.55 833.786 1377.65 850.434C1233.86 883.727 1035.17 904.328 815.66 904.328C596.154 904.328 397.459 883.727 253.669 850.434C181.766 833.786 123.647 813.976 83.5281 792.015C63.4683 781.034 47.9555 769.54 37.4682 757.674C26.9865 745.814 21.5654 733.631 21.5654 721.234C21.5654 708.838 26.9865 696.655 37.4682 684.795C47.9555 672.929 63.4683 661.435 83.5281 650.454C123.647 628.492 181.766 608.683 253.669 592.035C397.459 558.742 596.154 538.141 815.66 538.141C1035.17 538.141 1233.86 558.742 1377.65 592.035C1449.55 608.683 1507.67 628.492 1547.79 650.454C1567.85 661.435 1583.36 672.929 1593.85 684.795C1604.33 696.655 1609.75 708.838 1609.75 721.234Z" stroke="url(#paint56_radial_260_624)" stroke-width="2"/>
<path d="M1609.75 721.234C1609.75 733.631 1604.33 745.814 1593.85 757.674C1583.36 769.54 1567.85 781.034 1547.79 792.015C1507.67 813.976 1449.55 833.786 1377.65 850.434C1233.86 883.727 1035.17 904.328 815.66 904.328C596.154 904.328 397.459 883.727 253.669 850.434C181.766 833.786 123.647 813.976 83.5281 792.015C63.4683 781.034 47.9555 769.54 37.4682 757.674C26.9865 745.814 21.5654 733.631 21.5654 721.234C21.5654 708.838 26.9865 696.655 37.4682 684.795C47.9555 672.929 63.4683 661.435 83.5281 650.454C123.647 628.492 181.766 608.683 253.669 592.035C397.459 558.742 596.154 538.141 815.66 538.141C1035.17 538.141 1233.86 558.742 1377.65 592.035C1449.55 608.683 1507.67 628.492 1547.79 650.454C1567.85 661.435 1583.36 672.929 1593.85 684.795C1604.33 696.655 1609.75 708.838 1609.75 721.234Z" stroke="url(#paint57_radial_260_624)" stroke-opacity="0.2" stroke-width="2"/>
</g>
<defs>
<radialGradient id="paint0_radial_260_624" cx="0" cy="0" r="1" gradientUnits="userSpaceOnUse" gradientTransform="translate(815.648 898.98) rotate(-50) scale(184.094 795.095)">
<stop offset="0.930208" stop-color="white"/>
<stop offset="1" stop-color="white" stop-opacity="0"/>
</radialGradient>
<radialGradient id="paint1_radial_260_624" cx="0" cy="0" r="1" gradientUnits="userSpaceOnUse" gradientTransform="translate(815.648 898.98) rotate(-50) scale(184.094 795.095)">
<stop offset="0.909375" stop-color="white"/>
<stop offset="1" stop-color="white" stop-opacity="0"/>
</radialGradient>
<radialGradient id="paint2_radial_260_624" cx="0" cy="0" r="1" gradientUnits="userSpaceOnUse" gradientTransform="translate(815.643 892.634) rotate(-45) scale(184.094 795.095)">
<stop offset="0.930208" stop-color="white"/>
<stop offset="1" stop-color="white" stop-opacity="0"/>
</radialGradient>
<radialGradient id="paint3_radial_260_624" cx="0" cy="0" r="1" gradientUnits="userSpaceOnUse" gradientTransform="translate(815.643 892.634) rotate(-45) scale(184.094 795.095)">
<stop offset="0.909375" stop-color="white"/>
<stop offset="1" stop-color="white" stop-opacity="0"/>
</radialGradient>
<radialGradient id="paint4_radial_260_624" cx="0" cy="0" r="1" gradientUnits="userSpaceOnUse" gradientTransform="translate(815.653 886.284) rotate(-40) scale(184.094 795.095)">
<stop offset="0.930208" stop-color="white"/>
<stop offset="1" stop-color="white" stop-opacity="0"/>
</radialGradient>
<radialGradient id="paint5_radial_260_624" cx="0" cy="0" r="1" gradientUnits="userSpaceOnUse" gradientTransform="translate(815.653 886.284) rotate(-40) scale(184.094 795.095)">
<stop offset="0.909375" stop-color="white"/>
<stop offset="1" stop-color="white" stop-opacity="0"/>
</radialGradient>
<radialGradient id="paint6_radial_260_624" cx="0" cy="0" r="1" gradientUnits="userSpaceOnUse" gradientTransform="translate(815.657 879.936) rotate(-35) scale(184.094 795.095)">
<stop offset="0.930208" stop-color="white"/>
<stop offset="1" stop-color="white" stop-opacity="0"/>
</radialGradient>
<radialGradient id="paint7_radial_260_624" cx="0" cy="0" r="1" gradientUnits="userSpaceOnUse" gradientTransform="translate(815.657 879.936) rotate(-35) scale(184.094 795.095)">
<stop offset="0.909375" stop-color="white"/>
<stop offset="1" stop-color="white" stop-opacity="0"/>
</radialGradient>
<radialGradient id="paint8_radial_260_624" cx="0" cy="0" r="1" gradientUnits="userSpaceOnUse" gradientTransform="translate(815.665 873.59) rotate(-30) scale(184.094 795.095)">
<stop offset="0.930208" stop-color="white"/>
<stop offset="1" stop-color="white" stop-opacity="0"/>
</radialGradient>
<radialGradient id="paint9_radial_260_624" cx="0" cy="0" r="1" gradientUnits="userSpaceOnUse" gradientTransform="translate(815.665 873.59) rotate(-30) scale(184.094 795.095)">
<stop offset="0.909375" stop-color="white"/>
<stop offset="1" stop-color="white" stop-opacity="0"/>
</radialGradient>
<radialGradient id="paint10_radial_260_624" cx="0" cy="0" r="1" gradientUnits="userSpaceOnUse" gradientTransform="translate(815.657 867.243) rotate(-25) scale(184.094 795.095)">
<stop offset="0.930208" stop-color="white"/>
<stop offset="1" stop-color="white" stop-opacity="0"/>
</radialGradient>
<radialGradient id="paint11_radial_260_624" cx="0" cy="0" r="1" gradientUnits="userSpaceOnUse" gradientTransform="translate(815.657 867.243) rotate(-25) scale(184.094 795.095)">
<stop offset="0.909375" stop-color="white"/>
<stop offset="1" stop-color="white" stop-opacity="0"/>
</radialGradient>
<radialGradient id="paint12_radial_260_624" cx="0" cy="0" r="1" gradientUnits="userSpaceOnUse" gradientTransform="translate(815.648 860.892) rotate(-20) scale(184.094 795.095)">
<stop offset="0.930208" stop-color="white"/>
<stop offset="1" stop-color="white" stop-opacity="0"/>
</radialGradient>
<radialGradient id="paint13_radial_260_624" cx="0" cy="0" r="1" gradientUnits="userSpaceOnUse" gradientTransform="translate(815.648 860.892) rotate(-20) scale(184.094 795.095)">
<stop offset="0.909375" stop-color="white"/>
<stop offset="1" stop-color="white" stop-opacity="0"/>
</radialGradient>
<radialGradient id="paint14_radial_260_624" cx="0" cy="0" r="1" gradientUnits="userSpaceOnUse" gradientTransform="translate(815.665 854.546) rotate(-15) scale(184.094 795.095)">
<stop offset="0.930208" stop-color="white"/>
<stop offset="1" stop-color="white" stop-opacity="0"/>
</radialGradient>
<radialGradient id="paint15_radial_260_624" cx="0" cy="0" r="1" gradientUnits="userSpaceOnUse" gradientTransform="translate(815.665 854.546) rotate(-15) scale(184.094 795.095)">
<stop offset="0.909375" stop-color="white"/>
<stop offset="1" stop-color="white" stop-opacity="0"/>
</radialGradient>
<radialGradient id="paint16_radial_260_624" cx="0" cy="0" r="1" gradientUnits="userSpaceOnUse" gradientTransform="translate(815.659 848.199) rotate(-10) scale(184.094 795.095)">
<stop offset="0.930208" stop-color="white"/>
<stop offset="1" stop-color="white" stop-opacity="0"/>
</radialGradient>
<radialGradient id="paint17_radial_260_624" cx="0" cy="0" r="1" gradientUnits="userSpaceOnUse" gradientTransform="translate(815.659 848.199) rotate(-10) scale(184.094 795.095)">
<stop offset="0.909375" stop-color="white"/>
<stop offset="1" stop-color="white" stop-opacity="0"/>
</radialGradient>
<radialGradient id="paint18_radial_260_624" cx="0" cy="0" r="1" gradientUnits="userSpaceOnUse" gradientTransform="translate(815.658 841.851) rotate(-5) scale(184.094 795.095)">
<stop offset="0.930208" stop-color="white"/>
<stop offset="1" stop-color="white" stop-opacity="0"/>
</radialGradient>
<radialGradient id="paint19_radial_260_624" cx="0" cy="0" r="1" gradientUnits="userSpaceOnUse" gradientTransform="translate(815.658 841.851) rotate(-5) scale(184.094 795.095)">
<stop offset="0.909375" stop-color="white"/>
<stop offset="1" stop-color="white" stop-opacity="0"/>
</radialGradient>
<radialGradient id="paint20_radial_260_624" cx="0" cy="0" r="1" gradientUnits="userSpaceOnUse" gradientTransform="translate(815.644 835.503) scale(184.094 795.095)">
<stop offset="0.930208" stop-color="white"/>
<stop offset="1" stop-color="white" stop-opacity="0"/>
</radialGradient>
<radialGradient id="paint21_radial_260_624" cx="0" cy="0" r="1" gradientUnits="userSpaceOnUse" gradientTransform="translate(815.644 835.503) scale(184.094 795.095)">
<stop offset="0.909375" stop-color="white"/>
<stop offset="1" stop-color="white" stop-opacity="0"/>
</radialGradient>
<radialGradient id="paint22_radial_260_624" cx="0" cy="0" r="1" gradientUnits="userSpaceOnUse" gradientTransform="translate(815.654 829.151) rotate(5) scale(184.094 795.095)">
<stop offset="0.930208" stop-color="white"/>
<stop offset="1" stop-color="white" stop-opacity="0"/>
</radialGradient>
<radialGradient id="paint23_radial_260_624" cx="0" cy="0" r="1" gradientUnits="userSpaceOnUse" gradientTransform="translate(815.654 829.151) rotate(5) scale(184.094 795.095)">
<stop offset="0.909375" stop-color="white"/>
<stop offset="1" stop-color="white" stop-opacity="0"/>
</radialGradient>
<radialGradient id="paint24_radial_260_624" cx="0" cy="0" r="1" gradientUnits="userSpaceOnUse" gradientTransform="translate(815.658 822.804) rotate(10) scale(184.094 795.095)">
<stop offset="0.930208" stop-color="white"/>
<stop offset="1" stop-color="white" stop-opacity="0"/>
</radialGradient>
<radialGradient id="paint25_radial_260_624" cx="0" cy="0" r="1" gradientUnits="userSpaceOnUse" gradientTransform="translate(815.658 822.804) rotate(10) scale(184.094 795.095)">
<stop offset="0.909375" stop-color="white"/>
<stop offset="1" stop-color="white" stop-opacity="0"/>
</radialGradient>
<radialGradient id="paint26_radial_260_624" cx="0" cy="0" r="1" gradientUnits="userSpaceOnUse" gradientTransform="translate(815.65 816.457) rotate(15) scale(184.094 795.095)">
<stop offset="0.930208" stop-color="white"/>
<stop offset="1" stop-color="white" stop-opacity="0"/>
</radialGradient>
<radialGradient id="paint27_radial_260_624" cx="0" cy="0" r="1" gradientUnits="userSpaceOnUse" gradientTransform="translate(815.65 816.457) rotate(15) scale(184.094 795.095)">
<stop offset="0.909375" stop-color="white"/>
<stop offset="1" stop-color="white" stop-opacity="0"/>
</radialGradient>
<radialGradient id="paint28_radial_260_624" cx="0" cy="0" r="1" gradientUnits="userSpaceOnUse" gradientTransform="translate(815.652 810.108) rotate(20) scale(184.094 795.095)">
<stop offset="0.930208" stop-color="white"/>
<stop offset="1" stop-color="white" stop-opacity="0"/>
</radialGradient>
<radialGradient id="paint29_radial_260_624" cx="0" cy="0" r="1" gradientUnits="userSpaceOnUse" gradientTransform="translate(815.652 810.108) rotate(20) scale(184.094 795.095)">
<stop offset="0.909375" stop-color="white"/>
<stop offset="1" stop-color="white" stop-opacity="0"/>
</radialGradient>
<radialGradient id="paint30_radial_260_624" cx="0" cy="0" r="1" gradientUnits="userSpaceOnUse" gradientTransform="translate(815.658 803.761) rotate(25) scale(184.094 795.095)">
<stop offset="0.930208" stop-color="white"/>
<stop offset="1" stop-color="white" stop-opacity="0"/>
</radialGradient>
<radialGradient id="paint31_radial_260_624" cx="0" cy="0" r="1" gradientUnits="userSpaceOnUse" gradientTransform="translate(815.658 803.761) rotate(25) scale(184.094 795.095)">
<stop offset="0.909375" stop-color="white"/>
<stop offset="1" stop-color="white" stop-opacity="0"/>
</radialGradient>
<radialGradient id="paint32_radial_260_624" cx="0" cy="0" r="1" gradientUnits="userSpaceOnUse" gradientTransform="translate(815.663 797.414) rotate(30) scale(184.094 795.095)">
<stop offset="0.930208" stop-color="white"/>
<stop offset="1" stop-color="white" stop-opacity="0"/>
</radialGradient>
<radialGradient id="paint33_radial_260_624" cx="0" cy="0" r="1" gradientUnits="userSpaceOnUse" gradientTransform="translate(815.663 797.414) rotate(30) scale(184.094 795.095)">
<stop offset="0.909375" stop-color="white"/>
<stop offset="1" stop-color="white" stop-opacity="0"/>
</radialGradient>
<radialGradient id="paint34_radial_260_624" cx="0" cy="0" r="1" gradientUnits="userSpaceOnUse" gradientTransform="translate(815.644 791.066) rotate(35) scale(184.094 795.095)">
<stop offset="0.930208" stop-color="white"/>
<stop offset="1" stop-color="white" stop-opacity="0"/>
</radialGradient>
<radialGradient id="paint35_radial_260_624" cx="0" cy="0" r="1" gradientUnits="userSpaceOnUse" gradientTransform="translate(815.644 791.066) rotate(35) scale(184.094 795.095)">
<stop offset="0.909375" stop-color="white"/>
<stop offset="1" stop-color="white" stop-opacity="0"/>
</radialGradient>
<radialGradient id="paint36_radial_260_624" cx="0" cy="0" r="1" gradientUnits="userSpaceOnUse" gradientTransform="translate(815.648 784.716) rotate(40) scale(184.094 795.095)">
<stop offset="0.930208" stop-color="white"/>
<stop offset="1" stop-color="white" stop-opacity="0"/>
</radialGradient>
<radialGradient id="paint37_radial_260_624" cx="0" cy="0" r="1" gradientUnits="userSpaceOnUse" gradientTransform="translate(815.648 784.716) rotate(40) scale(184.094 795.095)">
<stop offset="0.909375" stop-color="white"/>
<stop offset="1" stop-color="white" stop-opacity="0"/>
</radialGradient>
<radialGradient id="paint38_radial_260_624" cx="0" cy="0" r="1" gradientUnits="userSpaceOnUse" gradientTransform="translate(815.654 778.369) rotate(45) scale(184.094 795.095)">
<stop offset="0.930208" stop-color="white"/>
<stop offset="1" stop-color="white" stop-opacity="0"/>
</radialGradient>
<radialGradient id="paint39_radial_260_624" cx="0" cy="0" r="1" gradientUnits="userSpaceOnUse" gradientTransform="translate(815.654 778.369) rotate(45) scale(184.094 795.095)">
<stop offset="0.909375" stop-color="white"/>
<stop offset="1" stop-color="white" stop-opacity="0"/>
</radialGradient>
<radialGradient id="paint40_radial_260_624" cx="0" cy="0" r="1" gradientUnits="userSpaceOnUse" gradientTransform="translate(815.639 772.021) rotate(50) scale(184.094 795.095)">
<stop offset="0.930208" stop-color="white"/>
<stop offset="1" stop-color="white" stop-opacity="0"/>
</radialGradient>
<radialGradient id="paint41_radial_260_624" cx="0" cy="0" r="1" gradientUnits="userSpaceOnUse" gradientTransform="translate(815.639 772.021) rotate(50) scale(184.094 795.095)">
<stop offset="0.909375" stop-color="white"/>
<stop offset="1" stop-color="white" stop-opacity="0"/>
</radialGradient>
<radialGradient id="paint42_radial_260_624" cx="0" cy="0" r="1" gradientUnits="userSpaceOnUse" gradientTransform="translate(815.641 765.671) rotate(55) scale(184.094 795.095)">
<stop offset="0.930208" stop-color="white"/>
<stop offset="1" stop-color="white" stop-opacity="0"/>
</radialGradient>
<radialGradient id="paint43_radial_260_624" cx="0" cy="0" r="1" gradientUnits="userSpaceOnUse" gradientTransform="translate(815.641 765.671) rotate(55) scale(184.094 795.095)">
<stop offset="0.909375" stop-color="white"/>
<stop offset="1" stop-color="white" stop-opacity="0"/>
</radialGradient>
<radialGradient id="paint44_radial_260_624" cx="0" cy="0" r="1" gradientUnits="userSpaceOnUse" gradientTransform="translate(815.654 759.324) rotate(60) scale(184.094 795.095)">
<stop offset="0.930208" stop-color="white"/>
<stop offset="1" stop-color="white" stop-opacity="0"/>
</radialGradient>
<radialGradient id="paint45_radial_260_624" cx="0" cy="0" r="1" gradientUnits="userSpaceOnUse" gradientTransform="translate(815.654 759.324) rotate(60) scale(184.094 795.095)">
<stop offset="0.909375" stop-color="white"/>
<stop offset="1" stop-color="white" stop-opacity="0"/>
</radialGradient>
<radialGradient id="paint46_radial_260_624" cx="0" cy="0" r="1" gradientUnits="userSpaceOnUse" gradientTransform="translate(815.664 752.976) rotate(65) scale(184.094 795.095)">
<stop offset="0.930208" stop-color="white"/>
<stop offset="1" stop-color="white" stop-opacity="0"/>
</radialGradient>
<radialGradient id="paint47_radial_260_624" cx="0" cy="0" r="1" gradientUnits="userSpaceOnUse" gradientTransform="translate(815.664 752.976) rotate(65) scale(184.094 795.095)">
<stop offset="0.909375" stop-color="white"/>
<stop offset="1" stop-color="white" stop-opacity="0"/>
</radialGradient>
<radialGradient id="paint48_radial_260_624" cx="0" cy="0" r="1" gradientUnits="userSpaceOnUse" gradientTransform="translate(815.643 746.629) rotate(70) scale(184.094 795.095)">
<stop offset="0.930208" stop-color="white"/>
<stop offset="1" stop-color="white" stop-opacity="0"/>
</radialGradient>
<radialGradient id="paint49_radial_260_624" cx="0" cy="0" r="1" gradientUnits="userSpaceOnUse" gradientTransform="translate(815.643 746.629) rotate(70) scale(184.094 795.095)">
<stop offset="0.909375" stop-color="white"/>
<stop offset="1" stop-color="white" stop-opacity="0"/>
</radialGradient>
<radialGradient id="paint50_radial_260_624" cx="0" cy="0" r="1" gradientUnits="userSpaceOnUse" gradientTransform="translate(815.65 740.281) rotate(75) scale(184.094 795.095)">
<stop offset="0.930208" stop-color="white"/>
<stop offset="1" stop-color="white" stop-opacity="0"/>
</radialGradient>
<radialGradient id="paint51_radial_260_624" cx="0" cy="0" r="1" gradientUnits="userSpaceOnUse" gradientTransform="translate(815.65 740.281) rotate(75) scale(184.094 795.095)">
<stop offset="0.909375" stop-color="white"/>
<stop offset="1" stop-color="white" stop-opacity="0"/>
</radialGradient>
<radialGradient id="paint52_radial_260_624" cx="0" cy="0" r="1" gradientUnits="userSpaceOnUse" gradientTransform="translate(815.652 733.931) rotate(80) scale(184.094 795.095)">
<stop offset="0.930208" stop-color="white"/>
<stop offset="1" stop-color="white" stop-opacity="0"/>
</radialGradient>
<radialGradient id="paint53_radial_260_624" cx="0" cy="0" r="1" gradientUnits="userSpaceOnUse" gradientTransform="translate(815.652 733.931) rotate(80) scale(184.094 795.095)">
<stop offset="0.909375" stop-color="white"/>
<stop offset="1" stop-color="white" stop-opacity="0"/>
</radialGradient>
<radialGradient id="paint54_radial_260_624" cx="0" cy="0" r="1" gradientUnits="userSpaceOnUse" gradientTransform="translate(815.654 727.584) rotate(85) scale(184.094 795.095)">
<stop offset="0.930208" stop-color="white"/>
<stop offset="1" stop-color="white" stop-opacity="0"/>
</radialGradient>
<radialGradient id="paint55_radial_260_624" cx="0" cy="0" r="1" gradientUnits="userSpaceOnUse" gradientTransform="translate(815.654 727.584) rotate(85) scale(184.094 795.095)">
<stop offset="0.909375" stop-color="white"/>
<stop offset="1" stop-color="white" stop-opacity="0"/>
</radialGradient>
<radialGradient id="paint56_radial_260_624" cx="0" cy="0" r="1" gradientUnits="userSpaceOnUse" gradientTransform="translate(815.66 721.234) rotate(90) scale(184.094 795.095)">
<stop offset="0.930208" stop-color="white"/>
<stop offset="1" stop-color="white" stop-opacity="0"/>
</radialGradient>
<radialGradient id="paint57_radial_260_624" cx="0" cy="0" r="1" gradientUnits="userSpaceOnUse" gradientTransform="translate(815.66 721.234) rotate(90) scale(184.094 795.095)">
<stop offset="0.909375" stop-color="white"/>
<stop offset="1" stop-color="white" stop-opacity="0"/>
</radialGradient>
</defs>
</svg>
