<svg width="1440" height="669" viewBox="0 0 1440 669" fill="none" xmlns="http://www.w3.org/2000/svg">
<path d="M-268.033 260.147L-262.022 259.44C-145.16 247.064 -24.4088 234.159 79.547 160.788C88.0332 154.777 96.5194 148.589 104.652 142.578C137.713 118.357 172.011 93.2524 208.254 80.8767C271.901 59.1309 337.315 77.164 393.005 97.6723C429.249 110.932 465.668 127.02 500.851 142.402C548.939 163.44 598.796 185.186 648.829 200.567C751.547 232.214 837.646 229.739 911.724 192.965C934.884 181.473 963.525 158.136 993.934 133.562C1028.76 105.098 1064.83 75.7497 1093.12 64.9652C1164.72 37.5619 1221.82 77.5176 1282.46 119.949C1304.74 135.507 1327.72 151.595 1352.3 165.031C1358.66 168.567 1364.85 171.926 1371.22 175.462C1457.14 223.02 1545.89 271.993 1637.65 260.501L1638 263.683C1545.01 275.352 1455.9 226.026 1369.62 178.291C1363.26 174.755 1356.9 171.219 1350.71 167.86C1325.96 154.247 1302.97 138.159 1280.7 122.6C1220.94 80.6999 1164.54 41.2746 1094.35 67.9707C1066.6 78.5785 1030.71 107.75 996.055 136.037C965.646 160.788 936.829 184.302 913.315 195.971C838.354 232.921 751.724 235.573 648.122 203.75C597.912 188.368 548.055 166.446 499.79 145.407C464.608 130.026 428.365 114.114 392.122 100.855C336.961 80.5231 272.077 62.6668 209.315 84.059C173.426 96.2579 139.304 121.186 106.42 145.407C98.1106 151.418 89.6244 157.783 81.1382 163.617C-23.348 237.341 -144.63 250.424 -261.845 262.799L-267.856 263.507L-268.033 260.147Z" fill="#262626"/>
<path d="M-268.917 284.55C-61.8893 270.76 28.8068 221.788 90.1548 175.821C99.8785 168.572 109.779 160.793 119.503 153.368C144.961 133.567 171.304 113.058 198.177 98.2076C205.779 93.9645 212.851 90.6054 219.923 87.5999C257.403 71.6883 298.597 67.622 345.448 75.2242C367.193 78.7601 387.879 85.1247 406.973 93.9645C417.05 98.5612 427.481 103.865 439.149 110.053C465.138 123.666 491.304 138.34 516.586 152.661L533.558 162.208C577.757 186.959 621.602 205.523 663.856 217.545C749.249 241.589 821.028 243.18 883.083 222.141C895.105 218.075 906.95 213.125 918.265 207.467C940.541 196.152 967.591 174.053 996.232 150.539C1030.53 122.605 1065.89 93.611 1094 83.18C1163.48 57.0143 1218.99 95.7325 1277.87 136.749C1299.44 151.777 1321.71 167.158 1345.4 180.241L1359.9 188.197C1390.31 204.815 1421.78 221.965 1453.07 235.931C1524.5 267.931 1583.02 279.953 1637.12 273.589L1637.47 276.771C1582.66 283.313 1523.61 271.291 1451.66 238.937C1420.19 224.793 1388.72 207.644 1358.13 191.025L1343.64 183.07C1319.77 169.987 1297.49 154.429 1275.75 139.401C1217.58 98.9148 1162.77 60.727 1094.88 86.1856C1067.3 96.4397 1032.12 125.257 998 153.191C969.182 176.705 941.956 198.981 919.503 210.473C908.011 216.307 895.989 221.257 883.967 225.324C821.205 246.539 748.895 245.125 662.972 220.904C620.365 208.882 576.343 190.141 531.967 165.39L514.995 155.843C489.713 141.699 463.547 127.025 437.735 113.235C426.066 107.047 415.635 101.92 405.735 97.1469C386.818 88.4839 366.309 82.1193 344.917 78.5834C298.597 70.9811 258.111 74.8706 221.16 90.6054C214.265 93.611 207.193 96.9701 199.768 101.213C173.249 116.064 146.906 136.395 121.624 156.197C112.077 163.622 102.177 171.401 92.2764 178.65C-17.8673 261.213 -151.878 280.307 -268.563 288.086L-268.917 284.55Z" fill="#262626"/>
<path d="M-269.624 308.937C-115.458 304.517 5.64672 265.799 100.939 190.661C112.078 181.821 123.216 172.628 134.177 163.611C158.752 143.28 184.21 122.241 209.846 106.153C217.094 101.556 224.343 97.4897 231.415 93.777C269.956 73.9759 311.149 66.5505 357.116 70.7936C380.63 73.0919 402.199 79.4565 420.763 89.8875C430.31 95.1913 440.033 101.202 452.409 109.335C475.923 124.893 499.614 141.158 522.42 157.07C529.492 162.02 536.741 166.97 543.812 171.921C585.006 200.385 631.68 221.777 678.708 233.976C763.923 255.899 831.105 256.429 890.685 235.567C902.354 231.501 913.846 226.551 924.63 220.893C946.022 209.755 971.658 188.716 998.884 166.44C1032.48 139.037 1067.13 110.573 1095.06 100.318C1162.07 75.5671 1215.99 112.694 1272.92 152.12C1293.96 166.617 1315.7 181.645 1338.69 194.197L1344.7 197.379C1378.64 215.766 1413.65 234.683 1448.83 249.534C1520.96 280.12 1580.72 291.435 1636.76 285.247L1637.12 288.429C1580.54 294.794 1520.25 283.302 1447.59 252.54C1412.23 237.689 1377.23 218.595 1343.28 200.208L1337.27 197.026C1313.93 184.473 1292.19 169.446 1271.15 154.771C1214.93 115.876 1161.71 79.103 1096.3 103.324C1068.9 113.401 1034.42 141.512 1001.18 168.915C973.779 191.368 947.967 212.407 926.398 223.722C915.437 229.379 903.945 234.33 892.1 238.573C831.989 259.611 764.1 259.258 678.354 236.981C630.973 224.783 583.945 203.213 542.398 174.572C535.149 169.622 528.078 164.672 521.006 159.722C498.199 143.987 474.509 127.545 450.995 111.987C438.796 103.854 429.072 97.8433 419.525 92.5394C401.138 82.2853 380.276 76.0974 357.116 73.9759C311.857 69.7328 271.194 77.1582 233.183 96.6057C226.111 100.142 219.039 104.385 211.79 108.805C186.332 124.893 161.05 145.755 136.475 166.086C125.691 175.103 114.376 184.296 103.238 193.136C7.41466 268.628 -114.398 307.523 -269.271 312.119L-269.624 308.937Z" fill="#262626"/>
<path d="M-270.508 336.522L-270.508 333.339C-167.436 334.047 -17.5138 312.301 111.724 205.516C124.63 194.908 137.536 183.594 150.088 172.632C173.425 152.301 197.47 131.262 221.514 114.113C228.586 109.163 235.834 104.389 242.906 100.146C282.685 76.2787 323.878 65.3174 368.608 66.555C393.713 67.2621 415.812 73.8036 434.376 85.8257C446.221 93.6047 457.359 102.091 465.492 108.809C483.878 123.483 502.265 138.864 520.122 153.715C531.437 163.085 542.575 172.456 554.066 181.826C594.022 214.71 642.287 238.4 693.558 250.599C778.066 270.577 841.182 270.224 898.287 249.362C909.602 245.295 920.563 240.345 930.818 234.864C951.326 223.903 975.547 204.102 1001.36 182.887C1034.24 156.014 1068.01 128.08 1095.77 118.179C1160.65 94.8423 1212.81 130.732 1267.97 168.566C1288.3 182.533 1309.34 197.03 1331.61 209.052L1332.67 209.583C1368.92 229.03 1406.4 249.185 1444.23 264.213C1517.07 293.384 1578.07 303.991 1636.06 297.98L1636.41 301.163C1577.89 307.351 1516.36 296.389 1442.99 267.218C1405.16 252.19 1367.5 231.859 1331.26 212.411L1330.2 211.881C1307.75 199.859 1286.53 185.362 1266.2 171.218C1211.75 133.737 1160.12 98.3782 1096.83 121.185C1069.78 130.909 1036.01 158.666 1003.48 185.362C977.668 206.577 953.271 226.732 932.409 237.693C921.978 243.174 910.84 248.124 899.348 252.367C841.713 273.406 777.89 273.759 692.851 253.605C641.227 241.406 592.608 217.362 552.121 184.301C540.63 174.931 529.492 165.56 518.177 156.19C500.32 141.34 481.934 125.958 463.547 111.284C455.414 104.743 444.453 96.2567 432.608 88.4776C414.398 76.6323 392.829 70.4445 368.431 69.7374C324.232 68.4998 283.569 79.2842 244.32 102.798C237.249 107.041 230.177 111.638 223.105 116.588C199.238 133.561 175.193 154.599 151.856 174.754C139.304 185.715 126.398 197.03 113.315 207.638C-16.0995 315.483 -166.906 337.229 -270.508 336.522Z" fill="#262626"/>
<path d="M-271.392 360.923L-271.216 357.741C-126.42 363.398 13.4253 314.779 122.508 220.547C137.536 207.464 152.563 193.674 167.061 180.415C189.691 159.553 211.26 139.752 233.182 122.426C240.077 116.945 247.326 111.641 254.398 106.868C295.414 78.5803 336.608 64.2599 380.276 62.6687C406.619 61.7847 429.425 68.3261 448.166 82.293C459.834 90.956 470.088 100.503 478.751 108.636C493.249 122.426 507.746 136.569 521.713 150.359C535.679 163.973 550 178.116 564.497 191.906C603.746 229.387 653.602 255.553 708.586 267.221C763.923 279.066 836.409 289.497 906.066 263.155C917.028 259.089 927.635 254.138 937.359 248.834C956.807 238.227 979.79 219.309 1004.01 199.332C1036.19 172.812 1069.25 145.586 1096.83 135.862C1159.41 113.939 1209.98 148.238 1263.37 184.834C1282.99 198.271 1303.5 212.061 1325.07 223.729C1360.25 242.47 1400.03 263.685 1439.99 278.713C1512.3 305.939 1576.3 316.37 1635.7 310.536L1636.06 313.719C1576.3 319.553 1511.77 309.122 1438.93 281.719C1398.8 266.691 1358.84 245.298 1323.66 226.558C1301.91 214.89 1281.58 201.1 1261.78 187.486C1208.92 151.42 1159.06 117.475 1098.07 138.868C1071.19 148.415 1038.13 175.464 1006.31 201.807C981.912 221.785 958.928 240.879 939.304 251.663C929.403 257.144 918.619 261.917 907.481 266.16C837.116 292.68 764.099 282.426 708.232 270.404C652.718 258.381 602.331 232.039 562.729 194.205C548.232 180.415 533.911 166.271 519.945 152.658C505.978 138.868 491.481 124.724 476.983 110.934C468.497 102.801 458.066 93.2544 446.574 84.7682C428.188 71.1549 406.619 64.967 380.63 65.851C337.492 67.4422 297.005 81.5858 256.342 109.52C249.271 114.293 242.199 119.597 235.304 125.078C213.381 142.403 191.989 162.028 169.359 182.89C154.862 196.326 139.834 210.116 124.63 223.199C14.8397 317.785 -125.89 366.757 -271.392 360.923Z" fill="#262626"/>
<path d="M-272.276 385.31L-272.1 382.128C-129.602 392.205 18.0222 338.813 133.116 235.388C150.796 219.476 168.298 202.504 185.271 186.239C205.779 166.438 225.227 147.697 245.028 130.548C251.923 124.537 258.995 118.703 266.066 113.222C308.321 80.3381 349.514 62.4817 392.122 58.4154C419.525 55.7635 443.216 62.4817 462.133 78.2166C473.624 87.7635 483.702 98.7248 492.188 108.095C504.21 121.531 516.232 135.321 527.901 148.758C543.105 166.261 558.84 184.294 574.928 201.973C613.646 244.227 664.917 272.692 723.613 284.007C825.801 303.984 879.017 290.725 913.845 277.111C924.453 273.045 934.53 268.272 943.901 262.968C962.464 252.537 983.856 234.857 1006.66 215.94C1037.96 189.951 1070.49 163.255 1097.89 153.885C1158.18 133.2 1207.15 166.261 1258.95 201.443C1278.04 214.349 1297.67 227.609 1318.53 238.57C1359.9 260.493 1397.2 279.587 1435.92 293.2C1508.59 319.012 1574 328.736 1635.52 323.078L1635.88 326.261C1573.82 331.918 1508.06 322.018 1435.04 296.206C1396.14 282.592 1358.66 263.322 1317.29 241.222C1296.43 230.084 1276.63 216.824 1257.54 203.918C1206.44 169.266 1158.18 136.559 1099.3 156.891C1072.43 166.084 1040.25 192.78 1009.14 218.415C986.331 237.333 964.763 255.189 946.022 265.62C936.475 270.924 926.221 275.874 915.613 279.94C880.431 293.73 826.685 306.99 723.79 287.012C664.564 275.52 612.586 246.703 573.514 203.918C557.426 186.239 541.691 168.206 526.486 150.703C514.818 137.266 502.796 123.476 490.774 110.04C482.464 100.67 472.387 89.885 461.072 80.5149C442.508 65.1337 420.409 58.769 393.359 61.421C350.928 65.4873 311.326 82.6365 268.895 115.697C261.823 121.178 254.751 127.012 248.033 132.846C228.409 149.995 208.961 168.736 188.453 188.537C171.481 204.979 153.978 221.951 136.298 237.863C19.6133 341.819 -128.895 395.565 -272.276 385.31Z" fill="#262626"/>
<path d="M-273.161 409.713L-272.807 406.531C-129.779 420.851 22.0882 363.923 143.9 250.243C164.762 230.796 185.271 209.934 205.248 189.779C223.105 171.746 239.724 154.597 256.873 138.509C263.591 132.144 270.663 125.779 277.735 119.591C321.757 81.2268 361.889 60.5418 403.967 54.1771C432.608 49.934 456.828 56.6523 476.099 74.3319C487.414 84.7628 497.315 96.9617 505.624 107.569C516.232 121.183 526.839 135.326 537.094 148.763C552.652 169.448 568.917 191.017 585.536 211.702C633.801 271.459 695.503 293.028 738.817 300.453C793.978 310 858.685 316.365 921.624 290.73C931.878 286.663 941.425 281.89 950.442 276.763C967.945 266.509 988.099 249.89 1009.31 232.21C1039.9 206.752 1071.55 180.409 1098.77 171.393C1156.76 151.945 1204.14 183.768 1254.18 217.36C1272.56 229.735 1291.48 242.464 1311.46 252.895C1351.77 273.934 1391.19 294.089 1431.15 307.349C1504.17 331.57 1570.64 340.763 1634.64 335.282L1634.99 338.465C1570.64 343.945 1503.64 334.752 1430.26 310.354C1389.96 296.918 1350.35 276.94 1310.04 255.724C1289.89 245.116 1270.8 232.387 1252.41 220.011C1202.91 186.774 1156.23 155.481 1099.66 174.398C1072.96 183.238 1041.49 209.404 1011.08 234.685C989.69 252.365 969.536 269.161 951.856 279.415C942.84 284.719 932.939 289.492 922.685 293.558C858.862 319.547 793.624 313.183 738.11 303.459C694.265 295.857 631.856 273.934 583.061 213.47C566.265 192.785 550.177 171.216 534.442 150.531C524.188 136.917 513.58 122.951 503.149 109.337C495.016 98.9064 485.116 86.7076 473.978 76.4534C455.591 59.4811 432.254 52.9396 404.497 57.1827C363.127 63.3705 323.525 84.0557 279.856 121.89C272.784 127.901 265.889 134.266 259.171 140.63C242.199 156.719 225.403 173.691 207.724 191.724C187.922 211.879 167.414 232.741 146.375 252.365C23.5025 366.928 -129.249 424.21 -273.161 409.713Z" fill="#262626"/>
<path d="M-274.044 434.115L-273.691 430.932C-131.901 449.142 28.0995 387.264 154.685 265.275C179.613 241.231 203.834 215.242 227.171 190.314C241.492 175.109 254.928 160.612 268.365 146.645C275.083 139.75 282.155 132.855 289.05 126.137C334.84 82.1148 373.735 58.601 415.282 50.1148C444.983 44.1038 469.911 50.822 489.359 70.4463C500.674 81.7612 509.867 94.8441 518.354 107.22C527.901 121.363 537.624 136.038 546.818 150.181C562.376 173.872 578.464 198.446 595.436 221.783C632.74 273.408 688.784 307.352 753.315 317.253C806.177 325.386 868.409 330.336 928.873 304.701C938.597 300.634 947.79 295.861 956.453 290.91C973.072 281.01 991.635 265.452 1011.44 249.01C1041.31 224.082 1072.25 198.27 1099.3 189.43C1155.17 171.397 1200.78 201.806 1249.23 233.982C1266.91 245.828 1285.29 258.026 1304.39 267.927C1345.05 289.143 1385.18 309.297 1426.55 322.203C1499.57 345.01 1567.46 353.496 1633.93 348.369L1634.11 351.551C1567.28 356.855 1499.04 348.192 1425.67 325.386C1383.94 312.48 1343.81 292.325 1302.97 270.932C1283.7 260.855 1265.31 248.656 1247.46 236.811C1199.72 204.988 1154.64 174.933 1100.19 192.612C1073.67 201.275 1043.08 226.734 1013.38 251.485C993.58 268.104 974.84 283.662 958.044 293.739C949.381 298.866 940.011 303.64 930.11 307.883C868.939 333.872 806.177 328.922 752.784 320.789C687.547 310.712 630.619 276.236 592.961 223.905C575.989 200.391 559.901 175.817 544.343 152.126C535.149 137.982 525.425 123.308 515.878 109.165C507.569 96.9657 498.376 84.0596 487.238 72.9215C468.674 54.1812 444.63 47.6397 415.989 53.474C374.972 61.7834 336.608 85.1203 291.348 128.789C284.453 135.507 277.558 142.402 270.84 149.297C257.227 163.264 243.79 177.584 229.646 192.789C206.309 217.894 182.088 243.706 156.983 267.927C29.6905 390.269 -131.37 452.502 -274.044 434.115Z" fill="#262626"/>
<path d="M-274.928 458.509L-274.398 455.326C-131.37 477.603 33.0497 412.012 165.47 280.122C195.702 250.067 224.343 217.536 252.276 186.244C261.823 175.459 271.193 165.028 280.387 154.774C287.105 147.172 294 139.746 300.895 132.498C334.309 97.1387 375.503 59.1276 427.304 45.868C458.066 37.9122 483.702 44.9839 503.503 66.553C514.641 78.7519 523.834 93.0723 531.967 106.686C540.983 121.713 549.823 137.094 558.309 152.122C573.514 178.465 589.072 205.868 606.044 231.857C642.994 288.608 700.63 324.851 768.519 334.045C816.077 340.586 878.309 344.652 936.829 318.663C946.199 314.597 955.039 310.001 962.994 304.873C978.552 295.15 995.878 280.652 1014.09 265.448C1043.26 241.05 1073.31 215.768 1100.36 207.282C1153.93 190.487 1198.13 219.658 1244.81 250.42C1261.78 261.559 1279.46 273.227 1297.67 282.774C1337.27 303.282 1379.7 324.321 1422.31 336.697C1494.09 357.735 1565.16 365.868 1633.58 360.918L1633.76 364.1C1565.16 369.05 1493.73 360.918 1421.43 339.879C1378.46 327.503 1336.03 306.288 1296.25 285.603C1277.69 276.056 1260.19 264.387 1243.04 253.072C1196.89 222.663 1153.4 194.023 1101.25 210.288C1074.91 218.597 1045.03 243.702 1016.03 267.923C997.646 283.304 980.32 297.978 964.409 307.702C956.276 312.829 947.26 317.426 937.713 321.669C878.486 348.012 815.724 343.945 767.635 337.404C698.862 328.034 640.519 291.26 603.039 233.802C586.066 207.813 570.331 180.409 555.127 154.067C546.641 139.216 537.624 123.658 528.784 108.807C520.652 95.3707 511.812 81.227 500.674 69.2049C481.757 48.5198 457.359 41.9784 427.657 49.5806C376.74 62.6635 335.901 100.321 302.84 135.326C296.121 142.398 289.226 150.001 282.508 157.426C273.315 167.68 263.945 178.288 254.398 188.896C226.641 220.365 197.823 252.719 167.591 282.951C34.4641 415.017 -131.017 480.962 -274.928 458.509Z" fill="#262626"/>
<path d="M-275.812 482.907L-275.282 479.725C-130.84 505.891 38 436.763 176.077 294.973C213.204 256.962 247.68 215.592 281.094 175.636L291.879 162.73C298.774 154.421 305.669 146.465 312.21 138.863C348.099 97.4927 388.232 57.0065 438.796 41.6253C470.619 31.9015 496.961 38.9733 516.939 62.4871C528.078 75.57 536.917 91.3048 544.873 106.156C553.359 122.067 561.669 138.509 569.624 154.244C584.298 183.239 599.503 213.294 616.122 241.581C652.718 303.636 712.122 342.178 783.193 350.487C828.453 355.791 887.856 358.443 944.254 332.101C953.094 328.034 961.58 323.437 969.182 318.487C983.856 309.117 999.768 295.68 1016.56 281.537C1044.85 257.493 1074.2 232.741 1101.25 224.609C1152.52 209.051 1195.13 236.808 1240.21 266.332C1256.48 276.94 1273.45 288.078 1290.95 296.918C1331.26 317.603 1374.4 338.819 1418.07 350.664C1489.49 370.112 1561.98 377.714 1633.05 372.94L1633.23 376.122C1561.62 380.896 1488.96 373.471 1417.18 353.846C1373.16 341.824 1330.02 320.609 1289.54 299.924C1271.86 290.907 1254.88 279.769 1238.62 269.161C1194.24 240.167 1152.17 212.764 1102.31 227.791C1075.97 235.747 1046.97 260.321 1018.86 284.189C1001.89 298.509 985.978 311.946 971.127 321.493C963.348 326.443 954.862 331.04 945.845 335.283C888.564 361.979 828.807 359.15 783.017 353.846C710.884 345.36 650.773 306.111 613.646 243.349C596.851 215.062 581.646 185.006 566.973 155.835C559.017 139.924 550.707 123.658 542.221 107.747C534.442 93.0728 525.779 77.6915 514.818 64.7854C495.724 42.3324 470.619 35.6143 440.033 44.9844C390.177 60.1888 350.575 100.321 315.039 141.338C308.497 148.94 301.779 156.896 294.707 165.205L283.923 178.111C250.508 218.067 215.856 259.437 178.729 297.625C39.4144 439.769 -130.309 509.25 -275.812 482.907Z" fill="#262626"/>
<path d="M-276.696 507.314L-275.989 504.132C-129.779 534.01 43.3041 461.524 187.039 309.834C229.293 265.281 268.011 216.662 303.901 170.696C310.619 162.209 317.337 153.723 324.056 145.237C358 102.629 398.486 55.7785 450.641 37.3918C483.702 25.7233 510.575 32.7951 530.73 58.4305C541.868 72.5741 550.354 89.3697 557.956 105.458C565.912 122.43 573.691 139.756 581.293 156.729C595.26 188.198 609.934 220.729 626.376 251.314C662.796 318.674 723.79 359.867 798.044 367.116C861.691 373.303 909.249 366.762 951.857 345.9C960.166 341.834 968.122 337.414 975.547 332.464C989.16 323.447 1003.66 311.071 1019.04 297.988C1046.62 274.475 1075.08 250.254 1101.96 242.298C1151.11 227.977 1192.12 254.497 1235.44 282.607C1250.99 292.685 1267.26 303.115 1283.88 311.602C1324.9 332.464 1368.74 353.856 1413.29 365.171C1484.19 383.204 1557.74 390.099 1632.17 385.502L1632.34 388.685C1557.56 393.281 1483.66 386.386 1412.41 368.176C1367.5 356.861 1323.48 335.292 1282.29 314.431C1265.49 305.944 1249.23 295.337 1233.49 285.259C1190.71 257.679 1150.22 231.513 1102.49 245.48C1076.32 253.082 1048.03 277.127 1020.63 300.464C1005.25 313.723 990.575 326.099 976.785 335.292C969.359 340.243 961.227 344.839 952.741 348.906C909.602 369.944 861.514 376.663 797.161 370.298C721.846 362.872 659.967 321.325 623.017 252.906C606.398 222.32 591.901 189.613 577.757 158.143C570.155 141.348 562.376 123.845 554.42 107.049C546.818 91.1377 538.332 74.5189 527.547 60.552C508.277 36.1543 482.464 29.436 450.995 40.5742C399.724 58.6073 359.415 105.281 325.823 147.535C319.105 156.022 312.387 164.508 305.669 172.994C269.779 218.961 231.061 267.58 188.63 312.309C44.7185 464.53 -129.425 537.546 -276.696 507.314Z" fill="#262626"/>
<path d="M-277.58 531.705L-276.873 528.7C-128.718 562.468 48.6075 486.269 197.646 325.031C233.889 285.783 270.133 240.877 315.392 179.175L319.989 172.81C325.116 165.915 330.066 159.02 335.193 152.125C371.26 103.33 410.685 54.0037 461.956 33.6722C495.547 20.4126 523.834 27.6611 544.166 55.0644C555.48 70.2689 563.613 88.302 570.862 105.451C578.641 123.838 586.243 142.932 593.492 161.319C606.751 194.733 620.365 229.385 636.276 261.562C671.989 333.518 736.166 378.07 812.718 384.081C871.945 388.678 918.442 381.075 959.282 360.037C967.237 355.971 974.663 351.551 981.735 346.777C994.287 338.114 1007.55 326.799 1021.51 314.777C1048.21 291.794 1075.97 267.926 1102.84 260.501C1149.69 247.418 1189.12 272.7 1231.02 299.219C1245.87 308.766 1261.43 318.667 1277.16 326.622C1318.88 347.661 1363.44 369.054 1409.05 379.838C1478.88 396.457 1553.85 402.645 1631.81 398.225L1631.99 401.407C1553.67 405.827 1478.53 399.639 1408.34 382.844C1362.55 372.059 1317.65 350.49 1275.75 329.274C1259.83 321.319 1244.28 311.418 1229.25 301.694C1188.06 275.352 1149.16 250.6 1103.72 263.33C1077.56 270.578 1050.15 294.269 1023.64 317.076C1009.67 329.098 996.409 340.589 983.679 349.252C976.608 354.203 969.005 358.622 960.873 362.689C919.503 383.904 872.475 391.683 812.718 387.087C735.105 381.076 669.867 335.816 633.801 262.799C617.713 230.446 604.099 195.794 590.84 162.203C583.591 143.816 575.989 124.722 568.21 106.335C560.961 89.3628 552.829 71.5065 541.867 56.4789C522.42 30.1364 495.9 23.2413 463.37 36.1474C412.807 56.3021 373.735 105.098 338.022 153.54C332.895 160.435 327.768 167.33 322.817 174.225L318.221 180.589C272.961 242.291 236.541 287.374 200.121 326.799C50.1988 489.098 -128.365 565.65 -277.58 531.705Z" fill="#262626"/>
<path d="M-278.464 556.102L-277.757 553.096C-127.127 590.754 54.6188 511.019 208.254 339.881C246.265 297.803 285.16 247.947 327.061 187.13C331.481 180.588 336.077 174.047 340.674 167.328L346.862 158.312C384.873 102.975 423.061 51.5273 473.801 29.2511C508.453 14.0467 537.447 21.4721 557.956 50.8202C569.094 66.9086 577.227 86.1793 584.122 104.743C591.547 124.19 598.619 144.345 605.337 163.792C617.89 199.682 630.972 236.809 646.707 271.461C682.243 349.074 748.188 396.102 827.746 400.699C883.083 403.881 927.282 395.395 967.061 373.826C974.486 369.936 981.558 365.516 988.276 360.743C999.768 352.433 1011.61 342.179 1024.17 331.218C1049.98 308.588 1076.85 285.251 1103.72 278.179C1148.45 266.334 1186.29 290.201 1226.42 315.483C1240.56 324.5 1255.41 333.693 1270.27 341.119C1312.87 362.334 1358.31 383.903 1404.63 394.157C1474.11 409.538 1548.36 414.842 1631.28 410.599L1631.46 413.781C1548.19 418.025 1473.76 412.544 1403.92 397.163C1357.25 386.909 1311.64 365.163 1268.85 343.947C1253.82 336.345 1238.97 327.152 1224.65 318.135C1185.05 293.207 1147.75 269.693 1104.43 281.185C1078.27 288.08 1051.75 311.24 1026.11 333.516C1013.56 344.478 1001.54 354.909 989.867 363.218C983.149 367.991 975.9 372.588 968.475 376.478C928.342 398.224 883.436 406.887 827.569 403.704C746.773 399.108 679.768 351.373 643.878 272.699C627.967 238.047 615.061 200.92 602.331 164.853C595.436 145.406 588.541 125.251 581.116 105.804C574.221 87.5936 566.265 68.3229 555.304 52.5881C530.729 17.229 498.022 22.0024 475.039 32.0798C425.182 54.0024 387.171 105.096 349.514 160.08L343.326 169.096C338.729 175.638 334.309 182.356 329.713 188.898C287.635 249.715 248.74 299.748 210.552 342.002C56.2098 513.848 -126.597 593.936 -278.464 556.102Z" fill="#262626"/>
<path d="M-279.348 580.499L-278.464 577.493C-125.713 618.864 60.4532 535.593 219.216 354.731C259.348 309.295 299.658 255.549 339.083 195.262C345.271 185.715 351.459 176.168 357.646 166.444L358.707 164.853C391.061 114.289 431.37 51.3499 485.647 25.1842C530.729 3.43831 557.249 25.0074 571.746 46.93C582.884 63.9024 590.663 84.4107 597.381 104.212C604.453 124.72 610.995 145.935 617.359 166.444C629.205 204.808 641.58 244.587 657.138 281.184C692.497 364.632 760.033 414.134 842.774 417.14C893.514 418.908 936.652 409.184 974.84 387.438C981.735 383.549 988.276 379.129 994.641 374.532C1005.07 366.753 1015.68 357.383 1026.82 347.482C1051.92 325.383 1077.73 302.4 1104.61 295.681C1147.04 285.074 1185.05 308.764 1222 331.571C1235.44 340.057 1249.4 348.72 1263.55 355.615C1307.04 377.007 1353.36 398.93 1400.21 408.477C1468.81 422.444 1542.18 427.04 1630.75 422.974L1630.93 426.157C1542 430.223 1468.63 425.626 1399.68 411.482C1352.3 401.935 1305.8 380.013 1262.13 358.444C1247.99 351.372 1233.85 342.709 1220.23 334.223C1182.22 310.709 1146.51 288.433 1105.31 298.687C1079.15 305.228 1053.51 327.858 1028.76 349.781C1017.62 359.681 1007.02 369.051 996.409 377.007C990.044 381.781 983.149 386.201 976.254 390.267C937.713 412.366 893.867 422.267 842.597 420.322C758.619 417.317 689.845 367.107 654.133 282.422C638.575 245.471 626.199 205.692 614.177 167.328C607.812 146.819 601.271 125.604 594.199 105.096C587.658 85.4715 579.879 65.14 568.917 48.5212C543.989 10.687 510.575 16.5212 486.884 27.8361C433.315 53.6483 393.359 116.057 361.182 166.444L360.122 168.035C353.934 177.759 347.746 187.483 341.558 196.853C302.133 257.317 261.646 311.063 221.514 356.676C61.8675 538.422 -125.359 622.046 -279.348 580.499Z" fill="#262626"/>
<path d="M-280.232 604.901L-279.348 601.895C-124.299 646.801 66.1102 559.995 229.823 369.586C272.608 319.906 313.27 264.039 350.751 203.221C356.939 193.321 363.127 182.89 369.138 172.989L370.199 171.221C404.497 113.94 443.392 49.0555 497.315 20.945C533.381 2.02787 564.674 9.98371 585.359 42.8677C596.497 60.724 603.922 82.6466 610.464 103.685C617.005 125.254 623.193 147.531 629.204 169.277C640.519 210.116 652.011 252.37 667.392 291.265C702.044 379.486 773.116 432.879 857.624 433.94C903.768 434.647 945.845 423.685 982.265 401.409C988.453 397.696 994.817 393.276 1000.83 388.503C1010.2 381.254 1019.57 372.768 1029.29 363.929C1053.34 342.183 1078.26 319.729 1105.31 313.365C1145.45 303.995 1182.04 326.271 1217.23 347.84C1229.96 355.619 1243.22 363.752 1256.47 370.293C1300.85 392.039 1348.05 413.962 1395.61 422.801C1462.8 435.354 1535.1 439.42 1630.04 435.354L1630.22 438.536C1535.1 442.426 1462.62 438.536 1395.08 425.807C1347.17 416.79 1299.61 394.868 1255.06 372.945C1241.8 366.404 1228.36 358.271 1215.64 350.315C1180.98 329.1 1144.92 307 1106.02 316.194C1079.68 322.382 1055.1 344.481 1031.24 366.05C1021.34 374.89 1012.14 383.376 1002.6 390.625C996.409 395.398 990.044 399.818 983.679 403.708C946.552 426.337 904.121 437.299 857.27 436.768C771.348 435.531 699.215 381.431 664.033 292.149C648.652 253.078 636.983 210.823 625.845 169.807C619.834 148.238 613.823 125.962 607.105 104.393C600.74 83.5306 593.315 61.9615 582.353 44.4588C557.248 4.14939 522.773 10.8676 498.375 23.5969C445.337 51.177 406.619 115.707 372.497 172.636L371.436 174.404C365.425 184.481 359.237 194.735 353.05 204.636C315.569 265.63 274.906 321.674 231.945 371.354C67.5246 563 -123.945 650.16 -280.232 604.901Z" fill="#262626"/>
<path d="M-281.116 629.297L-280.232 626.291C-122.884 674.91 71.7678 584.568 240.608 384.612C285.16 331.927 326.177 273.761 362.42 211.352C368.784 200.568 374.796 189.783 381.691 177.584L382.751 175.816C418.464 112.347 455.414 46.7555 508.983 16.7003C546.287 -4.16158 578.11 3.79418 598.972 38.9765C609.403 56.4793 616.298 77.3411 623.37 103.153C629.558 125.783 635.392 149.297 640.873 172.104C651.481 215.242 662.265 259.971 677.293 301.164C711.768 395.573 784.608 451.441 872.298 450.557C914.552 450.203 954.155 438.181 989.69 415.198C995.348 411.485 1001.18 407.242 1007.02 402.468C1015.33 395.75 1023.64 387.971 1031.77 380.545C1054.93 359.153 1078.8 337.231 1106.02 331.22C1144.03 322.91 1178.86 343.949 1212.63 364.28C1224.65 371.529 1237.2 379.131 1249.58 384.965C1296.78 407.772 1343.1 428.988 1391.19 437.297C1472.7 451.441 1553.85 450.733 1629.51 448.082L1629.69 451.264C1553.85 454.092 1472.52 454.623 1390.84 440.479C1342.4 432.17 1295.9 410.778 1248.34 387.971C1235.79 381.96 1223.24 374.358 1211.22 367.109C1177.98 347.131 1143.68 326.446 1106.91 334.402C1080.56 340.059 1056.87 361.805 1034.07 382.844C1025.93 390.446 1017.45 398.048 1009.14 404.943C1003.13 409.717 997.293 414.137 991.458 417.85C955.392 441.187 915.26 453.385 872.298 453.739C831.105 454.092 791.503 441.54 757.735 417.319C721.138 390.976 692.32 351.198 674.464 302.225C659.436 261.032 648.475 216.126 637.867 172.811C632.387 150.181 626.552 126.667 620.365 104.037C613.293 78.4019 606.574 57.8936 596.32 40.7445C582.353 17.0539 556.011 -5.75282 510.574 19.7057C457.713 49.2306 421.116 114.468 385.58 177.584L384.519 179.352C377.624 191.374 371.613 202.336 365.248 213.12C328.828 275.529 287.635 333.871 243.083 386.733C73.359 587.573 -122.531 678.269 -281.116 629.297Z" fill="#262626"/>
<path d="M-282 653.695L-280.939 650.69C-50.2212 726.181 223.458 490.866 374.265 219.485C381.69 206.225 389.116 192.082 396.364 178.469C431.193 112.524 467.26 44.4575 520.829 12.6343C539.922 1.3194 558.309 -2.57001 574.221 1.67308C589.602 5.73938 602.508 16.8774 612.762 35.0874C623.193 53.6509 629.911 75.3968 636.63 102.623C642.464 126.491 647.768 151.065 653.072 174.933C662.972 220.546 673.05 267.751 687.9 310.889C721.845 410.425 798.221 470.181 887.503 467.176C926.044 465.761 962.994 453.032 997.646 428.988C1010.55 419.971 1022.93 408.303 1034.95 396.988C1057.05 376.126 1080.03 354.38 1107.26 349.076C1142.97 342.005 1176.21 361.629 1208.39 380.723C1219.7 387.441 1231.55 394.336 1242.86 399.817C1291.3 422.977 1338.69 444.192 1386.77 451.971C1467.04 464.701 1547.13 463.286 1628.81 460.811L1628.98 463.994C1546.95 466.646 1466.86 467.883 1386.24 455.154C1337.62 447.552 1289.89 425.983 1241.45 402.822C1229.78 397.342 1218.11 390.27 1206.62 383.552C1174.97 364.811 1142.27 345.54 1107.61 352.259C1081.09 357.563 1058.64 378.778 1036.72 399.463C1024.7 410.955 1012.14 422.623 999.061 431.817C963.878 456.214 926.221 469.297 887.149 470.712C796.453 473.894 718.84 413.253 684.364 312.303C669.514 268.811 659.436 221.607 649.536 175.994C644.409 152.126 639.105 127.552 633.271 103.861C626.552 76.988 620.011 55.2421 609.757 37.0322C599.856 19.7062 587.657 8.9217 573.16 5.20899C558.132 1.1427 540.453 4.8554 522.243 15.8167C469.558 47.2863 433.668 114.999 399.016 180.413C391.768 194.027 384.342 208.17 376.917 221.43C225.403 493.518 -49.5139 729.717 -282 653.695Z" fill="#262626"/>
<path d="M-281.647 646.091L-280.763 643.086C-198.022 668.368 -106.089 655.638 -7.79019 605.075C78.4861 560.876 166.884 488.567 247.503 395.926C290.641 346.246 329.536 293.561 362.773 238.931C370.376 226.379 378.155 213.119 385.58 200.213C392.121 188.898 398.84 177.23 405.735 165.915C433.845 119.064 465.668 72.3897 508.807 48.3455C545.757 27.4837 577.934 35.0859 598.972 69.9146C610.287 88.655 617.713 111.462 624.077 133.207C630.442 155.307 636.276 177.937 641.934 199.859C652.895 242.467 664.387 286.666 679.768 326.975C715.481 420.677 790.442 474.953 875.657 468.765C913.492 465.937 950.972 451.616 987.215 425.981C1000.12 416.788 1012.67 405.119 1024.7 393.981C1047.86 372.412 1071.72 350.136 1100.19 343.948C1111.5 341.473 1123.17 341.296 1135.72 343.594C1161.36 348.191 1186.46 362.158 1210.68 375.594C1220.41 381.075 1230.49 386.732 1240.39 391.506C1251.88 397.163 1263.19 402.821 1274.69 408.478L1279.46 410.953C1309.87 425.981 1346.11 442.6 1383.94 451.086C1409.93 456.92 1437.34 461.517 1465.27 464.699C1517.43 470.71 1572.41 472.301 1628.98 469.119L1629.16 472.301C1572.41 475.484 1517.25 474.069 1464.92 467.881C1436.81 464.699 1409.4 460.103 1383.41 454.268C1345.23 445.605 1308.81 428.986 1278.22 413.782L1273.45 411.307C1261.96 405.649 1250.64 399.815 1239.15 394.335C1229.25 389.561 1219.17 383.904 1209.27 378.423C1185.23 364.986 1160.48 351.196 1135.37 346.776C1123.17 344.655 1112.03 344.655 1101.07 347.13C1073.67 353.141 1049.98 375.064 1027.17 396.279C1014.97 407.594 1002.42 419.263 989.337 428.633C952.563 454.622 914.552 469.119 876.188 471.948C789.558 478.312 713.359 423.152 677.116 328.213C661.735 287.727 650.243 243.528 639.282 200.743C633.624 178.821 627.79 156.191 621.425 134.091C615.237 112.522 607.989 89.8926 596.674 71.5058C582.53 48.1688 556.011 25.5389 510.751 50.9975C468.32 74.6881 436.674 121.009 408.917 167.329C402.022 178.644 395.304 190.312 388.762 201.627C381.337 214.533 373.558 227.793 365.956 240.346C332.718 295.152 293.823 348.014 250.508 397.87C169.536 490.865 80.9613 563.351 -5.6686 607.727C-105.381 658.644 -198.022 671.55 -281.647 646.091Z" fill="#262626"/>
<path d="M-281.293 638.485L-280.409 635.479C-131.547 677.38 56.9172 591.988 236.718 401.225C280.033 355.258 318.575 307.17 351.459 258.374C359.414 246.529 367.37 233.977 375.149 221.954C381.514 212.054 388.055 201.8 394.774 191.722C422.884 148.938 454.707 106.33 497.138 84.0539C543.282 59.8329 570.685 81.9324 585.536 104.739C597.204 122.595 605.337 144.695 611.702 163.966C618.42 184.12 624.785 204.628 630.796 224.606C642.994 264.562 655.724 305.755 671.812 343.413C709.293 430.927 782.84 479.899 863.989 470.706C901.116 466.639 939.127 450.728 976.961 423.501C989.867 414.131 1002.42 402.64 1014.62 391.501C1038.84 369.402 1063.94 346.419 1093.29 339.347C1104.96 336.518 1116.81 336.164 1129.54 337.932C1158.71 341.999 1187.35 357.203 1215.1 372.054C1222.53 375.943 1230.13 380.01 1237.56 383.899C1249.23 389.733 1261.78 396.452 1277.16 404.938C1307.39 421.733 1343.46 440.297 1380.94 451.258C1406.93 458.86 1434.15 465.225 1461.91 469.999C1518.49 479.723 1576.3 482.728 1628.63 478.485L1628.81 481.667C1576.12 485.91 1518.13 482.905 1461.2 473.181C1433.27 468.407 1405.87 462.043 1379.88 454.441C1342.04 443.479 1305.98 424.739 1275.39 407.943C1260.01 399.457 1247.46 392.916 1235.97 387.082C1228.54 383.369 1220.76 379.302 1213.34 375.236C1185.76 360.562 1157.29 345.358 1128.65 341.468C1116.28 339.7 1104.78 340.231 1093.47 342.883C1064.83 349.778 1040.25 372.408 1016.21 394.33C1004.01 405.468 991.282 417.137 978.199 426.507C939.834 454.087 901.47 470.175 863.812 474.242C781.425 483.435 706.464 433.932 668.453 345.004C652.365 307.17 639.635 265.8 627.437 225.844C621.249 205.866 615.061 185.358 608.343 165.38C601.978 146.286 594.022 124.54 582.53 106.861C556.895 67.6119 522.597 74.5069 498.376 87.2362C456.652 109.159 425.182 151.413 397.249 193.844C390.707 203.921 383.989 213.999 377.801 223.899C370.022 236.098 361.89 248.651 353.934 260.496C321.05 309.292 282.508 357.557 239.017 403.7C157.691 489.977 70.884 557.689 -12.21 599.413C-109.801 648.032 -200.32 661.291 -281.293 638.485Z" fill="#262626"/>
<path d="M-280.939 630.89L-280.232 627.884C-88.5855 677.21 118.973 510.315 225.757 406.536C268.895 364.459 307.437 321.144 339.79 278.006C348.453 266.514 357.116 254.315 365.602 242.293C371.437 234.161 377.271 225.851 383.282 217.719C411.746 178.647 443.746 139.929 484.939 119.774C509.691 107.752 544.696 101.387 571.392 139.575C583.415 156.547 591.901 176.879 598.619 194.558C605.514 212.415 612.232 230.625 618.597 248.304C632.74 287.376 646.354 324.503 663.149 359.509C702.398 440.658 774.531 483.973 851.437 472.481C888.21 467 925.691 450.028 965.823 420.857C978.729 411.487 991.282 400.172 1003.3 389.21C1028.59 366.404 1054.75 342.713 1085.34 334.757C1097.18 331.752 1109.38 330.868 1122.46 332.106C1156.23 335.465 1189.82 352.967 1222.18 369.763C1226.24 371.884 1230.31 374.006 1234.2 375.951C1246.93 382.492 1260.01 389.741 1274.15 398.404C1306.33 417.851 1340.98 437.652 1377.23 450.735C1403.39 460.282 1430.62 468.238 1457.85 474.426C1517.25 488.039 1575.94 492.282 1627.75 486.978L1628.1 490.161C1576.12 495.641 1517.07 491.221 1457.32 477.608C1429.91 471.244 1402.51 463.288 1376.17 453.741C1339.75 440.481 1304.92 420.68 1272.56 401.056C1258.42 392.393 1245.34 385.144 1232.78 378.779C1228.72 376.658 1224.83 374.713 1220.76 372.592C1188.59 355.796 1155.35 338.47 1122.11 335.288C1109.38 334.05 1097.71 334.934 1086.04 337.763C1056.34 345.542 1030.35 368.879 1005.43 391.509C993.227 402.47 980.674 413.962 967.591 423.509C927.105 453.034 889.271 470.183 851.967 475.84C773.647 487.509 700.1 443.663 660.321 361.1C643.348 325.917 629.205 287.023 615.591 249.542C609.227 231.862 602.508 213.652 595.613 195.796C588.895 178.293 580.409 158.315 568.74 141.52C543.282 105.277 509.868 111.288 486.177 122.78C445.691 142.581 414.044 180.945 385.757 219.663C379.746 227.796 373.912 236.105 368.078 244.238C359.591 256.083 350.751 268.459 342.088 279.951C309.558 323.266 271.017 366.757 227.702 408.835C120.74 512.967 -87.8784 680.57 -280.939 630.89Z" fill="#262626"/>
<path d="M-280.585 623.284L-279.878 620.279C-144.099 651.748 22.2655 581.737 214.796 411.836C258.995 372.765 296.122 335.461 328.299 297.45C337.669 286.488 346.862 274.997 356.586 262.974C361.713 256.61 367.017 250.069 372.321 243.704C401.138 208.522 433.138 173.516 473.271 155.66C507.569 140.278 536.74 146.82 557.956 174.577C570.332 190.842 579.702 210.29 586.42 225.317C593.315 240.522 600.033 256.08 606.398 271.107C622.31 308.058 637.337 342.886 655.547 375.77C696.564 450.378 767.282 488.035 840.122 474.422C876.188 467.704 914.022 449.317 955.746 418.201C968.475 408.654 980.851 397.693 993.05 386.908C1019.57 363.395 1046.97 338.997 1078.62 330.157C1090.82 326.798 1103.19 325.56 1116.45 326.444C1156.59 328.919 1198.31 350.842 1231.9 368.345C1244.98 375.24 1258.6 383.196 1272.39 392.212C1310.04 416.964 1341.87 436.411 1374.57 450.555C1401.45 462.223 1427.79 471.593 1455.02 479.372C1497.8 491.571 1562.51 504.301 1627.92 495.991L1628.28 499.174C1562.33 507.483 1497.09 494.754 1454.13 482.378C1426.73 474.599 1400.39 465.052 1373.34 453.384C1340.28 439.063 1308.45 419.615 1270.62 394.687C1257.01 385.671 1243.39 377.715 1230.49 370.997C1197.25 353.494 1155.88 331.925 1116.28 329.45C1103.37 328.743 1091.35 329.803 1079.5 333.162C1048.56 341.825 1021.51 365.87 995.171 389.207C982.973 399.991 970.597 411.129 957.691 420.676C915.437 451.969 877.249 470.533 840.652 477.428C766.398 491.394 694.265 453.03 652.718 377.361C634.508 344.301 619.481 309.295 603.569 272.345C597.028 257.317 590.486 241.936 583.591 226.555C576.873 211.527 567.68 192.433 555.481 176.345C535.149 149.649 507.923 143.638 474.685 158.488C435.26 176.168 403.437 210.82 374.973 245.649C369.669 252.013 364.542 258.555 359.415 264.919C350.221 276.411 340.497 288.256 331.127 299.395C298.774 337.406 261.647 374.886 217.271 414.135C23.503 584.566 -143.746 654.93 -280.585 623.284Z" fill="#262626"/>
<path d="M-280.408 615.506L-279.701 612.324C-112.099 646.799 76.5416 517.208 203.834 416.788C248.917 381.252 285.868 348.368 316.807 316.722C327.238 305.937 337.492 294.799 348.453 282.954C352.696 278.357 356.763 273.937 361.006 269.34C388.056 240.169 420.409 207.639 461.249 191.02C494.84 177.23 522.774 183.418 543.989 208.876C556.542 223.904 566.442 241.76 573.514 255.374C579.348 266.512 585.006 277.65 590.663 288.788C609.227 325.031 626.729 359.329 647.061 391.329C689.846 458.865 759.149 491.219 827.923 475.484C863.636 467.352 900.763 448.081 944.962 414.843C957.514 405.473 969.713 394.512 981.735 384.081C1009.49 359.683 1038.31 334.401 1071.19 324.677C1083.57 320.965 1096.3 319.374 1109.74 319.727C1150.75 320.788 1193.01 340.412 1228.72 359.683C1242.33 366.932 1256.12 375.418 1269.56 385.142C1303.33 409.186 1336.39 432.169 1371.04 449.672C1398.09 463.285 1424.43 474.423 1451.13 483.44C1494.97 498.291 1560.92 514.025 1627.22 504.125L1627.75 507.307C1560.92 517.208 1494.27 501.473 1450.24 486.445C1423.19 477.252 1396.85 466.114 1369.62 452.501C1334.8 434.998 1301.56 411.838 1267.79 387.794C1254.35 378.247 1240.74 369.76 1227.3 362.512C1191.77 343.595 1150.04 323.97 1109.74 323.086C1096.48 322.733 1084.28 324.324 1072.08 327.86C1039.9 337.407 1011.44 362.335 983.857 386.556C971.834 396.987 959.459 407.948 946.906 417.495C902.354 451.086 864.696 470.534 828.63 478.666C758.442 494.578 687.901 461.871 644.409 393.097C624.078 360.921 606.398 326.622 587.834 290.202C582.177 279.064 576.52 267.926 570.685 256.788C563.614 243.175 553.89 225.672 541.514 210.821C521.182 186.423 494.663 180.589 462.31 193.849C422 210.291 390.177 242.468 363.304 271.285C359.061 275.882 354.995 280.302 350.752 284.898C339.79 296.744 329.536 307.882 319.105 318.666C287.989 350.489 251.039 383.374 205.779 419.086C115.437 490.335 40.4753 538.954 -30.0661 572.191C-123.061 616.036 -207.215 630.534 -280.408 615.506Z" fill="#262626"/>
<path d="M-280.055 607.905L-279.525 604.723C-126.243 631.949 44.718 524.634 192.873 422.093C240.961 388.855 275.613 362.336 305.492 336.17C317.69 325.386 329.713 314.248 342.442 302.226L349.867 295.331C377.271 269.695 409.801 241.231 449.226 226.911C481.757 215.065 508.983 220.723 530.022 243.883C540.099 254.844 549.646 267.927 560.608 286.137C564.32 292.148 567.856 297.983 571.392 303.994C593.845 340.767 614.884 375.596 638.574 407.773C683.127 468.237 751.016 494.933 815.724 477.607C860.983 465.585 902.707 436.414 934.177 412.546C946.375 403.176 958.398 392.745 970.066 382.668C999.237 357.386 1029.29 331.22 1063.59 320.435C1076.32 316.546 1089.05 314.601 1103.02 314.425C1138.2 314.071 1178.33 326.447 1225.71 352.259C1239.68 359.861 1253.65 368.878 1267.08 379.132C1297.85 402.822 1332.85 429.695 1367.86 449.673C1395.26 465.408 1421.25 478.137 1447.77 488.568C1510.88 513.496 1574.35 522.336 1626.86 513.32L1627.39 516.502C1574.35 525.518 1510.18 516.679 1446.53 491.574C1420.01 481.143 1393.67 468.237 1366.27 452.502C1331.08 432.347 1296.08 405.474 1265.14 381.607C1251.88 371.353 1238.09 362.513 1224.12 354.911C1177.27 329.452 1137.67 317.076 1103.02 317.43C1089.58 317.607 1077.03 319.375 1064.65 323.264C1031.06 333.872 1001.18 359.861 972.188 384.966C960.519 395.043 948.497 405.651 936.121 415.021C904.475 439.242 862.221 468.414 816.608 480.789C750.486 498.469 681.359 471.242 636.099 409.717C612.232 377.364 591.193 342.535 568.74 305.762C565.204 299.927 561.491 293.916 557.956 287.905C546.994 269.872 537.624 256.966 527.724 246.005C507.569 223.905 481.403 218.425 450.287 229.739C411.392 243.883 379.038 272.17 351.989 297.452L344.563 304.347C331.834 316.369 319.812 327.507 307.436 338.292C277.558 364.458 242.729 391.154 194.641 424.391C46.1324 527.817 -125.536 635.485 -280.055 607.905Z" fill="#262626"/>
<path d="M-279.701 600.307L-279.171 597.124C-136.674 618.34 16.608 526.406 151.68 445.434C161.934 439.246 172.011 433.235 182.089 427.224C219.569 404.948 258.995 381.08 294.177 355.445C308.321 345.014 322.288 334.229 338.906 321.147C368.078 298.163 399.547 274.649 437.558 262.451C469.028 252.373 495.547 257.854 516.586 278.539C526.84 288.793 536.917 300.815 548.409 316.55C575.636 354.207 602.332 390.804 630.973 423.688C677.824 477.434 742.707 498.119 804.586 479.202C848.078 465.765 887.857 437.832 924.453 409.544C936.122 400.528 947.79 390.451 959.105 380.727C989.691 354.384 1021.34 327.158 1057.23 315.312C1070.13 311.069 1083.22 308.771 1097.36 308.241C1144.74 306.296 1192.12 326.627 1223.59 344.13C1238.09 352.086 1252.06 361.633 1265.32 372.594L1271.15 377.368C1303.15 403.71 1333.38 428.638 1365.2 449.147C1392.78 467.003 1418.77 481.324 1444.76 493.169C1481.89 509.788 1554.91 535.776 1627.04 521.986L1627.57 525.169C1554.55 538.959 1480.83 512.97 1443.35 495.998C1417.18 484.152 1391.02 469.832 1363.26 451.799C1331.26 431.114 1299.61 404.948 1268.85 379.666L1263.02 374.893C1249.93 364.108 1235.97 354.561 1221.65 346.782C1190.53 329.633 1143.68 309.478 1097.01 311.423C1083.22 311.953 1070.49 314.252 1057.76 318.318C1022.57 329.986 991.105 357.036 960.696 383.025C949.381 392.749 937.713 402.826 926.044 412.02C889.271 440.484 849.315 468.594 805.116 482.207C742 501.655 675.879 480.44 628.321 425.81C599.68 392.926 572.807 356.329 545.58 318.495C534.266 302.76 524.365 290.915 514.111 280.837C493.956 261.036 468.498 255.909 438.266 265.456C400.785 277.478 369.492 300.815 340.498 323.622C323.879 336.705 309.912 347.666 295.768 358.097C260.409 383.732 220.984 407.776 183.503 430.053C173.603 435.887 163.348 442.075 153.094 448.263C17.6688 529.589 -135.966 621.699 -279.701 600.307Z" fill="#262626"/>
<path d="M-279.348 592.7L-278.994 589.518C-155.944 604.015 -22.287 533.651 95.6356 471.419C121.978 457.629 146.73 444.546 171.127 432.524L187.039 424.745C220.807 408.126 252.807 392.391 282.685 375.065C295.592 367.64 309.381 358.977 327.591 347.131C358.531 326.977 389.293 308.236 425.536 298.336C455.768 290.026 481.757 295.154 502.619 313.54C513.404 323.087 523.835 333.695 535.503 347.485C567.503 384.789 595.083 414.137 622.486 440.126C670.928 486.093 734.398 501.474 792.387 481.142C836.763 465.584 878.31 434.822 913.669 407.065C924.807 398.402 935.768 388.855 946.553 379.662C978.73 352.258 1012.14 323.795 1049.62 310.888C1062.71 306.469 1076.5 303.64 1090.46 302.579C1130.24 299.75 1176.39 311.772 1220.23 336.347C1235.08 344.656 1249.23 354.734 1262.49 366.225C1267.08 370.292 1271.68 374.358 1276.28 378.248C1305.27 403.883 1332.85 428.104 1361.67 448.966C1389.25 468.944 1415.24 485.032 1441.05 497.938C1505.05 530.115 1572.59 542.137 1626.51 530.822L1627.22 534.004C1572.76 545.496 1504.52 533.297 1439.81 500.767C1414 487.684 1387.83 471.596 1360.08 451.441C1331.08 430.402 1302.27 405.12 1274.33 380.546C1269.74 376.479 1265.14 372.413 1260.54 368.524C1247.46 357.032 1233.49 347.131 1218.82 338.999C1175.5 314.601 1129.89 302.756 1090.82 305.585C1076.85 306.645 1063.77 309.297 1050.69 313.717C1013.74 326.446 980.674 354.734 948.674 381.96C937.89 391.154 926.752 400.7 915.614 409.363C880.078 437.297 838.354 468.413 793.448 483.971C734.398 504.479 669.691 488.921 620.365 442.247C592.962 416.258 565.205 386.734 533.205 349.43C521.536 335.993 511.282 325.209 500.674 315.839C480.697 298.159 455.768 293.386 426.597 301.341C390.884 311.065 360.299 329.806 329.536 349.783C311.326 361.629 297.359 370.292 284.453 377.717C254.398 395.22 222.398 410.955 188.63 427.573L172.895 435.352C148.674 447.374 123.746 460.457 97.5804 474.247C-21.2262 536.656 -155.414 607.374 -279.348 592.7Z" fill="#262626"/>
<path d="M-278.995 585.098L-278.641 581.915C-171.679 591.109 -59.9447 538.424 48.2541 487.684C87.5028 469.297 124.63 451.794 160.343 437.827C173.249 432.877 185.978 428.103 198.177 423.507C223.812 413.96 248.033 404.766 271.193 394.689C285.337 388.501 300.188 381.429 316.453 373.297C344.917 358.799 377.094 342.534 413.691 334.402C442.862 327.86 468.144 332.634 488.829 348.722C499.967 357.385 511.105 367.109 522.774 378.424C551.414 406.004 581.47 431.639 614.177 456.567C664.917 495.109 725.381 504.833 780.365 483.264C823.326 466.468 862.928 436.413 902.884 404.59C913.138 396.28 923.569 387.617 933.47 379.131C967.414 350.313 1002.77 320.612 1042.02 306.291C1055.28 301.518 1069.43 298.336 1083.75 296.921C1126.35 292.678 1173.73 303.816 1217.23 328.744C1232.43 337.231 1246.75 347.838 1259.83 360.214C1266.91 366.755 1273.8 373.297 1280.87 379.838C1305.98 403.529 1332.14 428.103 1358.31 449.142C1386.07 471.418 1411.88 489.098 1437.34 503.241C1502.22 539.308 1570.99 552.921 1625.8 540.369L1626.51 543.374C1570.82 556.103 1501.34 542.49 1435.75 506.07C1410.11 491.75 1384.12 474.07 1356.19 451.617C1329.85 430.579 1303.68 406.004 1278.57 382.137C1271.68 375.595 1264.61 369.054 1257.71 362.512C1244.81 350.49 1230.49 340.059 1215.64 331.573C1172.67 306.998 1126 295.86 1084.1 300.103C1070.13 301.518 1056.34 304.7 1043.26 309.297C1004.54 323.264 969.536 352.965 935.591 381.429C925.514 389.915 915.26 398.755 904.829 406.888C864.519 438.888 824.74 469.12 781.425 485.916C725.381 507.838 663.68 497.938 612.055 458.689C579.171 433.584 549.116 407.949 520.298 380.192C508.63 369.054 497.669 359.33 486.53 350.844C466.376 335.286 442.685 330.689 414.044 337.23C377.801 345.363 345.801 361.628 317.691 375.949C301.425 384.258 286.575 391.33 272.254 397.518C248.917 407.772 224.696 416.788 199.061 426.512C186.685 431.109 173.956 435.882 161.227 440.833C125.514 454.623 88.5636 472.125 49.3149 490.512C-59.0607 541.606 -171.149 594.468 -278.995 585.098Z" fill="#262626"/>
<path d="M-278.641 577.489L-278.464 574.307C-185.293 579.08 -87.5248 537.533 6.88402 497.224C56.9172 475.831 104.298 455.677 149.381 443.124C167.591 437.997 185.624 433.577 202.95 429.157C222.751 424.207 241.492 419.434 260.055 414.13C275.436 409.533 290.464 404.759 305.492 399.102L312.033 396.627C339.967 386.196 368.961 375.588 401.845 369.931C429.956 365.157 454.707 369.577 475.039 383.367C487.061 391.5 498.729 399.986 510.044 408.826C545.403 436.406 579.878 457.445 606.044 472.472C658.022 502.704 717.249 507.301 768.696 484.848C813.425 465.4 855.503 431.632 892.63 401.754C902 394.329 911.193 386.373 920.387 378.771C956.453 348.362 993.757 317.069 1035.13 301.511C1048.74 296.384 1063.06 292.848 1077.56 291.08C1121.93 285.246 1171.97 296.207 1214.57 320.782C1230.13 329.622 1244.63 340.76 1257.71 353.666C1266.91 362.682 1276.1 371.876 1285.12 381.069C1307.92 404.052 1331.61 427.743 1355.3 448.605C1383.06 473.003 1408.87 492.45 1434.15 507.831C1498.86 547.257 1570.46 562.638 1625.8 549.025L1626.51 552.03C1569.58 566.174 1498.86 550.97 1432.39 510.483C1407.1 495.102 1381.12 475.655 1353.18 451.08C1329.31 430.218 1305.62 406.351 1282.82 383.367C1273.8 374.174 1264.61 364.981 1255.41 355.964C1242.51 343.235 1228.19 332.273 1212.98 323.61C1170.91 299.213 1121.58 288.605 1077.91 294.262C1063.59 296.03 1049.62 299.566 1036.19 304.516C995.171 319.898 958.221 351.014 922.332 381.246C913.315 388.848 903.945 396.804 894.575 404.229C857.271 434.108 815.017 468.229 769.934 487.854C717.602 510.66 657.315 506.064 604.453 475.301C578.287 460.097 543.812 439.058 508.099 411.301C496.785 402.461 485.116 393.975 473.271 386.019C453.293 372.583 430.133 368.34 402.376 373.113C369.668 378.771 341.028 389.378 313.094 399.633L306.553 402.108C291.348 407.765 276.497 412.715 260.939 417.135C242.376 422.616 223.635 427.213 203.834 432.34C186.508 436.76 168.652 441.18 150.442 446.307C105.536 458.859 58.3315 479.014 8.29833 500.406C-86.6409 540.539 -184.762 582.439 -278.641 577.489Z" fill="#262626"/>
<path d="M-278.287 569.893L-278.287 566.711C-197.138 568.125 -111.923 534.711 -29.5359 502.534C29.6907 479.374 85.5581 457.451 138.597 448.435C160.696 444.722 182.088 442.07 202.95 439.595C218.862 437.65 233.713 435.882 248.74 433.584C265.182 431.109 280.21 428.28 294.53 424.921C300.188 423.683 306.022 422.269 311.856 420.855C336.431 415.02 362.066 408.833 390 405.65C417.58 402.468 440.74 406.534 461.249 418.026C471.326 423.86 484.762 431.462 497.492 439.241C532.144 460.457 566.088 475.485 597.912 488.567C629.028 501.474 691.083 518.269 757.028 486.623C799.989 465.937 838.53 434.821 879.193 401.584L882.376 398.932C890.331 392.391 898.287 385.849 906.243 379.131C944.608 346.954 984.21 313.716 1028.23 296.567C1042.2 291.263 1056.7 287.197 1071.37 284.899C1118.04 277.473 1169.31 287.728 1212.1 312.656C1227.83 321.849 1242.51 333.518 1255.59 347.131C1266.73 358.8 1278.04 370.822 1288.83 382.49C1309.51 404.766 1330.91 427.573 1352.48 448.258C1380.76 475.308 1405.69 495.639 1430.97 512.435C1496.39 555.75 1569.23 572.722 1625.8 557.695L1626.69 560.7C1569.23 575.904 1495.5 558.932 1429.38 515.087C1403.92 498.291 1378.82 477.783 1350.53 450.556C1328.96 429.871 1307.57 406.888 1286.71 384.612C1275.92 372.943 1264.61 360.921 1253.47 349.252C1240.56 335.816 1226.24 324.501 1210.69 315.308C1168.61 290.733 1118.22 280.656 1072.08 287.904C1057.58 290.203 1043.26 294.092 1029.65 299.396C986.155 316.369 946.729 349.429 908.541 381.429C900.586 388.147 892.63 394.689 884.674 401.23L881.492 403.882C842.42 435.706 802.11 468.413 758.796 489.274C691.79 521.451 628.674 504.302 597.204 491.219C565.381 478.137 531.083 462.932 496.431 441.717C483.702 433.938 470.442 426.335 460.365 420.501C440.564 409.186 417.934 405.297 391.061 408.479C363.127 411.838 337.669 417.849 313.271 423.683C307.437 425.098 301.602 426.512 295.945 427.75C281.448 431.109 266.42 433.938 249.978 436.413C234.95 438.711 219.923 440.479 204.188 442.424C183.503 444.899 162.111 447.551 140.011 451.263C87.326 460.28 31.6354 482.026 -27.4143 505.186C-111.039 537.716 -196.431 571.308 -278.287 569.893Z" fill="#262626"/>
<path d="M-277.933 559.111C-207.392 557.697 -133.491 530.648 -62.0661 504.482C4.76269 480.084 68.0554 456.924 127.812 453.565C152.387 452.15 176.254 452.504 199.238 452.857C212.321 453.034 224.696 453.211 237.249 453.034C254.575 452.857 269.249 452.15 283.216 450.913C294.354 449.852 305.492 448.614 317.337 447.2C336.608 444.902 356.586 442.603 377.801 441.366C404.321 439.774 426.951 443.487 447.105 452.857C454.707 456.393 462.133 459.752 469.558 463.112C474.508 465.41 479.459 467.531 484.409 469.83C520.475 486.448 556.011 496.349 589.249 504.659C627.79 514.382 685.956 519.332 744.829 488.393C786.376 466.647 825.271 434.471 862.752 403.531L871.414 396.283C877.602 391.156 883.79 386.029 889.978 380.725C930.995 346.427 973.602 310.891 1020.45 291.973C1034.77 286.316 1049.45 281.896 1064.48 279.244C1113.45 270.228 1165.96 279.598 1208.74 304.88C1224.83 314.427 1239.68 326.449 1252.76 340.769C1265.67 354.913 1278.57 369.763 1291.13 383.907C1309.87 405.476 1329.32 427.576 1348.94 447.907C1377.23 477.255 1402.15 499.178 1427.08 517.211C1493.2 564.415 1567.11 582.802 1624.92 566.537L1625.8 569.542C1567.11 586.161 1491.97 567.598 1425.14 519.863C1399.86 501.83 1374.93 479.73 1346.46 450.205C1326.84 429.874 1307.39 407.598 1288.65 386.029C1276.28 371.708 1263.37 357.034 1250.46 342.891C1237.73 328.924 1223.06 316.902 1207.15 307.532C1165.07 282.603 1113.27 273.41 1065.01 282.25C1050.33 284.902 1035.83 289.145 1021.69 294.802C975.194 313.542 932.939 348.902 892.1 383.023C885.912 388.15 879.724 393.454 873.359 398.581L864.696 405.83C826.862 436.946 787.967 469.123 746.066 491.045C699.392 515.62 643.348 521.454 588.188 507.664C554.951 499.355 519.061 489.277 482.818 472.659C477.868 470.36 473.094 468.239 467.967 465.94C460.718 462.581 453.116 459.222 445.514 455.686C425.89 446.493 403.79 442.957 377.801 444.548C356.586 445.786 336.785 448.084 317.514 450.382C305.669 451.797 294.531 453.034 283.216 454.095C269.072 455.333 254.398 456.04 236.895 456.217C224.343 456.393 211.967 456.217 198.707 456.04C175.724 455.686 151.857 455.509 127.459 456.747C68.0554 460.106 5.11632 483.089 -61.5357 507.487C-133.315 533.653 -207.392 560.703 -278.464 562.294L-277.933 559.111Z" fill="#262626"/>
<path d="M-277.757 551.505C-216.939 547.793 -153.293 525.693 -91.7678 504.478C-18.2208 479.019 51.2599 454.975 117.028 459.041C143.194 460.632 168.475 464.345 193.05 468.058C203.834 469.649 215.149 471.24 226.111 472.655C243.967 474.953 258.641 476.367 272.431 476.898C292.763 477.782 313.625 477.605 335.547 477.251C345.625 477.075 355.879 477.075 366.31 477.075C391.945 477.075 413.868 480.434 433.492 487.682C446.575 492.456 459.481 496.522 471.68 500.411C511.105 512.964 549.116 517.737 580.939 520.743C619.481 524.456 677.116 522.157 732.984 489.981C772.939 466.997 810.774 435.351 847.37 404.942C851.967 401.052 856.564 397.34 861.16 393.45C865.05 390.091 868.939 386.909 873.006 383.55C917.381 346.423 963.171 308.058 1013.56 287.019C1028.23 281.008 1043.26 276.235 1058.29 273.229C1109.38 262.621 1163.3 271.285 1206.09 296.92C1222.53 306.82 1237.56 319.373 1250.46 334.224C1264.96 351.019 1279.28 368.345 1293.07 385.318C1310.22 406.18 1327.9 427.749 1345.76 447.55C1374.04 479.196 1398.8 502.71 1423.72 521.804C1475.35 561.406 1555.08 596.058 1624.74 575.196L1625.62 578.202C1554.91 599.417 1473.93 564.235 1421.78 524.279C1396.67 505.008 1371.75 481.318 1343.46 449.494C1325.6 429.516 1307.92 407.947 1290.77 387.086C1276.98 370.29 1262.66 352.787 1248.17 336.168C1235.44 321.494 1220.76 309.119 1204.5 299.395C1162.42 274.113 1109.2 265.627 1058.99 276.058C1044.14 279.24 1029.29 283.837 1014.8 289.671C964.763 310.533 919.149 348.721 874.95 385.671C871.061 389.03 867.172 392.213 863.105 395.572C858.509 399.461 853.912 403.174 849.315 407.063C812.718 437.649 774.707 469.295 734.575 492.456C678 524.986 619.658 527.284 580.586 523.572C548.409 520.566 510.221 515.616 470.619 503.063C458.243 499.174 445.337 495.108 432.254 490.157C412.984 483.085 391.238 479.727 366.133 479.727C355.702 479.727 345.448 479.903 335.37 479.903C313.271 480.08 292.409 480.434 272.078 479.55C258.288 479.019 243.437 477.605 225.58 475.307C214.619 473.892 203.304 472.301 192.52 470.71C168.122 467.174 142.84 463.284 116.851 461.693C51.7903 457.627 -17.3368 481.671 -90.7069 506.953C-152.409 528.345 -216.232 550.445 -277.58 554.157L-277.757 551.505Z" fill="#262626"/>
<path d="M-277.58 543.907C-225.603 538.603 -171.326 520.393 -118.995 502.89C-43.3262 477.609 34.9943 451.266 106.066 464.349C132.939 469.299 159.105 476.725 184.563 483.973C194.464 486.802 204.718 489.631 214.619 492.283C233.005 497.233 247.503 500.415 261.116 502.89C292.055 508.371 324.055 510.846 354.287 512.791C379.215 514.382 400.608 517.564 419.525 522.515C433.138 526.051 446.574 528.703 458.95 531.178C493.072 537.542 529.315 539.487 572.63 537.189C627.967 534.183 678 518.979 721.138 491.929C759.679 467.708 796.453 436.592 831.989 406.537C838.177 401.233 844.364 396.106 850.552 390.802L853.027 388.857C901.293 348.194 951.326 306.117 1006.31 282.603C1021.34 276.239 1036.54 271.112 1051.75 267.576C1104.96 255.2 1160.12 263.156 1203.26 289.145C1220.23 299.399 1235.26 312.482 1248.17 328.04C1264.25 347.487 1279.99 367.819 1295.19 387.62C1310.57 407.598 1326.49 428.106 1342.57 447.553C1371.04 481.675 1395.61 506.957 1420.19 526.935C1472.17 569.542 1552.96 607.023 1624.39 584.393L1625.27 587.399C1552.61 610.382 1470.57 572.548 1418.07 529.41C1393.31 509.255 1368.56 483.797 1339.92 449.675C1323.83 430.404 1307.92 409.719 1292.36 389.741C1277.16 370.117 1261.43 349.609 1245.34 330.338C1232.78 314.957 1217.93 302.227 1201.31 292.15C1158.88 266.515 1104.61 258.736 1052.28 270.935C1037.25 274.471 1022.04 279.421 1007.37 285.785C952.917 309.122 903.061 351.023 854.972 391.686L852.497 393.631C846.309 398.758 840.121 404.062 833.934 409.366C798.221 439.598 761.447 470.714 722.729 495.111C679.061 522.515 628.674 537.719 572.63 540.725C528.961 543.023 492.541 541.078 458.243 534.714C445.867 532.415 432.431 529.587 418.641 526.051C399.9 521.277 378.862 518.095 353.934 516.504C323.702 514.559 291.525 512.084 260.409 506.603C246.619 504.128 232.121 500.769 213.558 495.819C203.48 493.167 193.226 490.161 183.503 487.509C158.221 480.261 132.055 473.012 105.359 468.062C34.9943 455.156 -42.7959 481.145 -118.111 506.426C-170.619 524.106 -225.072 542.139 -277.404 547.62L-277.58 543.907Z" fill="#262626"/>
<path d="M-277.227 536.3C-233.381 529.759 -187.945 514.731 -143.923 500.234C-63.6577 473.714 19.4363 446.134 95.4584 469.648C122.155 477.957 148.32 488.919 173.602 499.526C183.326 503.593 193.58 507.836 203.48 511.902C221.514 519.151 236.364 524.631 250.331 529.051C278.442 537.891 308.674 544.256 342.619 548.676L350.044 549.56C368.431 552.035 387.525 554.51 405.911 557.339C418.11 559.283 431.37 560.698 446.398 561.758C484.055 564.234 522.596 561.582 564.497 553.272C617.889 542.841 666.685 522.687 709.469 493.692C746.596 468.587 782.132 437.825 816.608 408.3C824.563 401.582 832.342 394.864 840.298 388.145C894.221 342.355 943.547 302.223 999.237 277.825C1014.62 271.107 1030.18 265.626 1045.56 261.736C1100.72 247.593 1157.29 254.841 1200.61 281.361C1217.76 291.792 1232.96 305.405 1245.87 321.67C1263.02 343.239 1279.64 366.046 1295.72 388.145C1310.04 407.77 1324.72 427.924 1339.57 447.018C1367.86 483.438 1392.43 510.134 1417.01 531.526C1497.09 601.184 1578.77 608.256 1624.39 593.051L1625.45 596.057C1593.45 606.665 1555.79 605.604 1516.54 592.698C1481.36 581.206 1445.47 560.344 1415.06 534.002C1390.31 512.609 1365.56 485.56 1337.27 449.14C1322.42 430.046 1307.57 409.714 1293.25 390.09C1277.16 367.991 1260.54 345.184 1243.57 323.615C1231.02 307.703 1215.99 294.267 1199.19 284.013C1156.59 257.847 1100.89 250.952 1046.62 264.742C1031.41 268.631 1016.03 273.935 1000.83 280.654C945.492 305.051 896.519 344.83 842.596 390.62C834.641 397.339 826.862 404.057 818.906 410.775C784.254 440.477 748.541 471.062 711.414 496.344C668.276 525.692 618.95 546.024 565.204 556.455C522.95 564.764 484.055 567.593 446.221 564.941C431.193 563.88 417.757 562.466 405.381 560.521C386.994 557.692 368.077 555.217 349.69 552.742L342.265 551.858C308.143 547.438 277.735 540.897 249.447 532.057C235.304 527.637 220.453 522.156 202.243 514.908C192.342 510.841 182.088 506.598 172.364 502.532C147.083 491.924 121.094 480.963 94.5745 472.83C19.4363 449.67 -63.1273 476.897 -142.862 503.239C-186.884 517.913 -232.497 532.941 -276.696 539.482L-277.227 536.3Z" fill="#262626"/>
<path d="M-277.05 528.695C-240.807 521.623 -203.503 509.07 -167.26 496.872C-83.105 468.761 3.87829 439.59 84.4972 474.949C111.193 486.617 137.536 501.291 163.171 515.435C187.923 529.225 213.558 543.369 239.193 554.861C388.409 621.513 555.481 599.767 697.447 495.28C732.63 469.468 766.928 439.59 799.989 410.772C873.889 346.595 950.265 280.12 1038.84 255.546C1121.23 232.739 1197.6 254.838 1243.04 314.949C1261.07 338.64 1278.4 364.098 1295.19 388.496C1331.26 440.827 1368.39 494.927 1413.12 536.12C1463.68 582.617 1549.07 627.7 1623.68 601.712L1624.74 604.717C1548.89 631.236 1462.27 585.446 1410.99 538.419C1366.09 497.048 1328.78 442.772 1292.72 390.264C1275.92 365.866 1258.6 340.584 1240.56 316.894C1223.77 294.794 1159.77 225.314 1039.72 258.551C951.856 282.949 875.657 349.07 802.11 413.07C768.873 441.888 734.574 471.767 699.392 497.756C556.541 602.949 388.232 624.695 237.956 557.689C212.144 546.198 186.508 531.877 161.757 518.087C136.298 503.943 109.956 489.269 83.4364 477.601C3.87841 442.595 -82.5747 471.59 -166.199 499.524C-202.442 511.722 -239.923 524.275 -276.343 531.347L-277.05 528.695Z" fill="#262626"/>
</svg>
