<svg width="15" height="16" viewBox="0 0 15 16" fill="none" xmlns="http://www.w3.org/2000/svg">
<path d="M3.36168 5.18601C4.06976 5.18601 4.64377 4.612 4.64377 3.90392C4.64377 3.19584 4.06976 2.62183 3.36168 2.62183C2.6536 2.62183 2.07959 3.19584 2.07959 3.90392C2.07959 4.612 2.6536 5.18601 3.36168 5.18601Z" fill="#454545"/>
<path d="M5.85437 6.15723V13.2703H8.06287V9.75272C8.06287 8.82455 8.23749 7.92568 9.38832 7.92568C10.5233 7.92568 10.5374 8.98686 10.5374 9.81131V13.2708H12.7471V9.37008C12.7471 7.45398 12.3346 5.98145 10.095 5.98145C9.01975 5.98145 8.29901 6.57151 8.00427 7.12994H7.97439V6.15723H5.85437V6.15723ZM2.25537 6.15723H4.46739V13.2703H2.25537V6.15723Z" fill="#454545"/>
</svg>
