<svg width="15" height="16" viewBox="0 0 15 16" fill="none" xmlns="http://www.w3.org/2000/svg">
<path d="M7.52542 5.2915C6.80682 5.2915 6.11764 5.57697 5.60951 6.0851C5.10138 6.59323 4.81592 7.2824 4.81592 8.00101C4.81592 8.71961 5.10138 9.40878 5.60951 9.91691C6.11764 10.425 6.80682 10.7105 7.52542 10.7105C8.24402 10.7105 8.9332 10.425 9.44133 9.91691C9.94946 9.40878 10.2349 8.71961 10.2349 8.00101C10.2349 7.2824 9.94946 6.59323 9.44133 6.0851C8.9332 5.57697 8.24402 5.2915 7.52542 5.2915ZM7.52542 9.76066C7.05858 9.76066 6.61085 9.57521 6.28074 9.2451C5.95063 8.91499 5.76518 8.46726 5.76518 8.00042C5.76518 7.53358 5.95063 7.08585 6.28074 6.75574C6.61085 6.42563 7.05858 6.24018 7.52542 6.24018C7.99226 6.24018 8.43999 6.42563 8.7701 6.75574C9.10021 7.08585 9.28566 7.53358 9.28566 8.00042C9.28566 8.46726 9.10021 8.91499 8.7701 9.2451C8.43999 9.57521 7.99226 9.76066 7.52542 9.76066Z" fill="#454545"/>
<path d="M10.3421 5.8234C10.691 5.8234 10.9738 5.54059 10.9738 5.19173C10.9738 4.84287 10.691 4.56006 10.3421 4.56006C9.99326 4.56006 9.71045 4.84287 9.71045 5.19173C9.71045 5.54059 9.99326 5.8234 10.3421 5.8234Z" fill="#454545"/>
<path d="M12.5265 4.5495C12.3908 4.1992 12.1835 3.88108 11.9178 3.61551C11.6522 3.34993 11.334 3.14276 10.9836 3.00724C10.5736 2.85334 10.1405 2.77012 9.70269 2.76113C9.13841 2.73652 8.95969 2.72949 7.52876 2.72949C6.09784 2.72949 5.91443 2.72949 5.35483 2.76113C4.91735 2.76966 4.48453 2.8529 4.07509 3.00724C3.72464 3.1426 3.40636 3.34972 3.14067 3.61531C2.87497 3.88091 2.66773 4.19911 2.53224 4.5495C2.37831 4.95945 2.29528 5.39261 2.28672 5.83042C2.26152 6.39412 2.25391 6.57284 2.25391 8.00435C2.25391 9.43527 2.25391 9.61751 2.28672 10.1783C2.29551 10.6166 2.37813 11.049 2.53224 11.4598C2.66811 11.8101 2.87555 12.1281 3.14131 12.3937C3.40707 12.6592 3.7253 12.8664 4.07567 13.002C4.48434 13.1621 4.91733 13.2513 5.356 13.2657C5.92029 13.2903 6.09901 13.298 7.52993 13.298C8.96086 13.298 9.14427 13.298 9.70387 13.2657C10.1416 13.2568 10.5747 13.1738 10.9848 13.0202C11.335 12.8844 11.6531 12.677 11.9188 12.4114C12.1844 12.1457 12.3918 11.8276 12.5276 11.4774C12.6817 11.0672 12.7644 10.6347 12.7731 10.1964C12.7983 9.63274 12.806 9.45403 12.806 8.02251C12.806 6.591 12.806 6.40935 12.7731 5.84858C12.7663 5.40458 12.6829 4.96509 12.5265 4.5495ZM11.8128 10.1349C11.809 10.4726 11.7473 10.8072 11.6305 11.124C11.5425 11.3519 11.4078 11.5588 11.235 11.7315C11.0623 11.9042 10.8553 12.0387 10.6273 12.1266C10.314 12.2429 9.983 12.3045 9.64878 12.3088C9.09212 12.3346 8.93508 12.3411 7.50767 12.3411C6.07909 12.3411 5.93318 12.3411 5.36597 12.3088C5.03192 12.3048 4.70109 12.2431 4.38799 12.1266C4.15928 12.0393 3.95145 11.9049 3.77794 11.7322C3.60443 11.5595 3.4691 11.3523 3.38072 11.124C3.26554 10.8106 3.20394 10.48 3.19848 10.146C3.17329 9.58938 3.16743 9.43234 3.16743 8.00493C3.16743 6.57694 3.16743 6.43103 3.19848 5.86323C3.20227 5.52573 3.26391 5.19138 3.38072 4.87471C3.55944 4.41238 3.92566 4.0485 4.38799 3.87154C4.70124 3.7556 5.03198 3.69397 5.36597 3.6893C5.92322 3.66411 6.07967 3.65707 7.50767 3.65707C8.93567 3.65707 9.08216 3.65707 9.64878 3.6893C9.98302 3.69332 10.3141 3.75497 10.6273 3.87154C10.8552 3.95959 11.0622 4.09432 11.235 4.26708C11.4077 4.43984 11.5425 4.64681 11.6305 4.87471C11.7457 5.18817 11.8073 5.51878 11.8128 5.85269C11.8379 6.40994 11.8444 6.56639 11.8444 7.99439C11.8444 9.4218 11.8444 9.57532 11.8192 10.1355H11.8128V10.1349Z" fill="#454545"/>
</svg>
