<svg width="42" height="42" viewBox="0 0 42 42" fill="none" xmlns="http://www.w3.org/2000/svg">
<path d="M22.9762 41.9063C27.8434 41.4531 32.3982 39.3096 35.8495 35.8479C44.0502 27.6476 44.0502 14.3506 35.8495 6.15026C27.6488 -2.05009 14.3512 -2.05009 6.15053 6.15026C-2.05018 14.3506 -2.05018 27.6476 6.15053 35.8479C8.25282 37.9547 10.7799 39.5894 13.5635 40.6431C16.347 41.6968 19.3231 42.1453 22.2936 41.9588C22.5222 41.9919 22.7553 41.974 22.9762 41.9063ZM3.31126 18.5925C3.76033 15.2575 5.14773 12.1187 7.31186 9.5417L18.7739 20.9991L16.4891 23.2839C14.2798 21.4989 11.8186 20.5371 9.47281 19.9071C8.10778 19.5417 6.75114 19.2771 5.51001 19.0398L5.47641 19.0314C4.70569 18.8844 3.98538 18.7437 3.31336 18.5925H3.31126ZM3.16635 21.7845C3.72497 21.9021 4.28988 22.0113 4.8464 22.1205L4.8758 22.1247C6.14213 22.3704 7.40006 22.614 8.65379 22.95C10.6551 23.4876 12.562 24.2435 14.2441 25.5287L7.31396 32.4586C4.7922 29.4552 3.33403 25.7025 3.16635 21.7845ZM16.4786 27.7484C17.8961 29.5585 18.6626 31.5409 19.2024 33.5716C19.4649 34.5585 19.6665 35.5203 19.8702 36.4947L20.0466 37.3242C20.1516 37.8282 20.2671 38.3343 20.3931 38.8383C16.4126 38.7085 12.5908 37.2466 9.54001 34.6866L16.4786 27.7484ZM23.6041 38.6598C23.4237 38 23.264 37.3346 23.1253 36.6648L22.9636 35.8941C22.7577 34.9092 22.533 33.8362 22.2474 32.761C21.6153 30.3922 20.6472 27.8534 18.7193 25.5077L21 23.2272L32.46 34.6866C29.9343 36.8078 26.8678 38.1836 23.6041 38.6598ZM23.2261 20.9991L25.7713 18.456C28.1108 20.4342 30.5594 21.522 32.838 22.2906C33.7767 22.6098 34.7217 22.8828 35.5912 23.1369C35.9251 23.2335 36.2485 23.3259 36.5572 23.4183C37.2922 23.6408 37.9663 23.855 38.5816 24.0923C38.0441 27.1755 36.7009 30.0618 34.6881 32.4586L23.2261 20.9991ZM37.4581 20.4006L36.4039 20.0919C35.5463 19.849 34.6942 19.5871 33.8481 19.3065C31.8657 18.6345 29.8832 17.7526 28.0079 16.2196L34.686 9.5396C37.3461 12.7082 38.8187 16.7047 38.8504 20.8416C38.3884 20.6841 37.9201 20.5392 37.4581 20.4006ZM32.46 7.31154L25.7797 13.9915C24.2467 12.1163 23.3626 10.1339 22.6926 8.15153C22.4111 7.30513 22.1492 6.45232 21.9072 5.59377V5.59167C21.8022 5.24308 21.7035 4.89449 21.5964 4.54169C21.4578 4.0797 21.315 3.61141 21.1575 3.14942C25.2943 3.18062 29.291 4.65238 32.46 7.31154ZM19.7064 9.15951C20.4771 11.438 21.5628 13.8886 23.5432 16.228L21 18.7731L9.54001 7.31154C11.9369 5.29892 14.8233 3.95576 17.9066 3.41821C18.1439 4.0335 18.3581 4.70549 18.5786 5.44258L18.8621 6.40856C19.1142 7.27794 19.3872 8.22083 19.7064 9.15951Z" fill="white"/>
</svg>
