<svg width="29" height="41" viewBox="0 0 29 41" fill="none" xmlns="http://www.w3.org/2000/svg">
<path d="M7.04931 36.2692V40.2115C7.04931 40.6468 7.40052 41 7.83326 41H10.9691C11.177 41 11.3764 40.9169 11.5234 40.7691C11.6704 40.6212 11.753 40.4207 11.753 40.2115V36.2692H13.3209V40.2115C13.3209 40.6468 13.6721 41 14.1049 41H17.2407C17.4486 41 17.648 40.9169 17.795 40.7691C17.9421 40.6212 18.0247 40.4207 18.0247 40.2115V36.2692H18.2881C24.5346 36.2692 29 33.0113 29 27.3754C29 22.6383 25.8422 20.049 22.1451 19.68V19.4025C25.1869 18.6392 27.4227 16.3306 27.4227 12.4955C27.4227 7.66385 23.8165 4.73077 18.3131 4.73077H18.0247V0.788462C18.0247 0.579349 17.9421 0.3788 17.795 0.230935C17.648 0.08307 17.4486 0 17.2407 0H14.1049C13.897 0 13.6976 0.08307 13.5505 0.230935C13.4035 0.3788 13.3209 0.579349 13.3209 0.788462V4.73077H11.5241V0.788462C11.5241 0.579349 11.4415 0.3788 11.2945 0.230935C11.1475 0.08307 10.9481 0 10.7402 0H7.83326C7.62534 0 7.42594 0.08307 7.27892 0.230935C7.1319 0.3788 7.04931 0.579349 7.04931 0.788462V4.73077L0.783953 4.76546C0.576036 4.76546 0.376634 4.84853 0.229614 4.9964C0.0825942 5.14426 0 5.34481 0 5.55392V8.67308C0 9.10515 0.344939 9.46154 0.777681 9.46154L3.14522 9.44577C3.76625 9.44993 4.36044 9.70098 4.79811 10.1441C5.23578 10.5873 5.48141 11.1865 5.4814 11.8112V29.1731C5.4814 29.8004 5.23362 30.4021 4.79256 30.8457C4.3515 31.2893 3.75329 31.5385 3.12954 31.5385L0.783953 31.5732C0.576036 31.5732 0.376634 31.6562 0.229614 31.8041C0.0825942 31.952 0 32.1525 0 32.3616V35.5155C0 35.9507 0.351211 36.3039 0.783953 36.3039L7.04931 36.2692ZM11.5241 9.42054H16.9146C19.7556 9.42054 21.4239 10.9912 21.4239 13.5584C21.4239 16.3054 19.6208 17.8539 15.538 17.8539H11.5241V9.42054ZM11.5241 22.1968H17.294C20.8594 22.1968 22.8005 24.026 22.8005 27.0032C22.8005 30.0088 20.8375 31.5763 16.0334 31.5763H11.5241V22.1999V22.1968Z" fill="white"/>
</svg>
