<svg width="15" height="16" viewBox="0 0 15 16" fill="none" xmlns="http://www.w3.org/2000/svg">
<path d="M11.8938 5.6547C11.9015 5.75724 11.9015 5.8592 11.9015 5.96116C11.9015 9.08142 9.52654 12.6769 5.1863 12.6769C3.84913 12.6769 2.60688 12.2896 1.56152 11.6169C1.75138 11.6386 1.9342 11.6462 2.13167 11.6462C3.19402 11.6488 4.22628 11.2935 5.06208 10.6377C4.56953 10.6288 4.09206 10.4663 3.69633 10.1729C3.30061 9.87951 3.00639 9.46986 2.85475 9.00115C3.00065 9.02283 3.14714 9.03748 3.30067 9.03748C3.5122 9.03748 3.72491 9.00818 3.92238 8.9572C3.38784 8.84927 2.90718 8.55953 2.56213 8.13725C2.21708 7.71496 2.02894 7.18621 2.02971 6.64088V6.61158C2.34437 6.78678 2.70943 6.89636 3.09617 6.91101C2.77218 6.69572 2.50652 6.40358 2.32289 6.06065C2.13926 5.71772 2.04337 5.33468 2.04377 4.94568C2.04377 4.50738 2.16038 4.10541 2.36488 3.755C2.95796 4.48454 3.69766 5.08137 4.53608 5.50684C5.3745 5.9323 6.29293 6.17692 7.23191 6.22484C7.19558 6.04905 7.17331 5.86682 7.17331 5.684C7.17316 5.374 7.2341 5.06701 7.35266 4.78058C7.47122 4.49415 7.64507 4.2339 7.86427 4.01469C8.08347 3.79549 8.34373 3.62164 8.63016 3.50308C8.91659 3.38452 9.22358 3.32358 9.53358 3.32373C10.2133 3.32373 10.8268 3.60851 11.2581 4.06908C11.7865 3.9669 12.2932 3.774 12.7558 3.49893C12.5797 4.04436 12.2107 4.50685 11.7181 4.79978C12.1867 4.74632 12.6447 4.62308 13.0769 4.43413C12.7541 4.90472 12.3541 5.31739 11.8938 5.6547Z" fill="#454545"/>
</svg>
