<svg width="43" height="43" viewBox="0 0 43 43" fill="none" xmlns="http://www.w3.org/2000/svg">
<path d="M11.1765 27.4557H18.0588M24.9412 27.4557V9.3967V27.4557ZM24.9412 27.4557L37.568 34.5552C37.9168 34.7513 38.3119 34.8538 38.7136 34.8524C39.1154 34.8511 39.5097 34.746 39.8572 34.5476C40.2047 34.3492 40.4931 34.0645 40.6937 33.722C40.8942 33.3794 40.9999 32.9911 41 32.5958V4.25665C40.9999 3.86134 40.8942 3.473 40.6937 3.13047C40.4931 2.78794 40.2047 2.50324 39.8572 2.30486C39.5097 2.10647 39.1154 2.00135 38.7136 2.00001C38.3119 1.99868 37.9168 2.10117 37.568 2.29725L24.9412 9.3967V27.4557ZM24.9412 27.4557H18.0588H24.9412ZM24.9412 9.3967H11.1765C8.74272 9.3967 6.40865 10.348 4.68773 12.0414C2.9668 13.7347 2 16.0314 2 18.4262V18.4262C2 20.821 2.9668 23.1177 4.68773 24.811C6.40865 26.5044 8.74272 27.4557 11.1765 27.4557L24.9412 9.3967ZM11.1765 27.4557V37.6139C11.1765 38.512 11.539 39.3732 12.1844 40.0082C12.8297 40.6433 13.705 41 14.6176 41C15.5303 41 16.4056 40.6433 17.0509 40.0082C17.6963 39.3732 18.0588 38.512 18.0588 37.6139V27.4557H11.1765Z" stroke="white" stroke-width="3" stroke-linecap="round" stroke-linejoin="round"/>
</svg>
